URWGothicL-Book.ufo
<glyph name="exclam" format="1">
  <advance width="295"/>
  <unicode hex="0021"/>
  <outline>
    <contour>
      <point x="111" y="0" type="line"/>
      <point x="185" y="0" type="line"/>
      <point x="185" y="126" type="line"/>
      <point x="111" y="126" type="line"/>
    </contour>
    <contour>
      <point x="111" y="197" type="line"/>
      <point x="185" y="197" type="line"/>
      <point x="185" y="739" type="line"/>
      <point x="111" y="739" type="line"/>
    </contour>
  </outline>
</glyph>
<glyph name="quotedbl" format="1">
  <advance width="309"/>
  <unicode hex="0022"/>
  <outline>
    <contour>
      <point x="237" y="513" type="line"/>
      <point x="237" y="739" type="line"/>
      <point x="187" y="739" type="line"/>
      <point x="187" y="513" type="line"/>
    </contour>
    <contour>
      <point x="124" y="513" type="line"/>
      <point x="124" y="739" type="line"/>
      <point x="74" y="739" type="line"/>
      <point x="74" y="513" type="line"/>
    </contour>
  </outline>
</glyph>
<glyph name="dollar" format="1">
  <advance width="554"/>
  <unicode hex="0024"/>
  <outline>
    <contour>
      <point x="245" y="-56" type="line"/>
      <point x="311" y="-56" type="line"/>
      <point x="311" y="29" type="line"/>
      <point x="410" y="40"/>
      <point x="479" y="121"/>
      <point x="479" y="226" type="curve" smooth="yes"/>
      <point x="479" y="280"/>
      <point x="460" y="329"/>
      <point x="424" y="363" type="curve" smooth="yes"/>
      <point x="397" y="390"/>
      <point x="367" y="405"/>
      <point x="296" y="428" type="curve" smooth="yes"/>
      <point x="201" y="458"/>
      <point x="174" y="484"/>
      <point x="174" y="546" type="curve" smooth="yes"/>
      <point x="174" y="619"/>
      <point x="218" y="665"/>
      <point x="287" y="665" type="curve" smooth="yes"/>
      <point x="356" y="665"/>
      <point x="399" y="621"/>
      <point x="403" y="547" type="curve"/>
      <point x="473" y="547" type="line"/>
      <point x="469" y="646"/>
      <point x="409" y="713"/>
      <point x="311" y="728" type="curve"/>
      <point x="311" y="810" type="line"/>
      <point x="245" y="810" type="line"/>
      <point x="245" y="728" type="line"/>
      <point x="156" y="710"/>
      <point x="100" y="642"/>
      <point x="100" y="552" type="curve" smooth="yes"/>
      <point x="100" y="509"/>
      <point x="114" y="466"/>
      <point x="139" y="436" type="curve" smooth="yes"/>
      <point x="165" y="403"/>
      <point x="195" y="386"/>
      <point x="270" y="363" type="curve" smooth="yes"/>
      <point x="320" y="348"/>
      <point x="343" y="337"/>
      <point x="363" y="321" type="curve" smooth="yes"/>
      <point x="390" y="298"/>
      <point x="405" y="264"/>
      <point x="405" y="224" type="curve" smooth="yes"/>
      <point x="405" y="146"/>
      <point x="351" y="90"/>
      <point x="277" y="90" type="curve" smooth="yes"/>
      <point x="198" y="90"/>
      <point x="149" y="142"/>
      <point x="144" y="228" type="curve"/>
      <point x="75" y="228" type="line"/>
      <point x="71" y="120"/>
      <point x="131" y="50"/>
      <point x="245" y="29" type="curve"/>
    </contour>
  </outline>
</glyph>
<glyph name="ampersand" format="1">
  <advance width="757"/>
  <unicode hex="0026"/>
  <outline>
    <contour>
      <point x="602" y="481" type="line"/>
      <point x="494" y="273" type="line"/>
      <point x="354" y="411" type="line"/>
      <point x="399" y="434"/>
      <point x="415" y="443"/>
      <point x="431" y="455" type="curve" smooth="yes"/>
      <point x="477" y="489"/>
      <point x="498" y="529"/>
      <point x="498" y="583" type="curve" smooth="yes"/>
      <point x="498" y="680"/>
      <point x="422" y="752"/>
      <point x="320" y="752" type="curve" smooth="yes"/>
      <point x="223" y="752"/>
      <point x="145" y="680"/>
      <point x="145" y="588" type="curve" smooth="yes"/>
      <point x="145" y="537"/>
      <point x="165" y="498"/>
      <point x="227" y="433" type="curve"/>
      <point x="184" y="411"/>
      <point x="160" y="395"/>
      <point x="138" y="378" type="curve" smooth="yes"/>
      <point x="86" y="336"/>
      <point x="57" y="278"/>
      <point x="57" y="213" type="curve" smooth="yes"/>
      <point x="57" y="154"/>
      <point x="82" y="94"/>
      <point x="123" y="52" type="curve" smooth="yes"/>
      <point x="166" y="9"/>
      <point x="223" y="-13"/>
      <point x="290" y="-13" type="curve" smooth="yes"/>
      <point x="388" y="-13"/>
      <point x="455" y="37"/>
      <point x="513" y="153" type="curve"/>
      <point x="684" y="-13" type="line"/>
      <point x="735" y="38" type="line"/>
      <point x="548" y="220" type="line"/>
      <point x="684" y="481" type="line"/>
    </contour>
    <contour>
      <point x="458" y="206" type="line"/>
      <point x="404" y="96"/>
      <point x="356" y="54"/>
      <point x="285" y="54" type="curve" smooth="yes"/>
      <point x="199" y="54"/>
      <point x="130" y="121"/>
      <point x="130" y="205" type="curve" smooth="yes"/>
      <point x="130" y="279"/>
      <point x="171" y="327"/>
      <point x="280" y="380" type="curve"/>
    </contour>
    <contour>
      <point x="300" y="464" type="curve"/>
      <point x="242" y="517"/>
      <point x="219" y="552"/>
      <point x="219" y="590" type="curve" smooth="yes"/>
      <point x="219" y="643"/>
      <point x="264" y="685"/>
      <point x="322" y="685" type="curve" smooth="yes"/>
      <point x="382" y="685"/>
      <point x="428" y="643"/>
      <point x="428" y="589" type="curve" smooth="yes"/>
      <point x="428" y="537"/>
      <point x="389" y="498"/>
    </contour>
  </outline>
</glyph>
<glyph name="quotesingle" format="1">
  <advance width="198"/>
  <unicode hex="0027"/>
  <outline>
    <contour>
      <point x="124" y="513" type="line"/>
      <point x="124" y="739" type="line"/>
      <point x="74" y="739" type="line"/>
      <point x="74" y="513" type="line"/>
    </contour>
  </outline>
</glyph>
<glyph name="parenleft" format="1">
  <advance width="369"/>
  <unicode hex="0028"/>
  <outline>
    <contour>
      <point x="335" y="739" type="line"/>
      <point x="277" y="719"/>
      <point x="242" y="698"/>
      <point x="201" y="656" type="curve" smooth="yes"/>
      <point x="111" y="566"/>
      <point x="57" y="435"/>
      <point x="57" y="309" type="curve" smooth="yes"/>
      <point x="57" y="205"/>
      <point x="89" y="107"/>
      <point x="153" y="19" type="curve" smooth="yes"/>
      <point x="207" y="-57"/>
      <point x="259" y="-97"/>
      <point x="335" y="-125" type="curve"/>
      <point x="335" y="-60" type="line"/>
      <point x="285" y="-29"/>
      <point x="255" y="-3"/>
      <point x="226" y="35" type="curve" smooth="yes"/>
      <point x="166" y="115"/>
      <point x="131" y="214"/>
      <point x="131" y="309" type="curve" smooth="yes"/>
      <point x="131" y="391"/>
      <point x="156" y="474"/>
      <point x="206" y="551" type="curve" smooth="yes"/>
      <point x="240" y="606"/>
      <point x="277" y="641"/>
      <point x="335" y="676" type="curve"/>
    </contour>
  </outline>
</glyph>
<glyph name="parenright" format="1">
  <advance width="369"/>
  <unicode hex="0029"/>
  <outline>
    <contour>
      <point x="34" y="-125" type="line"/>
      <point x="92" y="-105"/>
      <point x="127" y="-83"/>
      <point x="168" y="-42" type="curve" smooth="yes"/>
      <point x="258" y="49"/>
      <point x="312" y="179"/>
      <point x="312" y="305" type="curve" smooth="yes"/>
      <point x="312" y="409"/>
      <point x="280" y="507"/>
      <point x="216" y="595" type="curve" smooth="yes"/>
      <point x="162" y="671"/>
      <point x="110" y="712"/>
      <point x="34" y="739" type="curve"/>
      <point x="34" y="674" type="line"/>
      <point x="84" y="644"/>
      <point x="114" y="617"/>
      <point x="143" y="579" type="curve" smooth="yes"/>
      <point x="203" y="499"/>
      <point x="238" y="400"/>
      <point x="238" y="306" type="curve" smooth="yes"/>
      <point x="238" y="224"/>
      <point x="213" y="141"/>
      <point x="163" y="63" type="curve" smooth="yes"/>
      <point x="129" y="9"/>
      <point x="92" y="-27"/>
      <point x="34" y="-61" type="curve"/>
    </contour>
  </outline>
</glyph>
<glyph name="plus" format="1">
  <advance width="606"/>
  <unicode hex="002B"/>
  <outline>
    <contour>
      <point x="265" y="341" type="line"/>
      <point x="51" y="341" type="line"/>
      <point x="51" y="267" type="line"/>
      <point x="265" y="267" type="line"/>
      <point x="265" y="49" type="line"/>
      <point x="342" y="49" type="line"/>
      <point x="342" y="267" type="line"/>
      <point x="555" y="267" type="line"/>
      <point x="555" y="341" type="line"/>
      <point x="342" y="341" type="line"/>
      <point x="342" y="557" type="line"/>
      <point x="265" y="557" type="line"/>
    </contour>
  </outline>
</glyph>
<glyph name="comma" format="1">
  <advance width="277"/>
  <unicode hex="002C"/>
  <outline>
    <contour>
      <point x="91" y="-67" type="line"/>
      <point x="165" y="-67" type="line"/>
      <point x="253" y="126" type="line"/>
      <point x="179" y="126" type="line"/>
    </contour>
  </outline>
</glyph>
<glyph name="hyphen" format="1">
  <advance width="332"/>
  <unicode hex="002D"/>
  <outline>
    <contour>
      <point x="31" y="296" type="line"/>
      <point x="31" y="233" type="line"/>
      <point x="302" y="233" type="line"/>
      <point x="302" y="296" type="line"/>
    </contour>
  </outline>
</glyph>
<glyph name="slash" format="1">
  <advance width="437"/>
  <unicode hex="002F"/>
  <outline>
    <contour>
      <point x="40" y="-128" type="line"/>
      <point x="107" y="-128" type="line"/>
      <point x="397" y="739" type="line"/>
      <point x="327" y="739" type="line"/>
    </contour>
  </outline>
</glyph>
<glyph name="zero" format="1">
  <advance width="554"/>
  <unicode hex="0030"/>
  <outline>
    <contour>
      <point x="30" y="269" type="line" smooth="yes"/>
      <point x="30" y="195"/>
      <point x="42" y="139"/>
      <point x="66" y="98" type="curve" smooth="yes"/>
      <point x="109" y="25"/>
      <point x="184" y="-13"/>
      <point x="283" y="-13" type="curve" smooth="yes"/>
      <point x="372" y="-13"/>
      <point x="439" y="18"/>
      <point x="481" y="79" type="curve" smooth="yes"/>
      <point x="510" y="122"/>
      <point x="525" y="186"/>
      <point x="525" y="269" type="curve" smooth="yes"/>
      <point x="525" y="479" type="line" smooth="yes"/>
      <point x="525" y="563"/>
      <point x="514" y="608"/>
      <point x="482" y="653" type="curve" smooth="yes"/>
      <point x="438" y="717"/>
      <point x="365" y="752"/>
      <point x="277" y="752" type="curve" smooth="yes"/>
      <point x="194" y="752"/>
      <point x="126" y="723"/>
      <point x="83" y="669" type="curve" smooth="yes"/>
      <point x="46" y="623"/>
      <point x="30" y="566"/>
      <point x="30" y="479" type="curve" smooth="yes"/>
    </contour>
    <contour>
      <point x="452" y="281" type="line" smooth="yes"/>
      <point x="452" y="216"/>
      <point x="444" y="165"/>
      <point x="428" y="134" type="curve" smooth="yes"/>
      <point x="402" y="83"/>
      <point x="348" y="54"/>
      <point x="280" y="54" type="curve" smooth="yes"/>
      <point x="217" y="54"/>
      <point x="167" y="78"/>
      <point x="136" y="124" type="curve" smooth="yes"/>
      <point x="113" y="157"/>
      <point x="103" y="205"/>
      <point x="103" y="281" type="curve" smooth="yes"/>
      <point x="103" y="462" type="line" smooth="yes"/>
      <point x="103" y="531"/>
      <point x="111" y="576"/>
      <point x="129" y="607" type="curve" smooth="yes"/>
      <point x="158" y="656"/>
      <point x="213" y="685"/>
      <point x="278" y="685" type="curve" smooth="yes"/>
      <point x="336" y="685"/>
      <point x="387" y="661"/>
      <point x="418" y="619" type="curve" smooth="yes"/>
      <point x="443" y="585"/>
      <point x="452" y="543"/>
      <point x="452" y="462" type="curve" smooth="yes"/>
    </contour>
  </outline>
</glyph>
<glyph name="one" format="1">
  <advance width="554"/>
  <unicode hex="0031"/>
  <outline>
    <contour>
      <point x="281" y="0" type="line"/>
      <point x="354" y="0" type="line"/>
      <point x="354" y="739" type="line"/>
      <point x="155" y="739" type="line"/>
      <point x="155" y="672" type="line"/>
      <point x="281" y="672" type="line"/>
    </contour>
  </outline>
</glyph>
<glyph name="two" format="1">
  <advance width="554"/>
  <unicode hex="0032"/>
  <outline>
    <contour>
      <point x="33" y="0" type="line"/>
      <point x="502" y="0" type="line"/>
      <point x="502" y="67" type="line"/>
      <point x="133" y="67" type="line"/>
      <point x="370" y="294" type="line" smooth="yes"/>
      <point x="474" y="393"/>
      <point x="506" y="448"/>
      <point x="506" y="527" type="curve" smooth="yes"/>
      <point x="506" y="657"/>
      <point x="408" y="752"/>
      <point x="273" y="752" type="curve" smooth="yes"/>
      <point x="170" y="752"/>
      <point x="88" y="698"/>
      <point x="55" y="608" type="curve" smooth="yes"/>
      <point x="42" y="573"/>
      <point x="39" y="552"/>
      <point x="39" y="500" type="curve"/>
      <point x="112" y="500" type="line"/>
      <point x="112" y="546"/>
      <point x="118" y="575"/>
      <point x="131" y="602" type="curve" smooth="yes"/>
      <point x="157" y="654"/>
      <point x="209" y="685"/>
      <point x="272" y="685" type="curve" smooth="yes"/>
      <point x="365" y="685"/>
      <point x="432" y="620"/>
      <point x="432" y="531" type="curve" smooth="yes"/>
      <point x="432" y="487"/>
      <point x="416" y="449"/>
      <point x="380" y="407" type="curve" smooth="yes"/>
      <point x="358" y="380"/>
      <point x="358" y="380"/>
      <point x="292" y="317" type="curve" smooth="yes"/>
      <point x="33" y="67" type="line"/>
    </contour>
  </outline>
</glyph>
<glyph name="three" format="1">
  <advance width="554"/>
  <unicode hex="0033"/>
  <outline>
    <contour>
      <point x="155" y="555" type="line"/>
      <point x="156" y="637"/>
      <point x="197" y="685"/>
      <point x="269" y="685" type="curve" smooth="yes"/>
      <point x="335" y="685"/>
      <point x="381" y="637"/>
      <point x="381" y="568" type="curve" smooth="yes"/>
      <point x="381" y="498"/>
      <point x="332" y="452"/>
      <point x="255" y="452" type="curve" smooth="yes"/>
      <point x="252" y="452"/>
      <point x="245" y="452"/>
      <point x="236" y="453" type="curve"/>
      <point x="219" y="454" type="line"/>
      <point x="219" y="388" type="line"/>
      <point x="268" y="387"/>
      <point x="285" y="386"/>
      <point x="305" y="382" type="curve" smooth="yes"/>
      <point x="379" y="364"/>
      <point x="430" y="298"/>
      <point x="430" y="220" type="curve" smooth="yes"/>
      <point x="430" y="126"/>
      <point x="360" y="54"/>
      <point x="270" y="54" type="curve" smooth="yes"/>
      <point x="214" y="54"/>
      <point x="166" y="80"/>
      <point x="135" y="126" type="curve" smooth="yes"/>
      <point x="117" y="153"/>
      <point x="110" y="178"/>
      <point x="106" y="231" type="curve"/>
      <point x="33" y="231" type="line"/>
      <point x="35" y="177"/>
      <point x="44" y="140"/>
      <point x="65" y="103" type="curve" smooth="yes"/>
      <point x="106" y="31"/>
      <point x="184" y="-13"/>
      <point x="272" y="-13" type="curve" smooth="yes"/>
      <point x="402" y="-13"/>
      <point x="504" y="91"/>
      <point x="504" y="224" type="curve" smooth="yes"/>
      <point x="504" y="313"/>
      <point x="462" y="381"/>
      <point x="379" y="423" type="curve"/>
      <point x="431" y="459"/>
      <point x="455" y="504"/>
      <point x="455" y="565" type="curve" smooth="yes"/>
      <point x="455" y="675"/>
      <point x="378" y="752"/>
      <point x="269" y="752" type="curve" smooth="yes"/>
      <point x="158" y="752"/>
      <point x="86" y="676"/>
      <point x="82" y="555" type="curve"/>
    </contour>
  </outline>
</glyph>
<glyph name="four" format="1">
  <advance width="554"/>
  <unicode hex="0034"/>
  <outline>
    <contour>
      <point x="386" y="0" type="line"/>
      <point x="459" y="0" type="line"/>
      <point x="459" y="135" type="line"/>
      <point x="527" y="135" type="line"/>
      <point x="527" y="202" type="line"/>
      <point x="459" y="202" type="line"/>
      <point x="459" y="739" type="line"/>
      <point x="372" y="739" type="line"/>
      <point x="12" y="202" type="line"/>
      <point x="12" y="135" type="line"/>
      <point x="386" y="135" type="line"/>
    </contour>
    <contour>
      <point x="386" y="202" type="line"/>
      <point x="97" y="202" type="line"/>
      <point x="386" y="637" type="line"/>
    </contour>
  </outline>
</glyph>
<glyph name="five" format="1">
  <advance width="554"/>
  <unicode hex="0035"/>
  <outline>
    <contour>
      <point x="67" y="375" type="line"/>
      <point x="124" y="353" type="line"/>
      <point x="169" y="409"/>
      <point x="219" y="436"/>
      <point x="277" y="436" type="curve" smooth="yes"/>
      <point x="377" y="436"/>
      <point x="454" y="354"/>
      <point x="454" y="246" type="curve" smooth="yes"/>
      <point x="454" y="138"/>
      <point x="376" y="54"/>
      <point x="277" y="54" type="curve" smooth="yes"/>
      <point x="184" y="54"/>
      <point x="111" y="127"/>
      <point x="98" y="232" type="curve"/>
      <point x="26" y="232" type="line"/>
      <point x="33" y="183"/>
      <point x="38" y="163"/>
      <point x="51" y="134" type="curve" smooth="yes"/>
      <point x="94" y="43"/>
      <point x="181" y="-13"/>
      <point x="280" y="-13" type="curve" smooth="yes"/>
      <point x="419" y="-13"/>
      <point x="528" y="101"/>
      <point x="528" y="246" type="curve" smooth="yes"/>
      <point x="528" y="390"/>
      <point x="421" y="503"/>
      <point x="283" y="503" type="curve" smooth="yes"/>
      <point x="239" y="503"/>
      <point x="201" y="493"/>
      <point x="156" y="468" type="curve"/>
      <point x="192" y="672" type="line"/>
      <point x="466" y="672" type="line"/>
      <point x="466" y="739" type="line"/>
      <point x="133" y="739" type="line"/>
    </contour>
  </outline>
</glyph>
<glyph name="six" format="1">
  <advance width="554"/>
  <unicode hex="0036"/>
  <outline>
    <contour>
      <point x="296" y="739" type="line"/>
      <point x="113" y="467" type="line" smooth="yes"/>
      <point x="43" y="362"/>
      <point x="25" y="317"/>
      <point x="25" y="244" type="curve" smooth="yes"/>
      <point x="25" y="97"/>
      <point x="134" y="-13"/>
      <point x="280" y="-13" type="curve" smooth="yes"/>
      <point x="424" y="-13"/>
      <point x="529" y="98"/>
      <point x="529" y="249" type="curve" smooth="yes"/>
      <point x="529" y="391"/>
      <point x="425" y="503"/>
      <point x="294" y="503" type="curve" smooth="yes"/>
      <point x="263" y="503"/>
      <point x="240" y="497"/>
      <point x="207" y="482" type="curve"/>
      <point x="381" y="739" type="line"/>
    </contour>
    <contour>
      <point x="278" y="436" type="curve" smooth="yes"/>
      <point x="381" y="436"/>
      <point x="455" y="356"/>
      <point x="455" y="246" type="curve" smooth="yes"/>
      <point x="455" y="135"/>
      <point x="381" y="54"/>
      <point x="280" y="54" type="curve" smooth="yes"/>
      <point x="176" y="54"/>
      <point x="99" y="136"/>
      <point x="99" y="248" type="curve" smooth="yes"/>
      <point x="99" y="354"/>
      <point x="177" y="436"/>
    </contour>
  </outline>
</glyph>
<glyph name="seven" format="1">
  <advance width="554"/>
  <unicode hex="0037"/>
  <outline>
    <contour>
      <point x="110" y="0" type="line"/>
      <point x="188" y="0" type="line"/>
      <point x="490" y="672" type="line"/>
      <point x="490" y="739" type="line"/>
      <point x="64" y="739" type="line"/>
      <point x="64" y="672" type="line"/>
      <point x="414" y="672" type="line"/>
    </contour>
  </outline>
</glyph>
<glyph name="eight" format="1">
  <advance width="554"/>
  <unicode hex="0038"/>
  <outline>
    <contour>
      <point x="167" y="413" type="curve"/>
      <point x="86" y="374"/>
      <point x="42" y="304"/>
      <point x="42" y="215" type="curve" smooth="yes"/>
      <point x="42" y="85"/>
      <point x="144" y="-13"/>
      <point x="280" y="-13" type="curve" smooth="yes"/>
      <point x="415" y="-13"/>
      <point x="512" y="84"/>
      <point x="512" y="218" type="curve" smooth="yes"/>
      <point x="512" y="309"/>
      <point x="467" y="377"/>
      <point x="385" y="413" type="curve"/>
      <point x="445" y="441"/>
      <point x="473" y="488"/>
      <point x="473" y="561" type="curve" smooth="yes"/>
      <point x="473" y="672"/>
      <point x="391" y="752"/>
      <point x="278" y="752" type="curve" smooth="yes"/>
      <point x="166" y="752"/>
      <point x="81" y="670"/>
      <point x="81" y="561" type="curve" smooth="yes"/>
      <point x="81" y="519"/>
      <point x="95" y="479"/>
      <point x="119" y="451" type="curve" smooth="yes"/>
      <point x="131" y="436"/>
      <point x="142" y="428"/>
    </contour>
    <contour>
      <point x="278" y="375" type="curve" smooth="yes"/>
      <point x="371" y="375"/>
      <point x="438" y="309"/>
      <point x="438" y="216" type="curve" smooth="yes"/>
      <point x="438" y="122"/>
      <point x="372" y="54"/>
      <point x="279" y="54" type="curve" smooth="yes"/>
      <point x="183" y="54"/>
      <point x="116" y="121"/>
      <point x="116" y="216" type="curve" smooth="yes"/>
      <point x="116" y="309"/>
      <point x="183" y="375"/>
    </contour>
    <contour>
      <point x="277" y="685" type="curve" smooth="yes"/>
      <point x="348" y="685"/>
      <point x="399" y="635"/>
      <point x="399" y="565" type="curve" smooth="yes"/>
      <point x="399" y="496"/>
      <point x="348" y="444"/>
      <point x="281" y="444" type="curve" smooth="yes"/>
      <point x="208" y="444"/>
      <point x="155" y="496"/>
      <point x="155" y="567" type="curve" smooth="yes"/>
      <point x="155" y="636"/>
      <point x="206" y="685"/>
    </contour>
  </outline>
</glyph>
<glyph name="nine" format="1">
  <advance width="554"/>
  <unicode hex="0039"/>
  <outline>
    <contour>
      <point x="258" y="0" type="line"/>
      <point x="441" y="272" type="line" smooth="yes"/>
      <point x="511" y="377"/>
      <point x="529" y="422"/>
      <point x="529" y="495" type="curve" smooth="yes"/>
      <point x="529" y="642"/>
      <point x="420" y="752"/>
      <point x="274" y="752" type="curve" smooth="yes"/>
      <point x="130" y="752"/>
      <point x="25" y="641"/>
      <point x="25" y="490" type="curve" smooth="yes"/>
      <point x="25" y="348"/>
      <point x="129" y="236"/>
      <point x="260" y="236" type="curve" smooth="yes"/>
      <point x="291" y="236"/>
      <point x="314" y="242"/>
      <point x="347" y="257" type="curve"/>
      <point x="173" y="0" type="line"/>
    </contour>
    <contour>
      <point x="274" y="685" type="curve" smooth="yes"/>
      <point x="378" y="685"/>
      <point x="455" y="603"/>
      <point x="455" y="491" type="curve" smooth="yes"/>
      <point x="455" y="385"/>
      <point x="377" y="303"/>
      <point x="276" y="303" type="curve" smooth="yes"/>
      <point x="173" y="303"/>
      <point x="99" y="383"/>
      <point x="99" y="493" type="curve" smooth="yes"/>
      <point x="99" y="605"/>
      <point x="173" y="685"/>
    </contour>
  </outline>
</glyph>
<glyph name="semicolon" format="1">
  <advance width="277"/>
  <unicode hex="003B"/>
  <outline>
    <contour>
      <point x="41" y="-67" type="line"/>
      <point x="115" y="-67" type="line"/>
      <point x="203" y="126" type="line"/>
      <point x="129" y="126" type="line"/>
    </contour>
    <contour>
      <point x="125" y="381" type="line"/>
      <point x="199" y="381" type="line"/>
      <point x="199" y="507" type="line"/>
      <point x="125" y="507" type="line"/>
    </contour>
  </outline>
</glyph>
<glyph name="less" format="1">
  <advance width="606"/>
  <unicode hex="003C"/>
  <outline>
    <contour>
      <point x="558" y="565" type="line"/>
      <point x="49" y="333" type="line"/>
      <point x="49" y="268" type="line"/>
      <point x="558" y="37" type="line"/>
      <point x="558" y="115" type="line"/>
      <point x="157" y="300" type="line"/>
      <point x="558" y="487" type="line"/>
    </contour>
  </outline>
</glyph>
<glyph name="equal" format="1">
  <advance width="606"/>
  <unicode hex="003D"/>
  <outline>
    <contour>
      <point x="555" y="436" type="line"/>
      <point x="51" y="436" type="line"/>
      <point x="51" y="362" type="line"/>
      <point x="555" y="362" type="line"/>
    </contour>
    <contour>
      <point x="555" y="238" type="line"/>
      <point x="51" y="238" type="line"/>
      <point x="51" y="164" type="line"/>
      <point x="555" y="164" type="line"/>
    </contour>
  </outline>
</glyph>
<glyph name="question" format="1">
  <advance width="591"/>
  <unicode hex="003F"/>
  <outline>
    <contour>
      <point x="261" y="0" type="line"/>
      <point x="335" y="0" type="line"/>
      <point x="335" y="126" type="line"/>
      <point x="261" y="126" type="line"/>
    </contour>
    <contour>
      <point x="135" y="508" type="line"/>
      <point x="139" y="557"/>
      <point x="145" y="583"/>
      <point x="159" y="608" type="curve" smooth="yes"/>
      <point x="186" y="656"/>
      <point x="239" y="685"/>
      <point x="299" y="685" type="curve" smooth="yes"/>
      <point x="387" y="685"/>
      <point x="451" y="623"/>
      <point x="451" y="537" type="curve" smooth="yes"/>
      <point x="451" y="488"/>
      <point x="435" y="461"/>
      <point x="367" y="397" type="curve" smooth="yes"/>
      <point x="291" y="327"/>
      <point x="264" y="275"/>
      <point x="263" y="193" type="curve"/>
      <point x="333" y="193" type="line"/>
      <point x="334" y="256"/>
      <point x="361" y="300"/>
      <point x="435" y="365" type="curve" smooth="yes"/>
      <point x="501" y="425"/>
      <point x="525" y="470"/>
      <point x="525" y="535" type="curve" smooth="yes"/>
      <point x="525" y="661"/>
      <point x="430" y="752"/>
      <point x="299" y="752" type="curve" smooth="yes"/>
      <point x="214" y="752"/>
      <point x="143" y="715"/>
      <point x="101" y="649" type="curve" smooth="yes"/>
      <point x="76" y="609"/>
      <point x="67" y="573"/>
      <point x="65" y="508" type="curve"/>
    </contour>
  </outline>
</glyph>
<glyph name="at" format="1">
  <advance width="867"/>
  <unicode hex="0040"/>
  <outline>
    <contour>
      <point x="656" y="574" type="line"/>
      <point x="595" y="574" type="line"/>
      <point x="578" y="524" type="line"/>
      <point x="567" y="549"/>
      <point x="559" y="561"/>
      <point x="543" y="571" type="curve" smooth="yes"/>
      <point x="522" y="585"/>
      <point x="493" y="593"/>
      <point x="463" y="593" type="curve" smooth="yes"/>
      <point x="339" y="593"/>
      <point x="219" y="445"/>
      <point x="219" y="292" type="curve" smooth="yes"/>
      <point x="219" y="205"/>
      <point x="276" y="144"/>
      <point x="357" y="144" type="curve" smooth="yes"/>
      <point x="404" y="144"/>
      <point x="439" y="159"/>
      <point x="476" y="196" type="curve"/>
      <point x="492" y="155"/>
      <point x="517" y="139"/>
      <point x="564" y="139" type="curve" smooth="yes"/>
      <point x="610" y="139"/>
      <point x="652" y="158"/>
      <point x="695" y="198" type="curve" smooth="yes"/>
      <point x="761" y="259"/>
      <point x="797" y="342"/>
      <point x="797" y="433" type="curve" smooth="yes"/>
      <point x="797" y="527"/>
      <point x="760" y="607"/>
      <point x="689" y="667" type="curve" smooth="yes"/>
      <point x="626" y="721"/>
      <point x="539" y="752"/>
      <point x="453" y="752" type="curve" smooth="yes"/>
      <point x="241" y="752"/>
      <point x="71" y="580"/>
      <point x="71" y="367" type="curve" smooth="yes"/>
      <point x="71" y="155"/>
      <point x="239" y="-13"/>
      <point x="451" y="-13" type="curve" smooth="yes"/>
      <point x="559" y="-13"/>
      <point x="665" y="32"/>
      <point x="727" y="105" type="curve"/>
      <point x="687" y="138" type="line"/>
      <point x="624" y="72"/>
      <point x="544" y="37"/>
      <point x="453" y="37" type="curve" smooth="yes"/>
      <point x="269" y="37"/>
      <point x="123" y="184"/>
      <point x="123" y="368" type="curve" smooth="yes"/>
      <point x="123" y="551"/>
      <point x="271" y="701"/>
      <point x="452" y="701" type="curve" smooth="yes"/>
      <point x="620" y="701"/>
      <point x="747" y="585"/>
      <point x="747" y="434" type="curve" smooth="yes"/>
      <point x="747" y="362"/>
      <point x="718" y="291"/>
      <point x="666" y="240" type="curve" smooth="yes"/>
      <point x="637" y="210"/>
      <point x="602" y="191"/>
      <point x="577" y="191" type="curve" smooth="yes"/>
      <point x="557" y="191"/>
      <point x="543" y="203"/>
      <point x="543" y="219" type="curve" smooth="yes"/>
      <point x="543" y="234"/>
      <point x="543" y="235"/>
      <point x="563" y="296" type="curve" smooth="yes"/>
    </contour>
    <contour>
      <point x="466" y="539" type="curve" smooth="yes"/>
      <point x="511" y="539"/>
      <point x="540" y="508"/>
      <point x="540" y="459" type="curve" smooth="yes"/>
      <point x="540" y="421"/>
      <point x="515" y="344"/>
      <point x="486" y="291" type="curve" smooth="yes"/>
      <point x="451" y="229"/>
      <point x="416" y="202"/>
      <point x="371" y="202" type="curve" smooth="yes"/>
      <point x="323" y="202"/>
      <point x="291" y="239"/>
      <point x="291" y="294" type="curve" smooth="yes"/>
      <point x="291" y="417"/>
      <point x="378" y="539"/>
    </contour>
  </outline>
</glyph>
<glyph name="B" format="1">
  <advance width="574"/>
  <unicode hex="0042"/>
  <outline>
    <contour>
      <point x="76" y="0" type="line"/>
      <point x="259" y="0" type="line" smooth="yes"/>
      <point x="358" y="0"/>
      <point x="414" y="11"/>
      <point x="461" y="39" type="curve" smooth="yes"/>
      <point x="513" y="71"/>
      <point x="544" y="136"/>
      <point x="544" y="212" type="curve" smooth="yes"/>
      <point x="544" y="302"/>
      <point x="506" y="359"/>
      <point x="420" y="394" type="curve"/>
      <point x="477" y="426"/>
      <point x="502" y="474"/>
      <point x="502" y="547" type="curve" smooth="yes"/>
      <point x="502" y="611"/>
      <point x="478" y="665"/>
      <point x="436" y="696" type="curve" smooth="yes"/>
      <point x="394" y="726"/>
      <point x="339" y="739"/>
      <point x="249" y="739" type="curve" smooth="yes"/>
      <point x="76" y="739" type="line"/>
    </contour>
    <contour>
      <point x="150" y="67" type="line"/>
      <point x="150" y="354" type="line"/>
      <point x="238" y="354" type="line" smooth="yes"/>
      <point x="325" y="354"/>
      <point x="369" y="348"/>
      <point x="400" y="333" type="curve" smooth="yes"/>
      <point x="444" y="311"/>
      <point x="469" y="267"/>
      <point x="469" y="208" type="curve" smooth="yes"/>
      <point x="469" y="157"/>
      <point x="446" y="112"/>
      <point x="411" y="94" type="curve" smooth="yes"/>
      <point x="376" y="75"/>
      <point x="326" y="67"/>
      <point x="251" y="67" type="curve" smooth="yes"/>
    </contour>
    <contour>
      <point x="150" y="421" type="line"/>
      <point x="150" y="672" type="line"/>
      <point x="239" y="672" type="line" smooth="yes"/>
      <point x="315" y="672"/>
      <point x="356" y="665"/>
      <point x="384" y="646" type="curve" smooth="yes"/>
      <point x="410" y="629"/>
      <point x="427" y="589"/>
      <point x="427" y="546" type="curve" smooth="yes"/>
      <point x="427" y="495"/>
      <point x="407" y="457"/>
      <point x="370" y="440" type="curve" smooth="yes"/>
      <point x="339" y="426"/>
      <point x="307" y="421"/>
      <point x="240" y="421" type="curve" smooth="yes"/>
    </contour>
  </outline>
</glyph>
<glyph name="D" format="1">
  <advance width="744"/>
  <unicode hex="0044"/>
  <outline>
    <contour>
      <point x="76" y="0" type="line"/>
      <point x="275" y="0" type="line" smooth="yes"/>
      <point x="386" y="0"/>
      <point x="464" y="17"/>
      <point x="529" y="55" type="curve" smooth="yes"/>
      <point x="641" y="121"/>
      <point x="700" y="229"/>
      <point x="700" y="367" type="curve" smooth="yes"/>
      <point x="700" y="506"/>
      <point x="642" y="616"/>
      <point x="532" y="681" type="curve" smooth="yes"/>
      <point x="462" y="723"/>
      <point x="384" y="739"/>
      <point x="250" y="739" type="curve" smooth="yes"/>
      <point x="76" y="739" type="line"/>
    </contour>
    <contour>
      <point x="150" y="67" type="line"/>
      <point x="150" y="672" type="line"/>
      <point x="253" y="672" type="line" smooth="yes"/>
      <point x="365" y="672"/>
      <point x="435" y="658"/>
      <point x="491" y="624" type="curve" smooth="yes"/>
      <point x="576" y="573"/>
      <point x="625" y="480"/>
      <point x="625" y="370" type="curve" smooth="yes"/>
      <point x="625" y="273"/>
      <point x="587" y="188"/>
      <point x="519" y="133" type="curve" smooth="yes"/>
      <point x="460" y="86"/>
      <point x="384" y="67"/>
      <point x="253" y="67" type="curve" smooth="yes"/>
    </contour>
  </outline>
</glyph>
<glyph name="F" format="1">
  <advance width="485"/>
  <unicode hex="0046"/>
  <outline>
    <contour>
      <point x="76" y="0" type="line"/>
      <point x="150" y="0" type="line"/>
      <point x="150" y="338" type="line"/>
      <point x="440" y="338" type="line"/>
      <point x="440" y="405" type="line"/>
      <point x="150" y="405" type="line"/>
      <point x="150" y="672" type="line"/>
      <point x="451" y="672" type="line"/>
      <point x="451" y="739" type="line"/>
      <point x="76" y="739" type="line"/>
    </contour>
  </outline>
</glyph>
<glyph name="J" format="1">
  <advance width="482"/>
  <unicode hex="004A"/>
  <outline>
    <contour>
      <point x="406" y="739" type="line"/>
      <point x="332" y="739" type="line"/>
      <point x="332" y="231" type="line" smooth="yes"/>
      <point x="332" y="114"/>
      <point x="290" y="54"/>
      <point x="210" y="54" type="curve" smooth="yes"/>
      <point x="137" y="54"/>
      <point x="89" y="100"/>
      <point x="84" y="175" type="curve"/>
      <point x="11" y="175" type="line"/>
      <point x="17" y="57"/>
      <point x="91" y="-14"/>
      <point x="209" y="-14" type="curve" smooth="yes"/>
      <point x="287" y="-14"/>
      <point x="346" y="19"/>
      <point x="377" y="82" type="curve" smooth="yes"/>
      <point x="394" y="114"/>
      <point x="406" y="177"/>
      <point x="406" y="231" type="curve" smooth="yes"/>
    </contour>
  </outline>
</glyph>
<glyph name="K" format="1">
  <advance width="591"/>
  <unicode hex="004B"/>
  <outline>
    <contour>
      <point x="76" y="0" type="line"/>
      <point x="150" y="0" type="line"/>
      <point x="150" y="202" type="line"/>
      <point x="246" y="320" type="line"/>
      <point x="492" y="0" type="line"/>
      <point x="585" y="0" type="line"/>
      <point x="293" y="379" type="line"/>
      <point x="585" y="739" type="line"/>
      <point x="492" y="739" type="line"/>
      <point x="150" y="314" type="line"/>
      <point x="150" y="739" type="line"/>
      <point x="76" y="739" type="line"/>
    </contour>
  </outline>
</glyph>
<glyph name="M" format="1">
  <advance width="919"/>
  <unicode hex="004D"/>
  <outline>
    <contour>
      <point x="76" y="0" type="line"/>
      <point x="150" y="0" type="line"/>
      <point x="150" y="658" type="line"/>
      <point x="427" y="0" type="line"/>
      <point x="491" y="0" type="line"/>
      <point x="769" y="658" type="line"/>
      <point x="769" y="0" type="line"/>
      <point x="843" y="0" type="line"/>
      <point x="843" y="739" type="line"/>
      <point x="728" y="739" type="line"/>
      <point x="460" y="110" type="line"/>
      <point x="191" y="739" type="line"/>
      <point x="76" y="739" type="line"/>
    </contour>
  </outline>
</glyph>
<glyph name="N" format="1">
  <advance width="740"/>
  <unicode hex="004E"/>
  <outline>
    <contour>
      <point x="76" y="0" type="line"/>
      <point x="150" y="0" type="line"/>
      <point x="150" y="650" type="line"/>
      <point x="590" y="0" type="line"/>
      <point x="664" y="0" type="line"/>
      <point x="664" y="739" type="line"/>
      <point x="590" y="739" type="line"/>
      <point x="590" y="126" type="line"/>
      <point x="176" y="739" type="line"/>
      <point x="76" y="739" type="line"/>
    </contour>
  </outline>
</glyph>
<glyph name="Q" format="1">
  <advance width="871"/>
  <unicode hex="0051"/>
  <outline>
    <contour>
      <point x="827" y="56" type="line"/>
      <point x="821" y="55"/>
      <point x="815" y="55"/>
      <point x="812" y="55" type="curve" smooth="yes"/>
      <point x="781" y="55"/>
      <point x="754" y="66"/>
      <point x="716" y="93" type="curve"/>
      <point x="796" y="161"/>
      <point x="839" y="258"/>
      <point x="839" y="371" type="curve" smooth="yes"/>
      <point x="839" y="590"/>
      <point x="670" y="752"/>
      <point x="444" y="752" type="curve" smooth="yes"/>
      <point x="216" y="752"/>
      <point x="44" y="588"/>
      <point x="44" y="369" type="curve" smooth="yes"/>
      <point x="44" y="157"/>
      <point x="221" y="-13"/>
      <point x="443" y="-13" type="curve" smooth="yes"/>
      <point x="524" y="-13"/>
      <point x="603" y="9"/>
      <point x="665" y="51" type="curve"/>
      <point x="716" y="4"/>
      <point x="758" y="-12"/>
      <point x="827" y="-13" type="curve"/>
    </contour>
    <contour>
      <point x="161" y="216" type="curve"/>
      <point x="201" y="232"/>
      <point x="231" y="237"/>
      <point x="277" y="237" type="curve" smooth="yes"/>
      <point x="403" y="237"/>
      <point x="498" y="197"/>
      <point x="605" y="100" type="curve"/>
      <point x="555" y="69"/>
      <point x="505" y="55"/>
      <point x="443" y="55" type="curve" smooth="yes"/>
      <point x="371" y="55"/>
      <point x="302" y="78"/>
      <point x="247" y="120" type="curve" smooth="yes"/>
      <point x="207" y="150"/>
      <point x="180" y="181"/>
    </contour>
    <contour>
      <point x="130" y="279" type="curve"/>
      <point x="122" y="315"/>
      <point x="119" y="336"/>
      <point x="119" y="363" type="curve" smooth="yes"/>
      <point x="119" y="545"/>
      <point x="259" y="684"/>
      <point x="442" y="684" type="curve" smooth="yes"/>
      <point x="624" y="684"/>
      <point x="764" y="548"/>
      <point x="764" y="371" type="curve" smooth="yes"/>
      <point x="764" y="284"/>
      <point x="731" y="207"/>
      <point x="663" y="142" type="curve"/>
      <point x="628" y="173"/>
      <point x="599" y="195"/>
      <point x="569" y="217" type="curve" smooth="yes"/>
      <point x="486" y="276"/>
      <point x="393" y="305"/>
      <point x="288" y="305" type="curve" smooth="yes"/>
      <point x="231" y="305"/>
      <point x="187" y="298"/>
    </contour>
  </outline>
</glyph>
<glyph name="V" format="1">
  <advance width="702"/>
  <unicode hex="0056"/>
  <outline>
    <contour>
      <point x="314" y="0" type="line"/>
      <point x="386" y="0" type="line"/>
      <point x="692" y="739" type="line"/>
      <point x="612" y="739" type="line"/>
      <point x="351" y="92" type="line"/>
      <point x="91" y="739" type="line"/>
      <point x="10" y="739" type="line"/>
    </contour>
  </outline>
</glyph>
<glyph name="W" format="1">
  <advance width="960"/>
  <unicode hex="0057"/>
  <outline>
    <contour>
      <point x="221" y="0" type="line"/>
      <point x="317" y="0" type="line"/>
      <point x="479" y="606" type="line"/>
      <point x="643" y="0" type="line"/>
      <point x="738" y="0" type="line"/>
      <point x="950" y="739" type="line"/>
      <point x="874" y="739" type="line"/>
      <point x="692" y="96" type="line"/>
      <point x="515" y="739" type="line"/>
      <point x="445" y="739" type="line"/>
      <point x="268" y="96" type="line"/>
      <point x="86" y="739" type="line"/>
      <point x="10" y="739" type="line"/>
    </contour>
  </outline>
</glyph>
<glyph name="Z" format="1">
  <advance width="480"/>
  <unicode hex="005A"/>
  <outline>
    <contour>
      <point x="17" y="0" type="line"/>
      <point x="474" y="0" type="line"/>
      <point x="474" y="67" type="line"/>
      <point x="101" y="67" type="line"/>
      <point x="463" y="672" type="line"/>
      <point x="463" y="739" type="line"/>
      <point x="28" y="739" type="line"/>
      <point x="28" y="672" type="line"/>
      <point x="380" y="672" type="line"/>
      <point x="17" y="67" type="line"/>
    </contour>
  </outline>
</glyph>
<glyph name="bracketleft" format="1">
  <advance width="351"/>
  <unicode hex="005B"/>
  <outline>
    <contour>
      <point x="313" y="-50" type="line"/>
      <point x="214" y="-6"/>
      <point x="182" y="49"/>
      <point x="182" y="177" type="curve" smooth="yes"/>
      <point x="182" y="448" type="line" smooth="yes"/>
      <point x="182" y="566"/>
      <point x="215" y="621"/>
      <point x="313" y="664" type="curve"/>
      <point x="313" y="739" type="line"/>
      <point x="261" y="725"/>
      <point x="223" y="703"/>
      <point x="185" y="664" type="curve" smooth="yes"/>
      <point x="135" y="612"/>
      <point x="112" y="549"/>
      <point x="112" y="462" type="curve" smooth="yes"/>
      <point x="112" y="164" type="line" smooth="yes"/>
      <point x="112" y="68"/>
      <point x="131" y="9"/>
      <point x="178" y="-43" type="curve" smooth="yes"/>
      <point x="216" y="-83"/>
      <point x="258" y="-109"/>
      <point x="313" y="-125" type="curve"/>
    </contour>
  </outline>
</glyph>
<glyph name="bracketright" format="1">
  <advance width="351"/>
  <unicode hex="005D"/>
  <outline>
    <contour>
      <point x="38" y="664" type="line"/>
      <point x="137" y="620"/>
      <point x="169" y="565"/>
      <point x="169" y="438" type="curve" smooth="yes"/>
      <point x="169" y="166" type="line" smooth="yes"/>
      <point x="169" y="48"/>
      <point x="136" y="-6"/>
      <point x="38" y="-50" type="curve"/>
      <point x="38" y="-125" type="line"/>
      <point x="90" y="-111"/>
      <point x="128" y="-89"/>
      <point x="166" y="-50" type="curve" smooth="yes"/>
      <point x="216" y="2"/>
      <point x="239" y="65"/>
      <point x="239" y="153" type="curve" smooth="yes"/>
      <point x="239" y="450" type="line" smooth="yes"/>
      <point x="239" y="547"/>
      <point x="220" y="605"/>
      <point x="173" y="657" type="curve" smooth="yes"/>
      <point x="135" y="698"/>
      <point x="93" y="723"/>
      <point x="38" y="739" type="curve"/>
    </contour>
  </outline>
</glyph>
<glyph name="asciicircum" format="1">
  <advance width="606"/>
  <unicode hex="005E"/>
  <outline>
    <contour>
      <point x="588" y="180" type="line"/>
      <point x="346" y="739" type="line"/>
      <point x="261" y="739" type="line"/>
      <point x="18" y="180" type="line"/>
      <point x="99" y="180" type="line"/>
      <point x="304" y="660" type="line"/>
      <point x="507" y="180" type="line"/>
    </contour>
  </outline>
</glyph>
<glyph name="underscore" format="1">
  <advance width="500"/>
  <unicode hex="005F"/>
  <outline>
    <contour>
      <point x="0" y="-67" type="line"/>
      <point x="0" y="-125" type="line"/>
      <point x="500" y="-125" type="line"/>
      <point x="500" y="-67" type="line"/>
    </contour>
  </outline>
</glyph>
<glyph name="b" format="1">
  <advance width="682"/>
  <unicode hex="0062"/>
  <outline>
    <contour>
      <point x="63" y="0" type="line"/>
      <point x="137" y="0" type="line"/>
      <point x="137" y="94" type="line"/>
      <point x="183" y="26"/>
      <point x="261" y="-13"/>
      <point x="351" y="-13" type="curve" smooth="yes"/>
      <point x="516" y="-13"/>
      <point x="640" y="110"/>
      <point x="640" y="274" type="curve" smooth="yes"/>
      <point x="640" y="435"/>
      <point x="514" y="560"/>
      <point x="352" y="560" type="curve" smooth="yes"/>
      <point x="260" y="560"/>
      <point x="184" y="522"/>
      <point x="137" y="453" type="curve"/>
      <point x="137" y="739" type="line"/>
      <point x="63" y="739" type="line"/>
    </contour>
    <contour>
      <point x="350" y="492" type="curve" smooth="yes"/>
      <point x="473" y="492"/>
      <point x="565" y="399"/>
      <point x="565" y="276" type="curve" smooth="yes"/>
      <point x="565" y="150"/>
      <point x="472" y="55"/>
      <point x="349" y="55" type="curve" smooth="yes"/>
      <point x="288" y="55"/>
      <point x="238" y="76"/>
      <point x="195" y="120" type="curve" smooth="yes"/>
      <point x="152" y="164"/>
      <point x="132" y="214"/>
      <point x="132" y="276" type="curve" smooth="yes"/>
      <point x="132" y="397"/>
      <point x="228" y="492"/>
    </contour>
  </outline>
</glyph>
<glyph name="c" format="1">
  <advance width="647"/>
  <unicode hex="0063"/>
  <outline>
    <contour>
      <point x="524" y="161" type="line"/>
      <point x="467" y="85"/>
      <point x="414" y="55"/>
      <point x="337" y="55" type="curve" smooth="yes"/>
      <point x="214" y="55"/>
      <point x="117" y="152"/>
      <point x="117" y="273" type="curve" smooth="yes"/>
      <point x="117" y="396"/>
      <point x="212" y="492"/>
      <point x="334" y="492" type="curve" smooth="yes"/>
      <point x="415" y="492"/>
      <point x="482" y="453"/>
      <point x="524" y="381" type="curve"/>
      <point x="607" y="381" type="line"/>
      <point x="563" y="491"/>
      <point x="458" y="560"/>
      <point x="335" y="560" type="curve" smooth="yes"/>
      <point x="171" y="560"/>
      <point x="42" y="434"/>
      <point x="42" y="275" type="curve" smooth="yes"/>
      <point x="42" y="112"/>
      <point x="172" y="-13"/>
      <point x="340" y="-13" type="curve" smooth="yes"/>
      <point x="408" y="-13"/>
      <point x="471" y="9"/>
      <point x="522" y="49" type="curve" smooth="yes"/>
      <point x="557" y="77"/>
      <point x="578" y="104"/>
      <point x="608" y="161" type="curve"/>
    </contour>
  </outline>
</glyph>
<glyph name="f" format="1">
  <advance width="314"/>
  <unicode hex="0066"/>
  <outline>
    <contour>
      <point x="101" y="0" type="line"/>
      <point x="175" y="0" type="line"/>
      <point x="175" y="480" type="line"/>
      <point x="311" y="480" type="line"/>
      <point x="311" y="547" type="line"/>
      <point x="175" y="547" type="line"/>
      <point x="174" y="638"/>
      <point x="210" y="671"/>
      <point x="311" y="672" type="curve"/>
      <point x="311" y="739" type="line"/>
      <point x="170" y="739"/>
      <point x="99" y="674"/>
      <point x="101" y="547" type="curve"/>
      <point x="16" y="547" type="line"/>
      <point x="16" y="480" type="line"/>
      <point x="101" y="480" type="line"/>
    </contour>
  </outline>
</glyph>
<glyph name="h" format="1">
  <advance width="610"/>
  <unicode hex="0068"/>
  <outline>
    <contour>
      <point x="63" y="0" type="line"/>
      <point x="137" y="0" type="line"/>
      <point x="137" y="300" type="line" smooth="yes"/>
      <point x="137" y="359"/>
      <point x="145" y="394"/>
      <point x="167" y="424" type="curve" smooth="yes"/>
      <point x="197" y="467"/>
      <point x="248" y="492"/>
      <point x="304" y="492" type="curve" smooth="yes"/>
      <point x="357" y="492"/>
      <point x="407" y="469"/>
      <point x="436" y="432" type="curve" smooth="yes"/>
      <point x="462" y="400"/>
      <point x="473" y="358"/>
      <point x="473" y="294" type="curve" smooth="yes"/>
      <point x="473" y="0" type="line"/>
      <point x="547" y="0" type="line"/>
      <point x="547" y="294" type="line" smooth="yes"/>
      <point x="547" y="376"/>
      <point x="532" y="432"/>
      <point x="500" y="475" type="curve" smooth="yes"/>
      <point x="459" y="529"/>
      <point x="390" y="560"/>
      <point x="311" y="560" type="curve" smooth="yes"/>
      <point x="236" y="560"/>
      <point x="174" y="530"/>
      <point x="137" y="476" type="curve"/>
      <point x="137" y="739" type="line"/>
      <point x="63" y="739" type="line"/>
    </contour>
  </outline>
</glyph>
<glyph name="i" format="1">
  <advance width="200"/>
  <unicode hex="0069"/>
  <outline>
    <contour>
      <point x="63" y="0" type="line"/>
      <point x="137" y="0" type="line"/>
      <point x="137" y="547" type="line"/>
      <point x="63" y="547" type="line"/>
    </contour>
    <contour>
      <point x="63" y="613" type="line"/>
      <point x="137" y="613" type="line"/>
      <point x="137" y="739" type="line"/>
      <point x="63" y="739" type="line"/>
    </contour>
  </outline>
</glyph>
<glyph name="m" format="1">
  <advance width="938"/>
  <unicode hex="006D"/>
  <outline>
    <contour>
      <point x="63" y="0" type="line"/>
      <point x="137" y="0" type="line"/>
      <point x="137" y="319" type="line" smooth="yes"/>
      <point x="137" y="428"/>
      <point x="192" y="492"/>
      <point x="284" y="492" type="curve" smooth="yes"/>
      <point x="329" y="492"/>
      <point x="371" y="474"/>
      <point x="398" y="442" type="curve" smooth="yes"/>
      <point x="422" y="414"/>
      <point x="432" y="376"/>
      <point x="432" y="319" type="curve" smooth="yes"/>
      <point x="432" y="0" type="line"/>
      <point x="506" y="0" type="line"/>
      <point x="506" y="317" type="line" smooth="yes"/>
      <point x="506" y="370"/>
      <point x="514" y="404"/>
      <point x="532" y="430" type="curve" smooth="yes"/>
      <point x="558" y="470"/>
      <point x="604" y="493"/>
      <point x="656" y="493" type="curve" smooth="yes"/>
      <point x="704" y="493"/>
      <point x="746" y="474"/>
      <point x="771" y="441" type="curve" smooth="yes"/>
      <point x="791" y="413"/>
      <point x="801" y="372"/>
      <point x="801" y="317" type="curve" smooth="yes"/>
      <point x="801" y="0" type="line"/>
      <point x="875" y="0" type="line"/>
      <point x="875" y="325" type="line" smooth="yes"/>
      <point x="875" y="397"/>
      <point x="862" y="444"/>
      <point x="831" y="483" type="curve" smooth="yes"/>
      <point x="793" y="533"/>
      <point x="731" y="561"/>
      <point x="660" y="561" type="curve" smooth="yes"/>
      <point x="575" y="561"/>
      <point x="516" y="528"/>
      <point x="470" y="455" type="curve"/>
      <point x="427" y="528"/>
      <point x="373" y="560"/>
      <point x="291" y="560" type="curve" smooth="yes"/>
      <point x="222" y="560"/>
      <point x="179" y="539"/>
      <point x="137" y="484" type="curve"/>
      <point x="137" y="547" type="line"/>
      <point x="63" y="547" type="line"/>
    </contour>
  </outline>
</glyph>
<glyph name="q" format="1">
  <advance width="682"/>
  <unicode hex="0071"/>
  <outline>
    <contour>
      <point x="619" y="547" type="line"/>
      <point x="545" y="547" type="line"/>
      <point x="545" y="453" type="line"/>
      <point x="499" y="523"/>
      <point x="423" y="560"/>
      <point x="330" y="560" type="curve" smooth="yes"/>
      <point x="167" y="560"/>
      <point x="42" y="435"/>
      <point x="42" y="273" type="curve" smooth="yes"/>
      <point x="42" y="112"/>
      <point x="169" y="-13"/>
      <point x="332" y="-13" type="curve" smooth="yes"/>
      <point x="423" y="-13"/>
      <point x="497" y="24"/>
      <point x="545" y="94" type="curve"/>
      <point x="545" y="-192" type="line"/>
      <point x="619" y="-192" type="line"/>
    </contour>
    <contour>
      <point x="333" y="492" type="curve" smooth="yes"/>
      <point x="457" y="492"/>
      <point x="550" y="397"/>
      <point x="550" y="270" type="curve" smooth="yes"/>
      <point x="550" y="150"/>
      <point x="454" y="55"/>
      <point x="333" y="55" type="curve" smooth="yes"/>
      <point x="210" y="55"/>
      <point x="117" y="149"/>
      <point x="117" y="272" type="curve" smooth="yes"/>
      <point x="117" y="398"/>
      <point x="210" y="492"/>
    </contour>
  </outline>
</glyph>
<glyph name="s" format="1">
  <advance width="388"/>
  <unicode hex="0073"/>
  <outline>
    <contour>
      <point x="18" y="161" type="line"/>
      <point x="19" y="55"/>
      <point x="89" y="-13"/>
      <point x="194" y="-13" type="curve" smooth="yes"/>
      <point x="292" y="-13"/>
      <point x="361" y="57"/>
      <point x="361" y="157" type="curve" smooth="yes"/>
      <point x="361" y="224"/>
      <point x="330" y="270"/>
      <point x="266" y="297" type="curve" smooth="yes"/>
      <point x="183" y="331"/>
      <point x="179" y="333"/>
      <point x="163" y="341" type="curve" smooth="yes"/>
      <point x="129" y="358"/>
      <point x="113" y="381"/>
      <point x="113" y="413" type="curve" smooth="yes"/>
      <point x="113" y="457"/>
      <point x="148" y="492"/>
      <point x="192" y="492" type="curve" smooth="yes"/>
      <point x="240" y="492"/>
      <point x="268" y="464"/>
      <point x="272" y="412" type="curve"/>
      <point x="347" y="412" type="line"/>
      <point x="344" y="500"/>
      <point x="281" y="560"/>
      <point x="193" y="560" type="curve" smooth="yes"/>
      <point x="104" y="560"/>
      <point x="38" y="495"/>
      <point x="38" y="406" type="curve" smooth="yes"/>
      <point x="38" y="367"/>
      <point x="52" y="333"/>
      <point x="79" y="308" type="curve" smooth="yes"/>
      <point x="102" y="287"/>
      <point x="103" y="287"/>
      <point x="180" y="255" type="curve" smooth="yes"/>
      <point x="213" y="242"/>
      <point x="237" y="230"/>
      <point x="251" y="221" type="curve" smooth="yes"/>
      <point x="273" y="206"/>
      <point x="286" y="180"/>
      <point x="286" y="150" type="curve" smooth="yes"/>
      <point x="286" y="95"/>
      <point x="247" y="55"/>
      <point x="194" y="55" type="curve" smooth="yes"/>
      <point x="133" y="55"/>
      <point x="95" y="94"/>
      <point x="91" y="161" type="curve"/>
    </contour>
  </outline>
</glyph>
<glyph name="t" format="1">
  <advance width="339"/>
  <unicode hex="0074"/>
  <outline>
    <contour>
      <point x="130" y="0" type="line"/>
      <point x="204" y="0" type="line"/>
      <point x="204" y="480" type="line"/>
      <point x="327" y="480" type="line"/>
      <point x="327" y="547" type="line"/>
      <point x="204" y="547" type="line"/>
      <point x="204" y="739" type="line"/>
      <point x="130" y="739" type="line"/>
      <point x="130" y="547" type="line"/>
      <point x="12" y="547" type="line"/>
      <point x="12" y="480" type="line"/>
      <point x="130" y="480" type="line"/>
    </contour>
  </outline>
</glyph>
<glyph name="v" format="1">
  <advance width="554"/>
  <unicode hex="0076"/>
  <outline>
    <contour>
      <point x="238" y="0" type="line"/>
      <point x="316" y="0" type="line"/>
      <point x="546" y="547" type="line"/>
      <point x="471" y="547" type="line"/>
      <point x="275" y="87" type="line"/>
      <point x="83" y="547" type="line"/>
      <point x="8" y="547" type="line"/>
    </contour>
  </outline>
</glyph>
<glyph name="w" format="1">
  <advance width="831"/>
  <unicode hex="0077"/>
  <outline>
    <contour>
      <point x="216" y="0" type="line"/>
      <point x="296" y="0" type="line"/>
      <point x="414" y="363" type="line"/>
      <point x="533" y="0" type="line"/>
      <point x="612" y="0" type="line"/>
      <point x="824" y="547" type="line"/>
      <point x="752" y="547" type="line"/>
      <point x="574" y="89" type="line"/>
      <point x="445" y="480" type="line"/>
      <point x="384" y="480" type="line"/>
      <point x="255" y="89" type="line"/>
      <point x="81" y="547" type="line"/>
      <point x="7" y="547" type="line"/>
    </contour>
  </outline>
</glyph>
<glyph name="x" format="1">
  <advance width="480"/>
  <unicode hex="0078"/>
  <outline>
    <contour>
      <point x="8" y="0" type="line"/>
      <point x="92" y="0" type="line"/>
      <point x="240" y="219" type="line"/>
      <point x="387" y="0" type="line"/>
      <point x="472" y="0" type="line"/>
      <point x="281" y="279" type="line"/>
      <point x="472" y="547" type="line"/>
      <point x="387" y="547" type="line"/>
      <point x="240" y="336" type="line"/>
      <point x="92" y="547" type="line"/>
      <point x="8" y="547" type="line"/>
      <point x="198" y="279" type="line"/>
    </contour>
  </outline>
</glyph>
<glyph name="y" format="1">
  <advance width="536"/>
  <unicode hex="0079"/>
  <outline>
    <contour>
      <point x="132" y="-192" type="line"/>
      <point x="211" y="-192" type="line"/>
      <point x="527" y="547" type="line"/>
      <point x="448" y="547" type="line"/>
      <point x="263" y="111" type="line"/>
      <point x="90" y="547" type="line"/>
      <point x="9" y="547" type="line"/>
      <point x="221" y="18" type="line"/>
    </contour>
  </outline>
</glyph>
<glyph name="z" format="1">
  <advance width="425"/>
  <unicode hex="007A"/>
  <outline>
    <contour>
      <point x="10" y="0" type="line"/>
      <point x="415" y="0" type="line"/>
      <point x="415" y="67" type="line"/>
      <point x="97" y="67" type="line"/>
      <point x="396" y="484" type="line"/>
      <point x="396" y="547" type="line"/>
      <point x="20" y="547" type="line"/>
      <point x="20" y="480" type="line"/>
      <point x="312" y="480" type="line"/>
      <point x="10" y="67" type="line"/>
    </contour>
  </outline>
</glyph>
<glyph name="braceleft" format="1">
  <advance width="351"/>
  <unicode hex="007B"/>
  <outline>
    <contour>
      <point x="193" y="601" type="line" smooth="yes"/>
      <point x="193" y="631"/>
      <point x="202" y="655"/>
      <point x="216" y="662" type="curve" smooth="yes"/>
      <point x="225" y="667"/>
      <point x="231" y="668"/>
      <point x="271" y="672" type="curve"/>
      <point x="271" y="739" type="line"/>
      <point x="204" y="737"/>
      <point x="186" y="734"/>
      <point x="162" y="718" type="curve" smooth="yes"/>
      <point x="131" y="698"/>
      <point x="116" y="660"/>
      <point x="116" y="600" type="curve" smooth="yes"/>
      <point x="116" y="430" type="line" smooth="yes"/>
      <point x="116" y="368"/>
      <point x="102" y="352"/>
      <point x="37" y="341" type="curve"/>
      <point x="37" y="272" type="line"/>
      <point x="102" y="260"/>
      <point x="116" y="245"/>
      <point x="116" y="183" type="curve" smooth="yes"/>
      <point x="116" y="13" type="line" smooth="yes"/>
      <point x="116" y="-47"/>
      <point x="131" y="-85"/>
      <point x="162" y="-105" type="curve" smooth="yes"/>
      <point x="186" y="-121"/>
      <point x="204" y="-125"/>
      <point x="271" y="-126" type="curve"/>
      <point x="271" y="-59" type="line"/>
      <point x="260" y="-58" type="line" smooth="yes"/>
      <point x="207" y="-53"/>
      <point x="193" y="-39"/>
      <point x="193" y="12" type="curve" smooth="yes"/>
      <point x="193" y="182" type="line" smooth="yes"/>
      <point x="193" y="251"/>
      <point x="176" y="279"/>
      <point x="122" y="300" type="curve"/>
      <point x="119" y="300"/>
      <point x="112" y="303"/>
      <point x="104" y="306" type="curve"/>
      <point x="112" y="310"/>
      <point x="119" y="312"/>
      <point x="122" y="313" type="curve" smooth="yes"/>
      <point x="176" y="333"/>
      <point x="193" y="362"/>
      <point x="193" y="431" type="curve" smooth="yes"/>
    </contour>
  </outline>
</glyph>
<glyph name="bar" format="1">
  <advance width="672"/>
  <unicode hex="007C"/>
  <outline>
    <contour>
      <point x="368" y="739" type="line"/>
      <point x="304" y="739" type="line"/>
      <point x="304" y="0" type="line"/>
      <point x="368" y="0" type="line"/>
    </contour>
  </outline>
</glyph>
<glyph name="braceright" format="1">
  <advance width="351"/>
  <unicode hex="007D"/>
  <outline>
    <contour>
      <point x="116" y="12" type="line" smooth="yes"/>
      <point x="116" y="-8"/>
      <point x="111" y="-29"/>
      <point x="104" y="-39" type="curve" smooth="yes"/>
      <point x="96" y="-51"/>
      <point x="85" y="-55"/>
      <point x="49" y="-58" type="curve" smooth="yes"/>
      <point x="38" y="-59" type="line"/>
      <point x="38" y="-126" type="line"/>
      <point x="111" y="-125"/>
      <point x="134" y="-119"/>
      <point x="159" y="-96" type="curve" smooth="yes"/>
      <point x="181" y="-76"/>
      <point x="193" y="-39"/>
      <point x="193" y="13" type="curve" smooth="yes"/>
      <point x="193" y="183" type="line" smooth="yes"/>
      <point x="193" y="245"/>
      <point x="206" y="261"/>
      <point x="269" y="272" type="curve"/>
      <point x="269" y="341" type="line"/>
      <point x="206" y="352"/>
      <point x="193" y="368"/>
      <point x="193" y="430" type="curve" smooth="yes"/>
      <point x="193" y="600" type="line" smooth="yes"/>
      <point x="193" y="647"/>
      <point x="183" y="684"/>
      <point x="164" y="704" type="curve" smooth="yes"/>
      <point x="139" y="731"/>
      <point x="115" y="737"/>
      <point x="38" y="739" type="curve"/>
      <point x="38" y="672" type="line"/>
      <point x="49" y="671" type="line" smooth="yes"/>
      <point x="82" y="668"/>
      <point x="94" y="665"/>
      <point x="102" y="655" type="curve" smooth="yes"/>
      <point x="111" y="644"/>
      <point x="116" y="623"/>
      <point x="116" y="601" type="curve" smooth="yes"/>
      <point x="116" y="431" type="line" smooth="yes"/>
      <point x="116" y="362"/>
      <point x="133" y="334"/>
      <point x="187" y="313" type="curve" smooth="yes"/>
      <point x="190" y="312"/>
      <point x="197" y="310"/>
      <point x="205" y="306" type="curve"/>
      <point x="197" y="303"/>
      <point x="190" y="300"/>
      <point x="187" y="300" type="curve"/>
      <point x="133" y="279"/>
      <point x="116" y="251"/>
      <point x="116" y="182" type="curve" smooth="yes"/>
    </contour>
  </outline>
</glyph>
<glyph name="asciitilde" format="1">
  <advance width="606"/>
  <unicode hex="007E"/>
  <outline>
    <contour>
      <point x="511" y="390" type="line"/>
      <point x="477" y="332"/>
      <point x="448" y="308"/>
      <point x="416" y="308" type="curve" smooth="yes"/>
      <point x="396" y="308"/>
      <point x="379" y="313"/>
      <point x="336" y="331" type="curve" smooth="yes"/>
      <point x="271" y="358" type="line" smooth="yes"/>
      <point x="241" y="371"/>
      <point x="215" y="377"/>
      <point x="194" y="377" type="curve" smooth="yes"/>
      <point x="138" y="377"/>
      <point x="99" y="343"/>
      <point x="51" y="257" type="curve"/>
      <point x="93" y="210" type="line"/>
      <point x="112" y="242"/>
      <point x="117" y="250"/>
      <point x="128" y="265" type="curve" smooth="yes"/>
      <point x="145" y="287"/>
      <point x="169" y="300"/>
      <point x="194" y="300" type="curve" smooth="yes"/>
      <point x="214" y="300"/>
      <point x="224" y="297"/>
      <point x="267" y="279" type="curve" smooth="yes"/>
      <point x="322" y="257" type="line" smooth="yes"/>
      <point x="366" y="238"/>
      <point x="392" y="231"/>
      <point x="415" y="231" type="curve" smooth="yes"/>
      <point x="466" y="231"/>
      <point x="521" y="276"/>
      <point x="555" y="343" type="curve"/>
    </contour>
  </outline>
</glyph>
<glyph name="exclamdown" format="1">
  <advance width="295"/>
  <unicode hex="00A1"/>
  <outline>
    <contour>
      <point x="111" y="-192" type="line"/>
      <point x="185" y="-192" type="line"/>
      <point x="185" y="352" type="line"/>
      <point x="111" y="352" type="line"/>
    </contour>
    <contour>
      <point x="111" y="421" type="line"/>
      <point x="185" y="421" type="line"/>
      <point x="185" y="547" type="line"/>
      <point x="111" y="547" type="line"/>
    </contour>
  </outline>
</glyph>
<glyph name="cent" format="1">
  <advance width="554"/>
  <unicode hex="00A2"/>
  <outline>
    <contour>
      <point x="259" y="62" type="line"/>
      <point x="325" y="62" type="line"/>
      <point x="325" y="152" type="line"/>
      <point x="405" y="162"/>
      <point x="476" y="217"/>
      <point x="503" y="290" type="curve"/>
      <point x="422" y="290" type="line"/>
      <point x="377" y="238"/>
      <point x="337" y="217"/>
      <point x="282" y="217" type="curve" smooth="yes"/>
      <point x="191" y="217"/>
      <point x="119" y="290"/>
      <point x="119" y="383" type="curve" smooth="yes"/>
      <point x="119" y="477"/>
      <point x="189" y="547"/>
      <point x="283" y="547" type="curve" smooth="yes"/>
      <point x="346" y="547"/>
      <point x="395" y="518"/>
      <point x="426" y="463" type="curve"/>
      <point x="509" y="463" type="line"/>
      <point x="480" y="545"/>
      <point x="411" y="602"/>
      <point x="325" y="614" type="curve"/>
      <point x="325" y="707" type="line"/>
      <point x="259" y="707" type="line"/>
      <point x="259" y="614" type="line"/>
      <point x="132" y="601"/>
      <point x="45" y="507"/>
      <point x="45" y="382" type="curve" smooth="yes"/>
      <point x="45" y="259"/>
      <point x="136" y="161"/>
      <point x="259" y="152" type="curve"/>
    </contour>
  </outline>
</glyph>
<glyph name="sterling" format="1">
  <advance width="554"/>
  <unicode hex="00A3"/>
  <outline>
    <contour>
      <point x="59" y="0" type="line"/>
      <point x="344" y="0" type="line" smooth="yes"/>
      <point x="420" y="0"/>
      <point x="475" y="15"/>
      <point x="515" y="46" type="curve" smooth="yes"/>
      <point x="563" y="83"/>
      <point x="592" y="146"/>
      <point x="592" y="213" type="curve" smooth="yes"/>
      <point x="592" y="233"/>
      <point x="590" y="245"/>
      <point x="584" y="268" type="curve"/>
      <point x="512" y="268" type="line"/>
      <point x="517" y="243"/>
      <point x="518" y="233"/>
      <point x="518" y="219" type="curve" smooth="yes"/>
      <point x="518" y="176"/>
      <point x="499" y="130"/>
      <point x="470" y="104" type="curve" smooth="yes"/>
      <point x="443" y="79"/>
      <point x="402" y="67"/>
      <point x="342" y="67" type="curve" smooth="yes"/>
      <point x="285" y="67" type="line"/>
      <point x="306" y="115"/>
      <point x="314" y="147"/>
      <point x="314" y="184" type="curve" smooth="yes"/>
      <point x="314" y="241"/>
      <point x="290" y="296"/>
      <point x="242" y="347" type="curve"/>
      <point x="457" y="347" type="line"/>
      <point x="457" y="414" type="line"/>
      <point x="173" y="414" type="line"/>
      <point x="151" y="455"/>
      <point x="145" y="476"/>
      <point x="145" y="513" type="curve" smooth="yes"/>
      <point x="145" y="615"/>
      <point x="211" y="685"/>
      <point x="307" y="685" type="curve" smooth="yes"/>
      <point x="399" y="685"/>
      <point x="465" y="631"/>
      <point x="485" y="541" type="curve"/>
      <point x="554" y="541" type="line"/>
      <point x="540" y="666"/>
      <point x="440" y="752"/>
      <point x="306" y="752" type="curve" smooth="yes"/>
      <point x="170" y="752"/>
      <point x="71" y="652"/>
      <point x="71" y="512" type="curve" smooth="yes"/>
      <point x="71" y="478"/>
      <point x="76" y="455"/>
      <point x="93" y="414" type="curve"/>
      <point x="18" y="414" type="line"/>
      <point x="18" y="347" type="line"/>
      <point x="144" y="347" type="line"/>
      <point x="220" y="279"/>
      <point x="240" y="245"/>
      <point x="240" y="183" type="curve" smooth="yes"/>
      <point x="240" y="136"/>
      <point x="226" y="98"/>
      <point x="198" y="67" type="curve"/>
      <point x="59" y="67" type="line"/>
    </contour>
  </outline>
</glyph>
<glyph name="currency" format="1">
  <advance width="554"/>
  <unicode hex="00A4"/>
  <outline>
    <contour>
      <point x="29" y="494" type="line"/>
      <point x="73" y="452" type="line"/>
      <point x="40" y="406"/>
      <point x="26" y="362"/>
      <point x="26" y="303" type="curve" smooth="yes"/>
      <point x="26" y="244"/>
      <point x="40" y="197"/>
      <point x="72" y="153" type="curve"/>
      <point x="31" y="112" type="line"/>
      <point x="84" y="58" type="line"/>
      <point x="126" y="100" type="line"/>
      <point x="180" y="63"/>
      <point x="219" y="50"/>
      <point x="276" y="50" type="curve" smooth="yes"/>
      <point x="333" y="50"/>
      <point x="371" y="62"/>
      <point x="428" y="100" type="curve"/>
      <point x="469" y="58" type="line"/>
      <point x="523" y="111" type="line"/>
      <point x="481" y="153" type="line"/>
      <point x="512" y="191"/>
      <point x="528" y="240"/>
      <point x="528" y="300" type="curve" smooth="yes"/>
      <point x="528" y="359"/>
      <point x="514" y="405"/>
      <point x="482" y="452" type="curve"/>
      <point x="523" y="494" type="line"/>
      <point x="469" y="549" type="line"/>
      <point x="426" y="507" type="line"/>
      <point x="382" y="538"/>
      <point x="334" y="553"/>
      <point x="276" y="553" type="curve" smooth="yes"/>
      <point x="221" y="553"/>
      <point x="180" y="540"/>
      <point x="127" y="506" type="curve"/>
      <point x="84" y="548" type="line"/>
    </contour>
    <contour>
      <point x="280" y="483" type="curve" smooth="yes"/>
      <point x="382" y="483"/>
      <point x="457" y="406"/>
      <point x="457" y="303" type="curve" smooth="yes"/>
      <point x="457" y="200"/>
      <point x="380" y="122"/>
      <point x="279" y="122" type="curve" smooth="yes"/>
      <point x="175" y="122"/>
      <point x="97" y="199"/>
      <point x="97" y="302" type="curve" smooth="yes"/>
      <point x="97" y="407"/>
      <point x="174" y="483"/>
    </contour>
  </outline>
</glyph>
<glyph name="yen" format="1">
  <advance width="554"/>
  <unicode hex="00A5"/>
  <outline>
    <contour>
      <point x="260" y="0" type="line"/>
      <point x="333" y="0" type="line"/>
      <point x="333" y="237" type="line"/>
      <point x="539" y="237" type="line"/>
      <point x="539" y="304" type="line"/>
      <point x="359" y="304" type="line"/>
      <point x="407" y="396" type="line"/>
      <point x="546" y="396" type="line"/>
      <point x="546" y="463" type="line"/>
      <point x="443" y="463" type="line"/>
      <point x="589" y="739" type="line"/>
      <point x="513" y="739" type="line"/>
      <point x="297" y="327" type="line"/>
      <point x="76" y="739" type="line"/>
      <point x="0" y="739" type="line"/>
      <point x="148" y="463" type="line"/>
      <point x="43" y="463" type="line"/>
      <point x="43" y="396" type="line"/>
      <point x="184" y="396" type="line"/>
      <point x="233" y="304" type="line"/>
      <point x="50" y="304" type="line"/>
      <point x="50" y="237" type="line"/>
      <point x="260" y="237" type="line"/>
    </contour>
  </outline>
</glyph>
<glyph name="brokenbar" format="1">
  <advance width="672"/>
  <unicode hex="00A6"/>
  <outline>
    <contour>
      <point x="368" y="739" type="line"/>
      <point x="304" y="739" type="line"/>
      <point x="304" y="444" type="line"/>
      <point x="368" y="444" type="line"/>
    </contour>
    <contour>
      <point x="368" y="295" type="line"/>
      <point x="304" y="295" type="line"/>
      <point x="304" y="0" type="line"/>
      <point x="368" y="0" type="line"/>
    </contour>
  </outline>
</glyph>
<glyph name="section" format="1">
  <advance width="615"/>
  <unicode hex="00A7"/>
  <outline>
    <contour>
      <point x="483" y="606" type="line"/>
      <point x="476" y="692"/>
      <point x="404" y="752"/>
      <point x="307" y="752" type="curve" smooth="yes"/>
      <point x="208" y="752"/>
      <point x="135" y="683"/>
      <point x="135" y="589" type="curve" smooth="yes"/>
      <point x="135" y="548"/>
      <point x="146" y="520"/>
      <point x="173" y="491" type="curve"/>
      <point x="115" y="450"/>
      <point x="87" y="401"/>
      <point x="87" y="339" type="curve" smooth="yes"/>
      <point x="87" y="280"/>
      <point x="114" y="248"/>
      <point x="196" y="207" type="curve" smooth="yes"/>
      <point x="339" y="137" type="line" smooth="yes"/>
      <point x="406" y="104"/>
      <point x="433" y="75"/>
      <point x="433" y="35" type="curve" smooth="yes"/>
      <point x="433" y="-27"/>
      <point x="381" y="-74"/>
      <point x="313" y="-74" type="curve" smooth="yes"/>
      <point x="235" y="-74"/>
      <point x="180" y="-19"/>
      <point x="174" y="64" type="curve"/>
      <point x="106" y="64" type="line"/>
      <point x="110" y="-56"/>
      <point x="196" y="-141"/>
      <point x="313" y="-141" type="curve" smooth="yes"/>
      <point x="420" y="-141"/>
      <point x="501" y="-65"/>
      <point x="501" y="37" type="curve" smooth="yes"/>
      <point x="501" y="78"/>
      <point x="486" y="111"/>
      <point x="453" y="146" type="curve"/>
      <point x="502" y="182"/>
      <point x="529" y="234"/>
      <point x="529" y="289" type="curve" smooth="yes"/>
      <point x="529" y="350"/>
      <point x="493" y="396"/>
      <point x="420" y="431" type="curve" smooth="yes"/>
      <point x="262" y="505" type="line" smooth="yes"/>
      <point x="224" y="524"/>
      <point x="203" y="554"/>
      <point x="203" y="591" type="curve" smooth="yes"/>
      <point x="203" y="646"/>
      <point x="246" y="685"/>
      <point x="307" y="685" type="curve" smooth="yes"/>
      <point x="366" y="685"/>
      <point x="401" y="658"/>
      <point x="412" y="606" type="curve"/>
    </contour>
    <contour>
      <point x="400" y="365" type="line" smooth="yes"/>
      <point x="441" y="346"/>
      <point x="461" y="317"/>
      <point x="461" y="280" type="curve" smooth="yes"/>
      <point x="461" y="244"/>
      <point x="440" y="206"/>
      <point x="407" y="182" type="curve"/>
      <point x="209" y="278" type="line" smooth="yes"/>
      <point x="173" y="296"/>
      <point x="155" y="319"/>
      <point x="155" y="350" type="curve" smooth="yes"/>
      <point x="155" y="390"/>
      <point x="177" y="430"/>
      <point x="212" y="454" type="curve"/>
    </contour>
  </outline>
</glyph>
<glyph name="dieresis" format="1">
  <advance width="369"/>
  <unicode hex="00A8"/>
  <outline>
    <contour>
      <point x="74" y="749" type="line"/>
      <point x="74" y="623" type="line"/>
      <point x="148" y="623" type="line"/>
      <point x="148" y="749" type="line"/>
    </contour>
    <contour>
      <point x="221" y="749" type="line"/>
      <point x="221" y="623" type="line"/>
      <point x="295" y="623" type="line"/>
      <point x="295" y="749" type="line"/>
    </contour>
  </outline>
</glyph>
<glyph name="copyright" format="1">
  <advance width="747"/>
  <unicode hex="00A9"/>
  <outline>
    <contour>
      <point x="501" y="261" type="line"/>
      <point x="469" y="223"/>
      <point x="429" y="204"/>
      <point x="383" y="204" type="curve" smooth="yes"/>
      <point x="297" y="204"/>
      <point x="224" y="281"/>
      <point x="224" y="372" type="curve" smooth="yes"/>
      <point x="224" y="464"/>
      <point x="296" y="538"/>
      <point x="384" y="538" type="curve" smooth="yes"/>
      <point x="432" y="538"/>
      <point x="471" y="518"/>
      <point x="505" y="477" type="curve"/>
      <point x="579" y="477" type="line"/>
      <point x="537" y="552"/>
      <point x="467" y="594"/>
      <point x="383" y="594" type="curve" smooth="yes"/>
      <point x="261" y="594"/>
      <point x="163" y="495"/>
      <point x="163" y="373" type="curve" smooth="yes"/>
      <point x="163" y="250"/>
      <point x="262" y="148"/>
      <point x="382" y="148" type="curve" smooth="yes"/>
      <point x="463" y="148"/>
      <point x="536" y="191"/>
      <point x="576" y="261" type="curve"/>
    </contour>
    <contour>
      <point x="372" y="752" type="curve" smooth="yes"/>
      <point x="162" y="752"/>
      <point x="-9" y="580"/>
      <point x="-9" y="370" type="curve" smooth="yes"/>
      <point x="-9" y="158"/>
      <point x="162" y="-13"/>
      <point x="373" y="-13" type="curve" smooth="yes"/>
      <point x="582" y="-13"/>
      <point x="755" y="159"/>
      <point x="755" y="365" type="curve" smooth="yes"/>
      <point x="755" y="582"/>
      <point x="587" y="752"/>
    </contour>
    <contour>
      <point x="372" y="700" type="curve" smooth="yes"/>
      <point x="555" y="700"/>
      <point x="699" y="553"/>
      <point x="699" y="365" type="curve" smooth="yes"/>
      <point x="699" y="187"/>
      <point x="551" y="39"/>
      <point x="373" y="39" type="curve" smooth="yes"/>
      <point x="193" y="39"/>
      <point x="47" y="187"/>
      <point x="47" y="370" type="curve" smooth="yes"/>
      <point x="47" y="552"/>
      <point x="193" y="700"/>
    </contour>
  </outline>
</glyph>
<glyph name="ordfeminine" format="1">
  <advance width="369"/>
  <unicode hex="00AA"/>
  <outline>
    <contour>
      <point x="333" y="739" type="line"/>
      <point x="285" y="739" type="line"/>
      <point x="285" y="694" type="line"/>
      <point x="266" y="724"/>
      <point x="224" y="745"/>
      <point x="183" y="745" type="curve" smooth="yes"/>
      <point x="99" y="745"/>
      <point x="31" y="677"/>
      <point x="31" y="594" type="curve" smooth="yes"/>
      <point x="31" y="511"/>
      <point x="100" y="441"/>
      <point x="182" y="441" type="curve" smooth="yes"/>
      <point x="225" y="441"/>
      <point x="256" y="456"/>
      <point x="285" y="493" type="curve"/>
      <point x="285" y="448" type="line"/>
      <point x="333" y="448" type="line"/>
    </contour>
    <contour>
      <point x="184" y="696" type="curve" smooth="yes"/>
      <point x="236" y="696"/>
      <point x="282" y="648"/>
      <point x="282" y="592" type="curve" smooth="yes"/>
      <point x="282" y="539"/>
      <point x="236" y="490"/>
      <point x="184" y="490" type="curve" smooth="yes"/>
      <point x="131" y="490"/>
      <point x="84" y="539"/>
      <point x="84" y="595" type="curve" smooth="yes"/>
      <point x="84" y="648"/>
      <point x="132" y="696"/>
    </contour>
    <contour>
      <point x="31" y="370" type="line"/>
      <point x="31" y="319" type="line"/>
      <point x="339" y="319" type="line"/>
      <point x="339" y="370" type="line"/>
    </contour>
  </outline>
</glyph>
<glyph name="logicalnot" format="1">
  <advance width="606"/>
  <unicode hex="00AC"/>
  <outline>
    <contour>
      <point x="51" y="436" type="line"/>
      <point x="51" y="363" type="line"/>
      <point x="483" y="363" type="line"/>
      <point x="483" y="148" type="line"/>
      <point x="555" y="148" type="line"/>
      <point x="555" y="436" type="line"/>
    </contour>
  </outline>
</glyph>
<glyph name="registered" format="1">
  <advance width="747"/>
  <unicode hex="00AE"/>
  <outline>
    <contour>
      <point x="530" y="157" type="line"/>
      <point x="409" y="317" type="line"/>
      <point x="444" y="322"/>
      <point x="461" y="327"/>
      <point x="480" y="340" type="curve" smooth="yes"/>
      <point x="514" y="362"/>
      <point x="534" y="402"/>
      <point x="534" y="448" type="curve" smooth="yes"/>
      <point x="534" y="487"/>
      <point x="519" y="525"/>
      <point x="495" y="549" type="curve" smooth="yes"/>
      <point x="469" y="574"/>
      <point x="433" y="585"/>
      <point x="380" y="585" type="curve" smooth="yes"/>
      <point x="248" y="585" type="line"/>
      <point x="248" y="157" type="line"/>
      <point x="309" y="157" type="line"/>
      <point x="309" y="359" type="line"/>
      <point x="454" y="157" type="line"/>
    </contour>
    <contour>
      <point x="309" y="365" type="line"/>
      <point x="309" y="527" type="line"/>
      <point x="376" y="527" type="line" smooth="yes"/>
      <point x="433" y="527"/>
      <point x="471" y="496"/>
      <point x="471" y="448" type="curve" smooth="yes"/>
      <point x="471" y="394"/>
      <point x="430" y="365"/>
      <point x="353" y="365" type="curve" smooth="yes"/>
    </contour>
    <contour>
      <point x="372" y="752" type="curve" smooth="yes"/>
      <point x="162" y="752"/>
      <point x="-9" y="580"/>
      <point x="-9" y="370" type="curve" smooth="yes"/>
      <point x="-9" y="158"/>
      <point x="162" y="-13"/>
      <point x="373" y="-13" type="curve" smooth="yes"/>
      <point x="582" y="-13"/>
      <point x="755" y="159"/>
      <point x="755" y="365" type="curve" smooth="yes"/>
      <point x="755" y="582"/>
      <point x="587" y="752"/>
    </contour>
    <contour>
      <point x="372" y="700" type="curve" smooth="yes"/>
      <point x="555" y="700"/>
      <point x="699" y="553"/>
      <point x="699" y="365" type="curve" smooth="yes"/>
      <point x="699" y="187"/>
      <point x="551" y="39"/>
      <point x="373" y="39" type="curve" smooth="yes"/>
      <point x="193" y="39"/>
      <point x="47" y="187"/>
      <point x="47" y="370" type="curve" smooth="yes"/>
      <point x="47" y="552"/>
      <point x="193" y="700"/>
    </contour>
  </outline>
</glyph>
<glyph name="macron" format="1">
  <advance width="485"/>
  <unicode hex="00AF"/>
  <outline>
    <contour>
      <point x="74" y="707" type="line"/>
      <point x="74" y="643" type="line"/>
      <point x="411" y="643" type="line"/>
      <point x="411" y="707" type="line"/>
    </contour>
  </outline>
</glyph>
<glyph name="degree" format="1">
  <advance width="400"/>
  <unicode hex="00B0"/>
  <outline>
    <contour>
      <point x="204" y="686" type="curve" smooth="yes"/>
      <point x="118" y="686"/>
      <point x="50" y="619"/>
      <point x="50" y="534" type="curve" smooth="yes"/>
      <point x="50" y="448"/>
      <point x="116" y="380"/>
      <point x="200" y="380" type="curve" smooth="yes"/>
      <point x="284" y="380"/>
      <point x="350" y="447"/>
      <point x="350" y="533" type="curve" smooth="yes"/>
      <point x="350" y="619"/>
      <point x="286" y="686"/>
    </contour>
    <contour>
      <point x="202" y="629" type="curve" smooth="yes"/>
      <point x="252" y="629"/>
      <point x="293" y="586"/>
      <point x="293" y="533" type="curve" smooth="yes"/>
      <point x="293" y="479"/>
      <point x="252" y="437"/>
      <point x="200" y="437" type="curve" smooth="yes"/>
      <point x="149" y="437"/>
      <point x="106" y="480"/>
      <point x="106" y="533" type="curve" smooth="yes"/>
      <point x="106" y="586"/>
      <point x="148" y="629"/>
    </contour>
  </outline>
</glyph>
<glyph name="paragraph" format="1">
  <advance width="564"/>
  <unicode hex="00B6"/>
  <outline>
    <contour>
      <point x="227" y="-133" type="line"/>
      <point x="302" y="-133" type="line"/>
      <point x="302" y="672" type="line"/>
      <point x="416" y="672" type="line"/>
      <point x="416" y="-133" type="line"/>
      <point x="491" y="-133" type="line"/>
      <point x="491" y="739" type="line"/>
      <point x="260" y="739" type="line" smooth="yes"/>
      <point x="196" y="739"/>
      <point x="155" y="729"/>
      <point x="119" y="706" type="curve" smooth="yes"/>
      <point x="67" y="672"/>
      <point x="37" y="615"/>
      <point x="37" y="549" type="curve" smooth="yes"/>
      <point x="37" y="441"/>
      <point x="109" y="367"/>
      <point x="227" y="355" type="curve"/>
    </contour>
  </outline>
</glyph>
<glyph name="periodcentered" format="1">
  <advance width="277"/>
  <unicode hex="00B7"/>
  <outline>
    <contour>
      <point x="101" y="229" type="line"/>
      <point x="175" y="229" type="line"/>
      <point x="175" y="355" type="line"/>
      <point x="101" y="355" type="line"/>
    </contour>
  </outline>
</glyph>
<glyph name="cedilla" format="1">
  <advance width="324"/>
  <unicode hex="00B8"/>
  <outline>
    <contour>
      <point x="124" y="0" type="line"/>
      <point x="89" y="-79" type="line"/>
      <point x="118" y="-96" type="line"/>
      <point x="132" y="-79"/>
      <point x="144" y="-72"/>
      <point x="161" y="-72" type="curve" smooth="yes"/>
      <point x="188" y="-72"/>
      <point x="207" y="-94"/>
      <point x="207" y="-124" type="curve" smooth="yes"/>
      <point x="207" y="-151"/>
      <point x="189" y="-170"/>
      <point x="163" y="-170" type="curve" smooth="yes"/>
      <point x="140" y="-170"/>
      <point x="124" y="-157"/>
      <point x="118" y="-135" type="curve"/>
      <point x="74" y="-140" type="line"/>
      <point x="85" y="-187"/>
      <point x="116" y="-213"/>
      <point x="162" y="-213" type="curve" smooth="yes"/>
      <point x="213" y="-213"/>
      <point x="250" y="-174"/>
      <point x="250" y="-120" type="curve" smooth="yes"/>
      <point x="250" y="-72"/>
      <point x="219" y="-39"/>
      <point x="174" y="-39" type="curve" smooth="yes"/>
      <point x="163" y="-39"/>
      <point x="156" y="-41"/>
      <point x="141" y="-47" type="curve"/>
      <point x="160" y="0" type="line"/>
    </contour>
  </outline>
</glyph>
<glyph name="ordmasculine" format="1">
  <advance width="369"/>
  <unicode hex="00BA"/>
  <outline>
    <contour>
      <point x="185" y="745" type="curve" smooth="yes"/>
      <point x="102" y="745"/>
      <point x="32" y="676"/>
      <point x="32" y="596" type="curve" smooth="yes"/>
      <point x="32" y="510"/>
      <point x="100" y="442"/>
      <point x="184" y="442" type="curve" smooth="yes"/>
      <point x="267" y="442"/>
      <point x="337" y="511"/>
      <point x="337" y="594" type="curve" smooth="yes"/>
      <point x="337" y="676"/>
      <point x="267" y="745"/>
    </contour>
    <contour>
      <point x="184" y="696" type="curve" smooth="yes"/>
      <point x="241" y="696"/>
      <point x="284" y="651"/>
      <point x="284" y="592" type="curve" smooth="yes"/>
      <point x="284" y="537"/>
      <point x="239" y="491"/>
      <point x="185" y="491" type="curve" smooth="yes"/>
      <point x="129" y="491"/>
      <point x="85" y="537"/>
      <point x="85" y="594" type="curve" smooth="yes"/>
      <point x="85" y="650"/>
      <point x="129" y="696"/>
    </contour>
    <contour>
      <point x="32" y="370" type="line"/>
      <point x="32" y="319" type="line"/>
      <point x="337" y="319" type="line"/>
      <point x="337" y="370" type="line"/>
    </contour>
  </outline>
</glyph>
<glyph name="onequarter" format="1">
  <advance width="831"/>
  <unicode hex="00BC"/>
  <outline>
    <contour>
      <point x="701" y="0" type="line"/>
      <point x="761" y="0" type="line"/>
      <point x="761" y="79" type="line"/>
      <point x="803" y="79" type="line"/>
      <point x="803" y="134" type="line"/>
      <point x="761" y="134" type="line"/>
      <point x="761" y="451" type="line"/>
      <point x="696" y="451" type="line"/>
      <point x="470" y="129" type="line"/>
      <point x="470" y="79" type="line"/>
      <point x="701" y="79" type="line"/>
    </contour>
    <contour>
      <point x="701" y="134" type="line"/>
      <point x="545" y="134" type="line"/>
      <point x="701" y="359" type="line"/>
    </contour>
    <contour>
      <point x="211" y="0" type="line"/>
      <point x="265" y="0" type="line"/>
      <point x="607" y="739" type="line"/>
      <point x="552" y="739" type="line"/>
    </contour>
    <contour>
      <point x="176" y="288" type="line"/>
      <point x="236" y="288" type="line"/>
      <point x="236" y="739" type="line"/>
      <point x="101" y="739" type="line"/>
      <point x="101" y="684" type="line"/>
      <point x="176" y="684" type="line"/>
    </contour>
  </outline>
</glyph>
<glyph name="onehalf" format="1">
  <advance width="831"/>
  <unicode hex="00BD"/>
  <outline>
    <contour>
      <point x="206" y="0" type="line"/>
      <point x="260" y="0" type="line"/>
      <point x="602" y="739" type="line"/>
      <point x="547" y="739" type="line"/>
    </contour>
    <contour>
      <point x="171" y="288" type="line"/>
      <point x="231" y="288" type="line"/>
      <point x="231" y="739" type="line"/>
      <point x="96" y="739" type="line"/>
      <point x="96" y="684" type="line"/>
      <point x="171" y="684" type="line"/>
    </contour>
    <contour>
      <point x="506" y="0" type="line"/>
      <point x="812" y="0" type="line"/>
      <point x="812" y="55" type="line"/>
      <point x="595" y="55" type="line"/>
      <point x="728" y="176" type="line" smooth="yes"/>
      <point x="791" y="233"/>
      <point x="814" y="271"/>
      <point x="814" y="318" type="curve" smooth="yes"/>
      <point x="814" y="396"/>
      <point x="748" y="459"/>
      <point x="665" y="459" type="curve" smooth="yes"/>
      <point x="599" y="459"/>
      <point x="544" y="424"/>
      <point x="521" y="369" type="curve" smooth="yes"/>
      <point x="512" y="346"/>
      <point x="511" y="339"/>
      <point x="510" y="295" type="curve"/>
      <point x="570" y="295" type="line"/>
      <point x="570" y="300" type="line" smooth="yes"/>
      <point x="570" y="328"/>
      <point x="573" y="344"/>
      <point x="582" y="359" type="curve" smooth="yes"/>
      <point x="598" y="386"/>
      <point x="629" y="404"/>
      <point x="662" y="404" type="curve" smooth="yes"/>
      <point x="712" y="404"/>
      <point x="753" y="365"/>
      <point x="753" y="320" type="curve" smooth="yes"/>
      <point x="753" y="298"/>
      <point x="743" y="276"/>
      <point x="723" y="253" type="curve" smooth="yes"/>
      <point x="710" y="238"/>
      <point x="710" y="238"/>
      <point x="669" y="201" type="curve" smooth="yes"/>
      <point x="506" y="51" type="line"/>
    </contour>
  </outline>
</glyph>
<glyph name="threequarters" format="1">
  <advance width="831"/>
  <unicode hex="00BE"/>
  <outline>
    <contour>
      <point x="701" y="0" type="line"/>
      <point x="761" y="0" type="line"/>
      <point x="761" y="79" type="line"/>
      <point x="803" y="79" type="line"/>
      <point x="803" y="134" type="line"/>
      <point x="761" y="134" type="line"/>
      <point x="761" y="451" type="line"/>
      <point x="696" y="451" type="line"/>
      <point x="470" y="129" type="line"/>
      <point x="470" y="79" type="line"/>
      <point x="701" y="79" type="line"/>
    </contour>
    <contour>
      <point x="701" y="134" type="line"/>
      <point x="545" y="134" type="line"/>
      <point x="701" y="359" type="line"/>
    </contour>
    <contour>
      <point x="239" y="0" type="line"/>
      <point x="293" y="0" type="line"/>
      <point x="635" y="739" type="line"/>
      <point x="580" y="739" type="line"/>
    </contour>
    <contour>
      <point x="104" y="615" type="line"/>
      <point x="104" y="639"/>
      <point x="105" y="643"/>
      <point x="110" y="655" type="curve" smooth="yes"/>
      <point x="120" y="678"/>
      <point x="141" y="692"/>
      <point x="166" y="692" type="curve" smooth="yes"/>
      <point x="202" y="692"/>
      <point x="229" y="666"/>
      <point x="229" y="631" type="curve" smooth="yes"/>
      <point x="229" y="594"/>
      <point x="198" y="570"/>
      <point x="149" y="570" type="curve" smooth="yes"/>
      <point x="146" y="570"/>
      <point x="146" y="570"/>
      <point x="128" y="571" type="curve"/>
      <point x="128" y="517" type="line"/>
      <point x="161" y="517"/>
      <point x="174" y="516"/>
      <point x="187" y="513" type="curve" smooth="yes"/>
      <point x="228" y="504"/>
      <point x="258" y="466"/>
      <point x="258" y="425" type="curve" smooth="yes"/>
      <point x="258" y="377"/>
      <point x="215" y="335"/>
      <point x="165" y="335" type="curve" smooth="yes"/>
      <point x="137" y="335"/>
      <point x="109" y="349"/>
      <point x="91" y="374" type="curve" smooth="yes"/>
      <point x="79" y="391"/>
      <point x="76" y="402"/>
      <point x="74" y="439" type="curve"/>
      <point x="13" y="439" type="line"/>
      <point x="14" y="398"/>
      <point x="20" y="376"/>
      <point x="35" y="352" type="curve" smooth="yes"/>
      <point x="62" y="308"/>
      <point x="112" y="280"/>
      <point x="166" y="280" type="curve" smooth="yes"/>
      <point x="249" y="280"/>
      <point x="319" y="347"/>
      <point x="319" y="427" type="curve" smooth="yes"/>
      <point x="319" y="476"/>
      <point x="295" y="517"/>
      <point x="249" y="546" type="curve"/>
      <point x="280" y="574"/>
      <point x="290" y="594"/>
      <point x="290" y="628" type="curve" smooth="yes"/>
      <point x="290" y="695"/>
      <point x="236" y="747"/>
      <point x="167" y="747" type="curve" smooth="yes"/>
      <point x="93" y="747"/>
      <point x="44" y="695"/>
      <point x="43" y="615" type="curve"/>
    </contour>
  </outline>
</glyph>
<glyph name="questiondown" format="1">
  <advance width="591"/>
  <unicode hex="00BF"/>
  <outline>
    <contour>
      <point x="330" y="547" type="line"/>
      <point x="256" y="547" type="line"/>
      <point x="256" y="421" type="line"/>
      <point x="330" y="421" type="line"/>
    </contour>
    <contour>
      <point x="456" y="39" type="line"/>
      <point x="453" y="-9"/>
      <point x="446" y="-35"/>
      <point x="432" y="-61" type="curve" smooth="yes"/>
      <point x="405" y="-109"/>
      <point x="352" y="-138"/>
      <point x="293" y="-138" type="curve" smooth="yes"/>
      <point x="204" y="-138"/>
      <point x="140" y="-76"/>
      <point x="140" y="10" type="curve" smooth="yes"/>
      <point x="140" y="59"/>
      <point x="157" y="86"/>
      <point x="224" y="150" type="curve" smooth="yes"/>
      <point x="267" y="191"/>
      <point x="280" y="205"/>
      <point x="296" y="232" type="curve" smooth="yes"/>
      <point x="317" y="266"/>
      <point x="329" y="305"/>
      <point x="329" y="339" type="curve" smooth="yes"/>
      <point x="329" y="354" type="line"/>
      <point x="259" y="354" type="line"/>
      <point x="257" y="292"/>
      <point x="230" y="247"/>
      <point x="156" y="182" type="curve" smooth="yes"/>
      <point x="90" y="122"/>
      <point x="66" y="77"/>
      <point x="66" y="12" type="curve" smooth="yes"/>
      <point x="66" y="-114"/>
      <point x="161" y="-205"/>
      <point x="292" y="-205" type="curve" smooth="yes"/>
      <point x="377" y="-205"/>
      <point x="448" y="-168"/>
      <point x="490" y="-102" type="curve" smooth="yes"/>
      <point x="515" y="-62"/>
      <point x="525" y="-25"/>
      <point x="526" y="39" type="curve"/>
    </contour>
  </outline>
</glyph>
<glyph name="Agrave" format="1">
  <advance width="740"/>
  <unicode hex="00C0"/>
  <outline>
    <contour>
      <point x="11" y="0" type="line"/>
      <point x="89" y="0" type="line"/>
      <point x="197" y="249" type="line"/>
      <point x="541" y="249" type="line"/>
      <point x="648" y="0" type="line"/>
      <point x="729" y="0" type="line"/>
      <point x="411" y="739" type="line"/>
      <point x="328" y="739" type="line"/>
    </contour>
    <contour>
      <point x="225" y="316" type="line"/>
      <point x="370" y="655" type="line"/>
      <point x="512" y="316" type="line"/>
    </contour>
    <contour>
      <point x="254" y="958" type="line"/>
      <point x="222" y="900" type="line"/>
      <point x="419" y="792" type="line"/>
      <point x="452" y="848" type="line"/>
    </contour>
  </outline>
</glyph>
<glyph name="Aacute" format="1">
  <advance width="740"/>
  <unicode hex="00C1"/>
  <outline>
    <contour>
      <point x="11" y="0" type="line"/>
      <point x="89" y="0" type="line"/>
      <point x="197" y="249" type="line"/>
      <point x="541" y="249" type="line"/>
      <point x="648" y="0" type="line"/>
      <point x="729" y="0" type="line"/>
      <point x="411" y="739" type="line"/>
      <point x="328" y="739" type="line"/>
    </contour>
    <contour>
      <point x="225" y="316" type="line"/>
      <point x="370" y="655" type="line"/>
      <point x="512" y="316" type="line"/>
    </contour>
    <contour>
      <point x="290" y="848" type="line"/>
      <point x="324" y="792" type="line"/>
      <point x="517" y="906" type="line"/>
      <point x="483" y="964" type="line"/>
    </contour>
  </outline>
</glyph>
<glyph name="Acircumflex" format="1">
  <advance width="740"/>
  <unicode hex="00C2"/>
  <outline>
    <contour>
      <point x="11" y="0" type="line"/>
      <point x="89" y="0" type="line"/>
      <point x="197" y="249" type="line"/>
      <point x="541" y="249" type="line"/>
      <point x="648" y="0" type="line"/>
      <point x="729" y="0" type="line"/>
      <point x="411" y="739" type="line"/>
      <point x="328" y="739" type="line"/>
    </contour>
    <contour>
      <point x="225" y="316" type="line"/>
      <point x="370" y="655" type="line"/>
      <point x="512" y="316" type="line"/>
    </contour>
    <contour>
      <point x="193" y="805" type="line"/>
      <point x="284" y="805" type="line"/>
      <point x="372" y="879" type="line"/>
      <point x="458" y="805" type="line"/>
      <point x="547" y="805" type="line"/>
      <point x="404" y="931" type="line"/>
      <point x="338" y="931" type="line"/>
    </contour>
  </outline>
</glyph>
<glyph name="Atilde" format="1">
  <advance width="740"/>
  <unicode hex="00C3"/>
  <outline>
    <contour>
      <point x="11" y="0" type="line"/>
      <point x="89" y="0" type="line"/>
      <point x="197" y="249" type="line"/>
      <point x="541" y="249" type="line"/>
      <point x="648" y="0" type="line"/>
      <point x="729" y="0" type="line"/>
      <point x="411" y="739" type="line"/>
      <point x="328" y="739" type="line"/>
    </contour>
    <contour>
      <point x="225" y="316" type="line"/>
      <point x="370" y="655" type="line"/>
      <point x="512" y="316" type="line"/>
    </contour>
    <contour>
      <point x="485" y="910" type="line"/>
      <point x="465" y="889"/>
      <point x="447" y="879"/>
      <point x="428" y="879" type="curve" smooth="yes"/>
      <point x="419" y="879"/>
      <point x="396" y="886"/>
      <point x="380" y="893" type="curve" smooth="yes"/>
      <point x="350" y="907"/>
      <point x="339" y="910"/>
      <point x="321" y="910" type="curve" smooth="yes"/>
      <point x="286" y="910"/>
      <point x="251" y="891"/>
      <point x="228" y="861" type="curve"/>
      <point x="261" y="815" type="line"/>
      <point x="268" y="821" type="line" smooth="yes"/>
      <point x="294" y="843"/>
      <point x="302" y="847"/>
      <point x="321" y="847" type="curve" smooth="yes"/>
      <point x="332" y="847"/>
      <point x="346" y="843"/>
      <point x="361" y="837" type="curve"/>
      <point x="394" y="821"/>
      <point x="413" y="815"/>
      <point x="427" y="815" type="curve" smooth="yes"/>
      <point x="460" y="815"/>
      <point x="502" y="838"/>
      <point x="518" y="864" type="curve"/>
    </contour>
  </outline>
</glyph>
<glyph name="Aring" format="1">
  <advance width="740"/>
  <unicode hex="00C5"/>
  <outline>
    <contour>
      <point x="11" y="0" type="line"/>
      <point x="89" y="0" type="line"/>
      <point x="197" y="249" type="line"/>
      <point x="541" y="249" type="line"/>
      <point x="648" y="0" type="line"/>
      <point x="729" y="0" type="line"/>
      <point x="411" y="739" type="line"/>
      <point x="328" y="739" type="line"/>
    </contour>
    <contour>
      <point x="225" y="316" type="line"/>
      <point x="370" y="655" type="line"/>
      <point x="512" y="316" type="line"/>
    </contour>
    <contour>
      <point x="371" y="976" type="curve" smooth="yes"/>
      <point x="319" y="976"/>
      <point x="278" y="935"/>
      <point x="278" y="883" type="curve" smooth="yes"/>
      <point x="278" y="833"/>
      <point x="319" y="792"/>
      <point x="370" y="792" type="curve" smooth="yes"/>
      <point x="421" y="792"/>
      <point x="462" y="833"/>
      <point x="462" y="884" type="curve" smooth="yes"/>
      <point x="462" y="934"/>
      <point x="421" y="976"/>
    </contour>
    <contour>
      <point x="370" y="935" type="curve" smooth="yes"/>
      <point x="398" y="935"/>
      <point x="421" y="911"/>
      <point x="421" y="884" type="curve" smooth="yes"/>
      <point x="421" y="856"/>
      <point x="398" y="833"/>
      <point x="370" y="833" type="curve" smooth="yes"/>
      <point x="342" y="833"/>
      <point x="319" y="856"/>
      <point x="319" y="883" type="curve" smooth="yes"/>
      <point x="319" y="912"/>
      <point x="342" y="935"/>
    </contour>
  </outline>
</glyph>
<glyph name="AE" format="1">
  <advance width="992"/>
  <unicode hex="00C6"/>
  <outline>
    <contour>
      <point x="11" y="0" type="line"/>
      <point x="99" y="0" type="line"/>
      <point x="272" y="250" type="line"/>
      <point x="543" y="250" type="line"/>
      <point x="543" y="0" type="line"/>
      <point x="936" y="0" type="line"/>
      <point x="936" y="67" type="line"/>
      <point x="617" y="67" type="line"/>
      <point x="617" y="340" type="line"/>
      <point x="925" y="340" type="line"/>
      <point x="925" y="407" type="line"/>
      <point x="617" y="407" type="line"/>
      <point x="617" y="672" type="line"/>
      <point x="936" y="672" type="line"/>
      <point x="936" y="739" type="line"/>
      <point x="522" y="739" type="line"/>
    </contour>
    <contour>
      <point x="319" y="317" type="line"/>
      <point x="543" y="644" type="line"/>
      <point x="543" y="317" type="line"/>
    </contour>
  </outline>
</glyph>
<glyph name="Ccedilla" format="1">
  <advance width="813"/>
  <unicode hex="00C7"/>
  <outline>
    <contour>
      <point x="429" y="-13" type="line"/>
      <point x="581" y="-14"/>
      <point x="699" y="58"/>
      <point x="770" y="194" type="curve"/>
      <point x="688" y="194" type="line"/>
      <point x="657" y="155"/>
      <point x="639" y="135"/>
      <point x="614" y="116" type="curve" smooth="yes"/>
      <point x="565" y="77"/>
      <point x="498" y="55"/>
      <point x="431" y="55" type="curve" smooth="yes"/>
      <point x="260" y="55"/>
      <point x="119" y="197"/>
      <point x="119" y="370" type="curve" smooth="yes"/>
      <point x="119" y="548"/>
      <point x="254" y="684"/>
      <point x="430" y="684" type="curve" smooth="yes"/>
      <point x="494" y="684"/>
      <point x="554" y="667"/>
      <point x="603" y="634" type="curve" smooth="yes"/>
      <point x="636" y="613"/>
      <point x="656" y="591"/>
      <point x="684" y="547" type="curve"/>
      <point x="767" y="547" type="line"/>
      <point x="710" y="674"/>
      <point x="580" y="752"/>
      <point x="427" y="752" type="curve" smooth="yes"/>
      <point x="207" y="752"/>
      <point x="44" y="588"/>
      <point x="44" y="367" type="curve" smooth="yes"/>
      <point x="44" y="236"/>
      <point x="103" y="125"/>
      <point x="211" y="52" type="curve" smooth="yes"/>
      <point x="263" y="16"/>
      <point x="308" y="0"/>
      <point x="390" y="-12" type="curve"/>
      <point x="348" y="-103" type="line"/>
      <point x="378" y="-121" type="line"/>
      <point x="393" y="-105"/>
      <point x="405" y="-99"/>
      <point x="422" y="-99" type="curve" smooth="yes"/>
      <point x="449" y="-99"/>
      <point x="468" y="-119"/>
      <point x="468" y="-147" type="curve" smooth="yes"/>
      <point x="468" y="-175"/>
      <point x="451" y="-193"/>
      <point x="423" y="-193" type="curve" smooth="yes"/>
      <point x="400" y="-193"/>
      <point x="386" y="-183"/>
      <point x="378" y="-159" type="curve"/>
      <point x="331" y="-166" type="line"/>
      <point x="345" y="-214"/>
      <point x="377" y="-240"/>
      <point x="424" y="-240" type="curve" smooth="yes"/>
      <point x="478" y="-240"/>
      <point x="516" y="-201"/>
      <point x="516" y="-145" type="curve" smooth="yes"/>
      <point x="516" y="-95"/>
      <point x="485" y="-61"/>
      <point x="439" y="-61" type="curve" smooth="yes"/>
      <point x="427" y="-61"/>
      <point x="419" y="-63"/>
      <point x="405" y="-68" type="curve"/>
    </contour>
  </outline>
</glyph>
<glyph name="Eacute" format="1">
  <advance width="536"/>
  <unicode hex="00C9"/>
  <outline>
    <contour>
      <point x="76" y="0" type="line"/>
      <point x="480" y="0" type="line"/>
      <point x="480" y="67" type="line"/>
      <point x="150" y="67" type="line"/>
      <point x="150" y="340" type="line"/>
      <point x="469" y="340" type="line"/>
      <point x="469" y="407" type="line"/>
      <point x="150" y="407" type="line"/>
      <point x="150" y="672" type="line"/>
      <point x="480" y="672" type="line"/>
      <point x="480" y="739" type="line"/>
      <point x="76" y="739" type="line"/>
    </contour>
    <contour>
      <point x="198" y="848" type="line"/>
      <point x="232" y="792" type="line"/>
      <point x="425" y="906" type="line"/>
      <point x="391" y="964" type="line"/>
    </contour>
  </outline>
</glyph>
<glyph name="Ecircumflex" format="1">
  <advance width="536"/>
  <unicode hex="00CA"/>
  <outline>
    <contour>
      <point x="76" y="0" type="line"/>
      <point x="480" y="0" type="line"/>
      <point x="480" y="67" type="line"/>
      <point x="150" y="67" type="line"/>
      <point x="150" y="340" type="line"/>
      <point x="469" y="340" type="line"/>
      <point x="469" y="407" type="line"/>
      <point x="150" y="407" type="line"/>
      <point x="150" y="672" type="line"/>
      <point x="480" y="672" type="line"/>
      <point x="480" y="739" type="line"/>
      <point x="76" y="739" type="line"/>
    </contour>
    <contour>
      <point x="101" y="805" type="line"/>
      <point x="192" y="805" type="line"/>
      <point x="280" y="879" type="line"/>
      <point x="366" y="805" type="line"/>
      <point x="455" y="805" type="line"/>
      <point x="312" y="931" type="line"/>
      <point x="246" y="931" type="line"/>
    </contour>
  </outline>
</glyph>
<glyph name="Edieresis" format="1">
  <advance width="536"/>
  <unicode hex="00CB"/>
  <outline>
    <contour>
      <point x="76" y="0" type="line"/>
      <point x="480" y="0" type="line"/>
      <point x="480" y="67" type="line"/>
      <point x="150" y="67" type="line"/>
      <point x="150" y="340" type="line"/>
      <point x="469" y="340" type="line"/>
      <point x="469" y="407" type="line"/>
      <point x="150" y="407" type="line"/>
      <point x="150" y="672" type="line"/>
      <point x="480" y="672" type="line"/>
      <point x="480" y="739" type="line"/>
      <point x="76" y="739" type="line"/>
    </contour>
    <contour>
      <point x="168" y="931" type="line"/>
      <point x="168" y="805" type="line"/>
      <point x="242" y="805" type="line"/>
      <point x="242" y="931" type="line"/>
    </contour>
    <contour>
      <point x="315" y="931" type="line"/>
      <point x="315" y="805" type="line"/>
      <point x="389" y="805" type="line"/>
      <point x="389" y="931" type="line"/>
    </contour>
  </outline>
</glyph>
<glyph name="Igrave" format="1">
  <advance width="226"/>
  <unicode hex="00CC"/>
  <outline>
    <contour>
      <point x="76" y="0" type="line"/>
      <point x="150" y="0" type="line"/>
      <point x="150" y="739" type="line"/>
      <point x="76" y="739" type="line"/>
    </contour>
    <contour>
      <point x="30" y="958" type="line"/>
      <point x="-2" y="900" type="line"/>
      <point x="195" y="792" type="line"/>
      <point x="228" y="848" type="line"/>
    </contour>
  </outline>
</glyph>
<glyph name="Iacute" format="1">
  <advance width="226"/>
  <unicode hex="00CD"/>
  <outline>
    <contour>
      <point x="76" y="0" type="line"/>
      <point x="150" y="0" type="line"/>
      <point x="150" y="739" type="line"/>
      <point x="76" y="739" type="line"/>
    </contour>
    <contour>
      <point x="-1" y="848" type="line"/>
      <point x="33" y="792" type="line"/>
      <point x="226" y="906" type="line"/>
      <point x="192" y="964" type="line"/>
    </contour>
  </outline>
</glyph>
<glyph name="Icircumflex" format="1">
  <advance width="226"/>
  <unicode hex="00CE"/>
  <outline>
    <contour>
      <point x="76" y="0" type="line"/>
      <point x="150" y="0" type="line"/>
      <point x="150" y="739" type="line"/>
      <point x="76" y="739" type="line"/>
    </contour>
    <contour>
      <point x="-64" y="805" type="line"/>
      <point x="27" y="805" type="line"/>
      <point x="115" y="879" type="line"/>
      <point x="201" y="805" type="line"/>
      <point x="290" y="805" type="line"/>
      <point x="147" y="931" type="line"/>
      <point x="81" y="931" type="line"/>
    </contour>
  </outline>
</glyph>
<glyph name="Idieresis" format="1">
  <advance width="226"/>
  <unicode hex="00CF"/>
  <outline>
    <contour>
      <point x="77" y="0" type="line"/>
      <point x="151" y="0" type="line"/>
      <point x="151" y="739" type="line"/>
      <point x="77" y="739" type="line"/>
    </contour>
    <contour>
      <point x="3" y="931" type="line"/>
      <point x="3" y="805" type="line"/>
      <point x="77" y="805" type="line"/>
      <point x="77" y="931" type="line"/>
    </contour>
    <contour>
      <point x="150" y="931" type="line"/>
      <point x="150" y="805" type="line"/>
      <point x="224" y="805" type="line"/>
      <point x="224" y="931" type="line"/>
    </contour>
  </outline>
</glyph>
<glyph name="Eth" format="1">
  <advance width="790"/>
  <unicode hex="00D0"/>
  <outline>
    <contour>
      <point x="122" y="347" type="line"/>
      <point x="122" y="0" type="line"/>
      <point x="321" y="0" type="line" smooth="yes"/>
      <point x="432" y="0"/>
      <point x="510" y="17"/>
      <point x="575" y="55" type="curve" smooth="yes"/>
      <point x="687" y="121"/>
      <point x="746" y="229"/>
      <point x="746" y="367" type="curve" smooth="yes"/>
      <point x="746" y="506"/>
      <point x="687" y="616"/>
      <point x="578" y="681" type="curve" smooth="yes"/>
      <point x="508" y="723"/>
      <point x="430" y="739"/>
      <point x="296" y="739" type="curve" smooth="yes"/>
      <point x="122" y="739" type="line"/>
      <point x="122" y="414" type="line"/>
      <point x="26" y="414" type="line"/>
      <point x="26" y="347" type="line"/>
    </contour>
    <contour>
      <point x="196" y="347" type="line"/>
      <point x="401" y="347" type="line"/>
      <point x="401" y="414" type="line"/>
      <point x="196" y="414" type="line"/>
      <point x="196" y="672" type="line"/>
      <point x="299" y="672" type="line" smooth="yes"/>
      <point x="411" y="672"/>
      <point x="481" y="658"/>
      <point x="537" y="624" type="curve" smooth="yes"/>
      <point x="622" y="573"/>
      <point x="671" y="480"/>
      <point x="671" y="370" type="curve" smooth="yes"/>
      <point x="671" y="273"/>
      <point x="633" y="188"/>
      <point x="565" y="133" type="curve" smooth="yes"/>
      <point x="506" y="86"/>
      <point x="430" y="67"/>
      <point x="299" y="67" type="curve" smooth="yes"/>
      <point x="196" y="67" type="line"/>
    </contour>
  </outline>
</glyph>
<glyph name="Ntilde" format="1">
  <advance width="740"/>
  <unicode hex="00D1"/>
  <outline>
    <contour>
      <point x="76" y="0" type="line"/>
      <point x="150" y="0" type="line"/>
      <point x="150" y="650" type="line"/>
      <point x="590" y="0" type="line"/>
      <point x="664" y="0" type="line"/>
      <point x="664" y="739" type="line"/>
      <point x="590" y="739" type="line"/>
      <point x="590" y="126" type="line"/>
      <point x="176" y="739" type="line"/>
      <point x="76" y="739" type="line"/>
    </contour>
    <contour>
      <point x="489" y="910" type="line"/>
      <point x="469" y="889"/>
      <point x="451" y="879"/>
      <point x="432" y="879" type="curve" smooth="yes"/>
      <point x="423" y="879"/>
      <point x="400" y="886"/>
      <point x="384" y="893" type="curve" smooth="yes"/>
      <point x="354" y="907"/>
      <point x="343" y="910"/>
      <point x="325" y="910" type="curve" smooth="yes"/>
      <point x="290" y="910"/>
      <point x="255" y="891"/>
      <point x="232" y="861" type="curve"/>
      <point x="265" y="815" type="line"/>
      <point x="272" y="821" type="line" smooth="yes"/>
      <point x="298" y="843"/>
      <point x="306" y="847"/>
      <point x="325" y="847" type="curve" smooth="yes"/>
      <point x="336" y="847"/>
      <point x="350" y="843"/>
      <point x="365" y="837" type="curve"/>
      <point x="398" y="821"/>
      <point x="417" y="815"/>
      <point x="431" y="815" type="curve" smooth="yes"/>
      <point x="464" y="815"/>
      <point x="506" y="838"/>
      <point x="522" y="864" type="curve"/>
    </contour>
  </outline>
</glyph>
<glyph name="Otilde" format="1">
  <advance width="869"/>
  <unicode hex="00D5"/>
  <outline>
    <contour>
      <point x="435" y="752" type="curve" smooth="yes"/>
      <point x="223" y="752"/>
      <point x="44" y="579"/>
      <point x="44" y="374" type="curve" smooth="yes"/>
      <point x="44" y="159"/>
      <point x="218" y="-13"/>
      <point x="435" y="-13" type="curve" smooth="yes"/>
      <point x="649" y="-13"/>
      <point x="825" y="160"/>
      <point x="825" y="369" type="curve" smooth="yes"/>
      <point x="825" y="580"/>
      <point x="649" y="752"/>
    </contour>
    <contour>
      <point x="435" y="684" type="curve" smooth="yes"/>
      <point x="607" y="684"/>
      <point x="750" y="541"/>
      <point x="750" y="368" type="curve" smooth="yes"/>
      <point x="750" y="197"/>
      <point x="607" y="55"/>
      <point x="435" y="55" type="curve" smooth="yes"/>
      <point x="261" y="55"/>
      <point x="119" y="197"/>
      <point x="119" y="372" type="curve" smooth="yes"/>
      <point x="119" y="541"/>
      <point x="264" y="684"/>
    </contour>
    <contour>
      <point x="557" y="910" type="line"/>
      <point x="537" y="889"/>
      <point x="519" y="879"/>
      <point x="500" y="879" type="curve" smooth="yes"/>
      <point x="491" y="879"/>
      <point x="468" y="886"/>
      <point x="452" y="893" type="curve" smooth="yes"/>
      <point x="422" y="907"/>
      <point x="411" y="910"/>
      <point x="393" y="910" type="curve" smooth="yes"/>
      <point x="358" y="910"/>
      <point x="323" y="891"/>
      <point x="300" y="861" type="curve"/>
      <point x="333" y="815" type="line"/>
      <point x="340" y="821" type="line" smooth="yes"/>
      <point x="366" y="843"/>
      <point x="374" y="847"/>
      <point x="393" y="847" type="curve" smooth="yes"/>
      <point x="404" y="847"/>
      <point x="418" y="843"/>
      <point x="433" y="837" type="curve"/>
      <point x="466" y="821"/>
      <point x="485" y="815"/>
      <point x="499" y="815" type="curve" smooth="yes"/>
      <point x="532" y="815"/>
      <point x="574" y="838"/>
      <point x="590" y="864" type="curve"/>
    </contour>
  </outline>
</glyph>
<glyph name="Odieresis" format="1">
  <advance width="869"/>
  <unicode hex="00D6"/>
  <outline>
    <contour>
      <point x="435" y="752" type="curve" smooth="yes"/>
      <point x="223" y="752"/>
      <point x="44" y="579"/>
      <point x="44" y="374" type="curve" smooth="yes"/>
      <point x="44" y="159"/>
      <point x="218" y="-13"/>
      <point x="435" y="-13" type="curve" smooth="yes"/>
      <point x="649" y="-13"/>
      <point x="825" y="160"/>
      <point x="825" y="369" type="curve" smooth="yes"/>
      <point x="825" y="580"/>
      <point x="649" y="752"/>
    </contour>
    <contour>
      <point x="435" y="684" type="curve" smooth="yes"/>
      <point x="607" y="684"/>
      <point x="750" y="541"/>
      <point x="750" y="368" type="curve" smooth="yes"/>
      <point x="750" y="197"/>
      <point x="607" y="55"/>
      <point x="435" y="55" type="curve" smooth="yes"/>
      <point x="261" y="55"/>
      <point x="119" y="197"/>
      <point x="119" y="372" type="curve" smooth="yes"/>
      <point x="119" y="541"/>
      <point x="264" y="684"/>
    </contour>
    <contour>
      <point x="324" y="931" type="line"/>
      <point x="324" y="805" type="line"/>
      <point x="398" y="805" type="line"/>
      <point x="398" y="931" type="line"/>
    </contour>
    <contour>
      <point x="471" y="931" type="line"/>
      <point x="471" y="805" type="line"/>
      <point x="545" y="805" type="line"/>
      <point x="545" y="931" type="line"/>
    </contour>
  </outline>
</glyph>
<glyph name="multiply" format="1">
  <advance width="606"/>
  <unicode hex="00D7"/>
  <outline>
    <contour>
      <point x="355" y="299" type="line"/>
      <point x="555" y="500" type="line"/>
      <point x="503" y="551" type="line"/>
      <point x="303" y="351" type="line"/>
      <point x="103" y="551" type="line"/>
      <point x="51" y="500" type="line"/>
      <point x="251" y="299" type="line"/>
      <point x="51" y="99" type="line"/>
      <point x="103" y="48" type="line"/>
      <point x="303" y="248" type="line"/>
      <point x="503" y="48" type="line"/>
      <point x="555" y="99" type="line"/>
    </contour>
  </outline>
</glyph>
<glyph name="Oslash" format="1">
  <advance width="868"/>
  <unicode hex="00D8"/>
  <outline>
    <contour>
      <point x="83" y="-42" type="line"/>
      <point x="139" y="-83" type="line"/>
      <point x="233" y="42" type="line"/>
      <point x="293" y="6"/>
      <point x="365" y="-13"/>
      <point x="437" y="-13" type="curve" smooth="yes"/>
      <point x="653" y="-13"/>
      <point x="824" y="157"/>
      <point x="824" y="372" type="curve" smooth="yes"/>
      <point x="824" y="486"/>
      <point x="780" y="582"/>
      <point x="692" y="656" type="curve"/>
      <point x="784" y="779" type="line"/>
      <point x="730" y="821" type="line"/>
      <point x="636" y="696" type="line"/>
      <point x="586" y="730"/>
      <point x="507" y="752"/>
      <point x="431" y="752" type="curve" smooth="yes"/>
      <point x="214" y="752"/>
      <point x="44" y="584"/>
      <point x="44" y="370" type="curve" smooth="yes"/>
      <point x="44" y="255"/>
      <point x="91" y="153"/>
      <point x="176" y="82" type="curve"/>
    </contour>
    <contour>
      <point x="219" y="138" type="line"/>
      <point x="152" y="201"/>
      <point x="119" y="276"/>
      <point x="119" y="366" type="curve" smooth="yes"/>
      <point x="119" y="544"/>
      <point x="256" y="684"/>
      <point x="430" y="684" type="curve" smooth="yes"/>
      <point x="490" y="684"/>
      <point x="549" y="669"/>
      <point x="595" y="641" type="curve"/>
    </contour>
    <contour>
      <point x="650" y="600" type="line"/>
      <point x="718" y="534"/>
      <point x="749" y="461"/>
      <point x="749" y="369" type="curve" smooth="yes"/>
      <point x="749" y="194"/>
      <point x="611" y="55"/>
      <point x="436" y="55" type="curve" smooth="yes"/>
      <point x="378" y="55"/>
      <point x="331" y="67"/>
      <point x="274" y="97" type="curve"/>
    </contour>
  </outline>
</glyph>
<glyph name="Uacute" format="1">
  <advance width="655"/>
  <unicode hex="00DA"/>
  <outline>
    <contour>
      <point x="76" y="739" type="line"/>
      <point x="76" y="278" type="line" smooth="yes"/>
      <point x="76" y="183"/>
      <point x="91" y="127"/>
      <point x="128" y="78" type="curve" smooth="yes"/>
      <point x="172" y="21"/>
      <point x="246" y="-13"/>
      <point x="327" y="-13" type="curve" smooth="yes"/>
      <point x="409" y="-13"/>
      <point x="483" y="21"/>
      <point x="527" y="78" type="curve" smooth="yes"/>
      <point x="564" y="127"/>
      <point x="579" y="183"/>
      <point x="579" y="278" type="curve" smooth="yes"/>
      <point x="579" y="739" type="line"/>
      <point x="505" y="739" type="line"/>
      <point x="505" y="278" type="line" smooth="yes"/>
      <point x="505" y="211"/>
      <point x="494" y="160"/>
      <point x="471" y="125" type="curve" smooth="yes"/>
      <point x="443" y="82"/>
      <point x="388" y="55"/>
      <point x="328" y="55" type="curve" smooth="yes"/>
      <point x="267" y="55"/>
      <point x="212" y="82"/>
      <point x="184" y="125" type="curve" smooth="yes"/>
      <point x="161" y="160"/>
      <point x="150" y="211"/>
      <point x="150" y="278" type="curve" smooth="yes"/>
      <point x="150" y="739" type="line"/>
    </contour>
    <contour>
      <point x="247" y="848" type="line"/>
      <point x="281" y="792" type="line"/>
      <point x="474" y="906" type="line"/>
      <point x="440" y="964" type="line"/>
    </contour>
  </outline>
</glyph>
<glyph name="Ucircumflex" format="1">
  <advance width="655"/>
  <unicode hex="00DB"/>
  <outline>
    <contour>
      <point x="76" y="739" type="line"/>
      <point x="76" y="278" type="line" smooth="yes"/>
      <point x="76" y="183"/>
      <point x="91" y="127"/>
      <point x="128" y="78" type="curve" smooth="yes"/>
      <point x="172" y="21"/>
      <point x="246" y="-13"/>
      <point x="327" y="-13" type="curve" smooth="yes"/>
      <point x="409" y="-13"/>
      <point x="483" y="21"/>
      <point x="527" y="78" type="curve" smooth="yes"/>
      <point x="564" y="127"/>
      <point x="579" y="183"/>
      <point x="579" y="278" type="curve" smooth="yes"/>
      <point x="579" y="739" type="line"/>
      <point x="505" y="739" type="line"/>
      <point x="505" y="278" type="line" smooth="yes"/>
      <point x="505" y="211"/>
      <point x="494" y="160"/>
      <point x="471" y="125" type="curve" smooth="yes"/>
      <point x="443" y="82"/>
      <point x="388" y="55"/>
      <point x="328" y="55" type="curve" smooth="yes"/>
      <point x="267" y="55"/>
      <point x="212" y="82"/>
      <point x="184" y="125" type="curve" smooth="yes"/>
      <point x="161" y="160"/>
      <point x="150" y="211"/>
      <point x="150" y="278" type="curve" smooth="yes"/>
      <point x="150" y="739" type="line"/>
    </contour>
    <contour>
      <point x="150" y="805" type="line"/>
      <point x="241" y="805" type="line"/>
      <point x="329" y="879" type="line"/>
      <point x="415" y="805" type="line"/>
      <point x="504" y="805" type="line"/>
      <point x="361" y="931" type="line"/>
      <point x="295" y="931" type="line"/>
    </contour>
  </outline>
</glyph>
<glyph name="Yacute" format="1">
  <advance width="592"/>
  <unicode hex="00DD"/>
  <outline>
    <contour>
      <point x="258" y="0" type="line"/>
      <point x="332" y="0" type="line"/>
      <point x="332" y="247" type="line"/>
      <point x="590" y="739" type="line"/>
      <point x="509" y="739" type="line"/>
      <point x="294" y="325" type="line"/>
      <point x="84" y="739" type="line"/>
      <point x="2" y="739" type="line"/>
      <point x="258" y="247" type="line"/>
    </contour>
    <contour>
      <point x="216" y="848" type="line"/>
      <point x="250" y="792" type="line"/>
      <point x="443" y="906" type="line"/>
      <point x="409" y="964" type="line"/>
    </contour>
  </outline>
</glyph>
<glyph name="Thorn" format="1">
  <advance width="592"/>
  <unicode hex="00DE"/>
  <outline>
    <contour>
      <point x="76" y="0" type="line"/>
      <point x="150" y="0" type="line"/>
      <point x="150" y="166" type="line"/>
      <point x="292" y="166" type="line" smooth="yes"/>
      <point x="392" y="166"/>
      <point x="446" y="179"/>
      <point x="491" y="212" type="curve" smooth="yes"/>
      <point x="539" y="247"/>
      <point x="565" y="308"/>
      <point x="565" y="382" type="curve" smooth="yes"/>
      <point x="565" y="467"/>
      <point x="533" y="534"/>
      <point x="477" y="567" type="curve" smooth="yes"/>
      <point x="431" y="595"/>
      <point x="375" y="606"/>
      <point x="280" y="606" type="curve" smooth="yes"/>
      <point x="143" y="606" type="line"/>
      <point x="143" y="739" type="line"/>
      <point x="76" y="739" type="line"/>
    </contour>
    <contour>
      <point x="150" y="233" type="line"/>
      <point x="150" y="539" type="line"/>
      <point x="255" y="539" type="line" smooth="yes"/>
      <point x="340" y="539"/>
      <point x="393" y="532"/>
      <point x="423" y="517" type="curve" smooth="yes"/>
      <point x="466" y="495"/>
      <point x="490" y="448"/>
      <point x="490" y="382" type="curve" smooth="yes"/>
      <point x="490" y="325"/>
      <point x="467" y="279"/>
      <point x="429" y="258" type="curve" smooth="yes"/>
      <point x="398" y="240"/>
      <point x="355" y="233"/>
      <point x="287" y="233" type="curve" smooth="yes"/>
    </contour>
  </outline>
</glyph>
<glyph name="germandbls" format="1">
  <advance width="554"/>
  <unicode hex="00DF"/>
  <outline>
    <contour>
      <point x="59" y="0" type="line"/>
      <point x="133" y="0" type="line"/>
      <point x="133" y="109" type="line"/>
      <point x="170" y="28"/>
      <point x="233" y="-13"/>
      <point x="319" y="-13" type="curve" smooth="yes"/>
      <point x="436" y="-13"/>
      <point x="524" y="78"/>
      <point x="524" y="199" type="curve" smooth="yes"/>
      <point x="524" y="294"/>
      <point x="476" y="361"/>
      <point x="389" y="389" type="curve"/>
      <point x="447" y="424"/>
      <point x="474" y="472"/>
      <point x="474" y="544" type="curve" smooth="yes"/>
      <point x="474" y="663"/>
      <point x="384" y="752"/>
      <point x="263" y="752" type="curve" smooth="yes"/>
      <point x="191" y="752"/>
      <point x="126" y="718"/>
      <point x="95" y="664" type="curve" smooth="yes"/>
      <point x="69" y="620"/>
      <point x="59" y="566"/>
      <point x="59" y="481" type="curve" smooth="yes"/>
    </contour>
    <contour>
      <point x="133" y="203" type="line"/>
      <point x="133" y="481" type="line" smooth="yes"/>
      <point x="133" y="552"/>
      <point x="139" y="587"/>
      <point x="156" y="621" type="curve" smooth="yes"/>
      <point x="175" y="660"/>
      <point x="217" y="684"/>
      <point x="265" y="684" type="curve" smooth="yes"/>
      <point x="342" y="684"/>
      <point x="399" y="626"/>
      <point x="399" y="548" type="curve" smooth="yes"/>
      <point x="399" y="460"/>
      <point x="337" y="408"/>
      <point x="233" y="408" type="curve" smooth="yes"/>
      <point x="224" y="408" type="line"/>
      <point x="224" y="341" type="line"/>
      <point x="257" y="343"/>
      <point x="262" y="343"/>
      <point x="269" y="343" type="curve" smooth="yes"/>
      <point x="381" y="343"/>
      <point x="449" y="288"/>
      <point x="449" y="197" type="curve" smooth="yes"/>
      <point x="449" y="117"/>
      <point x="391" y="55"/>
      <point x="317" y="55" type="curve" smooth="yes"/>
      <point x="241" y="55"/>
      <point x="186" y="116"/>
      <point x="184" y="203" type="curve"/>
    </contour>
  </outline>
</glyph>
<glyph name="aacute" format="1">
  <advance width="683"/>
  <unicode hex="00E1"/>
  <outline>
    <contour>
      <point x="620" y="547" type="line"/>
      <point x="546" y="547" type="line"/>
      <point x="546" y="450" type="line"/>
      <point x="492" y="526"/>
      <point x="425" y="560"/>
      <point x="330" y="560" type="curve" smooth="yes"/>
      <point x="166" y="560"/>
      <point x="42" y="436"/>
      <point x="42" y="272" type="curve" smooth="yes"/>
      <point x="42" y="109"/>
      <point x="167" y="-13"/>
      <point x="335" y="-13" type="curve" smooth="yes"/>
      <point x="428" y="-13"/>
      <point x="488" y="18"/>
      <point x="546" y="96" type="curve"/>
      <point x="546" y="0" type="line"/>
      <point x="620" y="0" type="line"/>
    </contour>
    <contour>
      <point x="332" y="492" type="curve" smooth="yes"/>
      <point x="452" y="492"/>
      <point x="546" y="398"/>
      <point x="546" y="276" type="curve" smooth="yes"/>
      <point x="546" y="152"/>
      <point x="454" y="55"/>
      <point x="336" y="55" type="curve" smooth="yes"/>
      <point x="212" y="55"/>
      <point x="117" y="152"/>
      <point x="117" y="277" type="curve" smooth="yes"/>
      <point x="117" y="396"/>
      <point x="213" y="492"/>
    </contour>
    <contour>
      <point x="271" y="666" type="line"/>
      <point x="305" y="610" type="line"/>
      <point x="498" y="724" type="line"/>
      <point x="464" y="782" type="line"/>
    </contour>
  </outline>
</glyph>
<glyph name="atilde" format="1">
  <advance width="683"/>
  <unicode hex="00E3"/>
  <outline>
    <contour>
      <point x="620" y="547" type="line"/>
      <point x="546" y="547" type="line"/>
      <point x="546" y="450" type="line"/>
      <point x="492" y="526"/>
      <point x="425" y="560"/>
      <point x="330" y="560" type="curve" smooth="yes"/>
      <point x="166" y="560"/>
      <point x="42" y="436"/>
      <point x="42" y="272" type="curve" smooth="yes"/>
      <point x="42" y="109"/>
      <point x="167" y="-13"/>
      <point x="335" y="-13" type="curve" smooth="yes"/>
      <point x="428" y="-13"/>
      <point x="488" y="18"/>
      <point x="546" y="96" type="curve"/>
      <point x="546" y="0" type="line"/>
      <point x="620" y="0" type="line"/>
    </contour>
    <contour>
      <point x="332" y="492" type="curve" smooth="yes"/>
      <point x="452" y="492"/>
      <point x="546" y="398"/>
      <point x="546" y="276" type="curve" smooth="yes"/>
      <point x="546" y="152"/>
      <point x="454" y="55"/>
      <point x="336" y="55" type="curve" smooth="yes"/>
      <point x="212" y="55"/>
      <point x="117" y="152"/>
      <point x="117" y="277" type="curve" smooth="yes"/>
      <point x="117" y="396"/>
      <point x="213" y="492"/>
    </contour>
    <contour>
      <point x="463" y="728" type="line"/>
      <point x="443" y="707"/>
      <point x="425" y="697"/>
      <point x="406" y="697" type="curve" smooth="yes"/>
      <point x="397" y="697"/>
      <point x="374" y="704"/>
      <point x="358" y="711" type="curve" smooth="yes"/>
      <point x="328" y="725"/>
      <point x="317" y="728"/>
      <point x="299" y="728" type="curve" smooth="yes"/>
      <point x="264" y="728"/>
      <point x="229" y="709"/>
      <point x="206" y="679" type="curve"/>
      <point x="239" y="633" type="line"/>
      <point x="246" y="639" type="line" smooth="yes"/>
      <point x="272" y="661"/>
      <point x="280" y="665"/>
      <point x="299" y="665" type="curve" smooth="yes"/>
      <point x="310" y="665"/>
      <point x="324" y="661"/>
      <point x="339" y="655" type="curve"/>
      <point x="372" y="639"/>
      <point x="391" y="633"/>
      <point x="405" y="633" type="curve" smooth="yes"/>
      <point x="438" y="633"/>
      <point x="480" y="656"/>
      <point x="496" y="682" type="curve"/>
    </contour>
  </outline>
</glyph>
<glyph name="aring" format="1">
  <advance width="683"/>
  <unicode hex="00E5"/>
  <outline>
    <contour>
      <point x="620" y="547" type="line"/>
      <point x="546" y="547" type="line"/>
      <point x="546" y="450" type="line"/>
      <point x="492" y="526"/>
      <point x="425" y="560"/>
      <point x="330" y="560" type="curve" smooth="yes"/>
      <point x="166" y="560"/>
      <point x="42" y="436"/>
      <point x="42" y="272" type="curve" smooth="yes"/>
      <point x="42" y="109"/>
      <point x="167" y="-13"/>
      <point x="335" y="-13" type="curve" smooth="yes"/>
      <point x="428" y="-13"/>
      <point x="488" y="18"/>
      <point x="546" y="96" type="curve"/>
      <point x="546" y="0" type="line"/>
      <point x="620" y="0" type="line"/>
    </contour>
    <contour>
      <point x="332" y="492" type="curve" smooth="yes"/>
      <point x="452" y="492"/>
      <point x="546" y="398"/>
      <point x="546" y="276" type="curve" smooth="yes"/>
      <point x="546" y="152"/>
      <point x="454" y="55"/>
      <point x="336" y="55" type="curve" smooth="yes"/>
      <point x="212" y="55"/>
      <point x="117" y="152"/>
      <point x="117" y="277" type="curve" smooth="yes"/>
      <point x="117" y="396"/>
      <point x="213" y="492"/>
    </contour>
    <contour>
      <point x="352" y="794" type="curve" smooth="yes"/>
      <point x="300" y="794"/>
      <point x="259" y="753"/>
      <point x="259" y="701" type="curve" smooth="yes"/>
      <point x="259" y="651"/>
      <point x="300" y="610"/>
      <point x="351" y="610" type="curve" smooth="yes"/>
      <point x="402" y="610"/>
      <point x="443" y="651"/>
      <point x="443" y="702" type="curve" smooth="yes"/>
      <point x="443" y="752"/>
      <point x="402" y="794"/>
    </contour>
    <contour>
      <point x="351" y="753" type="curve" smooth="yes"/>
      <point x="379" y="753"/>
      <point x="402" y="729"/>
      <point x="402" y="702" type="curve" smooth="yes"/>
      <point x="402" y="674"/>
      <point x="379" y="651"/>
      <point x="351" y="651" type="curve" smooth="yes"/>
      <point x="323" y="651"/>
      <point x="300" y="674"/>
      <point x="300" y="701" type="curve" smooth="yes"/>
      <point x="300" y="730"/>
      <point x="323" y="753"/>
    </contour>
  </outline>
</glyph>
<glyph name="ccedilla" format="1">
  <advance width="647"/>
  <unicode hex="00E7"/>
  <outline>
    <contour>
      <point x="343" y="-13" type="line"/>
      <point x="463" y="-11"/>
      <point x="554" y="49"/>
      <point x="608" y="161" type="curve"/>
      <point x="524" y="161" type="line"/>
      <point x="467" y="85"/>
      <point x="414" y="55"/>
      <point x="337" y="55" type="curve" smooth="yes"/>
      <point x="214" y="55"/>
      <point x="117" y="152"/>
      <point x="117" y="273" type="curve" smooth="yes"/>
      <point x="117" y="396"/>
      <point x="212" y="492"/>
      <point x="334" y="492" type="curve" smooth="yes"/>
      <point x="415" y="492"/>
      <point x="482" y="453"/>
      <point x="524" y="381" type="curve"/>
      <point x="607" y="381" type="line"/>
      <point x="563" y="491"/>
      <point x="458" y="560"/>
      <point x="335" y="560" type="curve" smooth="yes"/>
      <point x="171" y="560"/>
      <point x="42" y="434"/>
      <point x="42" y="275" type="curve" smooth="yes"/>
      <point x="42" y="124"/>
      <point x="152" y="5"/>
      <point x="306" y="-11" type="curve"/>
      <point x="271" y="-90" type="line"/>
      <point x="301" y="-108" type="line"/>
      <point x="315" y="-91"/>
      <point x="326" y="-84"/>
      <point x="343" y="-84" type="curve" smooth="yes"/>
      <point x="370" y="-84"/>
      <point x="390" y="-105"/>
      <point x="390" y="-135" type="curve" smooth="yes"/>
      <point x="390" y="-162"/>
      <point x="372" y="-181"/>
      <point x="345" y="-181" type="curve" smooth="yes"/>
      <point x="323" y="-181"/>
      <point x="307" y="-168"/>
      <point x="301" y="-146" type="curve"/>
      <point x="257" y="-151" type="line"/>
      <point x="267" y="-198"/>
      <point x="299" y="-224"/>
      <point x="344" y="-224" type="curve" smooth="yes"/>
      <point x="396" y="-224"/>
      <point x="433" y="-185"/>
      <point x="433" y="-131" type="curve" smooth="yes"/>
      <point x="433" y="-84"/>
      <point x="402" y="-51"/>
      <point x="356" y="-51" type="curve" smooth="yes"/>
      <point x="345" y="-51"/>
      <point x="339" y="-53"/>
      <point x="324" y="-58" type="curve"/>
    </contour>
  </outline>
</glyph>
<glyph name="eacute" format="1">
  <advance width="650"/>
  <unicode hex="00E9"/>
  <outline>
    <contour>
      <point x="611" y="249" type="line"/>
      <point x="611" y="324"/>
      <point x="601" y="370"/>
      <point x="574" y="418" type="curve" smooth="yes"/>
      <point x="525" y="505"/>
      <point x="430" y="560"/>
      <point x="326" y="560" type="curve" smooth="yes"/>
      <point x="167" y="560"/>
      <point x="42" y="435"/>
      <point x="42" y="276" type="curve" smooth="yes"/>
      <point x="42" y="114"/>
      <point x="169" y="-13"/>
      <point x="331" y="-13" type="curve" smooth="yes"/>
      <point x="401" y="-13"/>
      <point x="467" y="13"/>
      <point x="517" y="60" type="curve" smooth="yes"/>
      <point x="556" y="97"/>
      <point x="582" y="135"/>
      <point x="597" y="180" type="curve"/>
      <point x="520" y="180" type="line"/>
      <point x="489" y="105"/>
      <point x="412" y="55"/>
      <point x="329" y="55" type="curve" smooth="yes"/>
      <point x="217" y="55"/>
      <point x="122" y="141"/>
      <point x="116" y="249" type="curve"/>
    </contour>
    <contour>
      <point x="118" y="316" type="line"/>
      <point x="138" y="421"/>
      <point x="221" y="492"/>
      <point x="325" y="492" type="curve" smooth="yes"/>
      <point x="431" y="492"/>
      <point x="512" y="425"/>
      <point x="537" y="316" type="curve"/>
    </contour>
    <contour>
      <point x="246" y="666" type="line"/>
      <point x="280" y="610" type="line"/>
      <point x="473" y="724" type="line"/>
      <point x="439" y="782" type="line"/>
    </contour>
  </outline>
</glyph>
<glyph name="igrave" format="1">
  <advance width="200"/>
  <unicode hex="00EC"/>
  <outline>
    <contour>
      <point x="63" y="0" type="line"/>
      <point x="137" y="0" type="line"/>
      <point x="137" y="547" type="line"/>
      <point x="63" y="547" type="line"/>
    </contour>
    <contour>
      <point x="17" y="776" type="line"/>
      <point x="-15" y="718" type="line"/>
      <point x="182" y="610" type="line"/>
      <point x="215" y="666" type="line"/>
    </contour>
  </outline>
</glyph>
<glyph name="iacute" format="1">
  <advance width="200"/>
  <unicode hex="00ED"/>
  <outline>
    <contour>
      <point x="63" y="0" type="line"/>
      <point x="137" y="0" type="line"/>
      <point x="137" y="547" type="line"/>
      <point x="63" y="547" type="line"/>
    </contour>
    <contour>
      <point x="-13" y="666" type="line"/>
      <point x="21" y="610" type="line"/>
      <point x="214" y="724" type="line"/>
      <point x="180" y="782" type="line"/>
    </contour>
  </outline>
</glyph>
<glyph name="icircumflex" format="1">
  <advance width="200"/>
  <unicode hex="00EE"/>
  <outline>
    <contour>
      <point x="63" y="0" type="line"/>
      <point x="137" y="0" type="line"/>
      <point x="137" y="547" type="line"/>
      <point x="63" y="547" type="line"/>
    </contour>
    <contour>
      <point x="-77" y="623" type="line"/>
      <point x="14" y="623" type="line"/>
      <point x="102" y="697" type="line"/>
      <point x="188" y="623" type="line"/>
      <point x="277" y="623" type="line"/>
      <point x="134" y="749" type="line"/>
      <point x="68" y="749" type="line"/>
    </contour>
  </outline>
</glyph>
<glyph name="idieresis" format="1">
  <advance width="200"/>
  <unicode hex="00EF"/>
  <outline>
    <contour>
      <point x="-10" y="749" type="line"/>
      <point x="-10" y="623" type="line"/>
      <point x="64" y="623" type="line"/>
      <point x="64" y="749" type="line"/>
    </contour>
    <contour>
      <point x="137" y="749" type="line"/>
      <point x="137" y="623" type="line"/>
      <point x="211" y="623" type="line"/>
      <point x="211" y="749" type="line"/>
    </contour>
    <contour>
      <point x="64" y="0" type="line"/>
      <point x="138" y="0" type="line"/>
      <point x="138" y="547" type="line"/>
      <point x="64" y="547" type="line"/>
    </contour>
  </outline>
</glyph>
<glyph name="eth" format="1">
  <advance width="655"/>
  <unicode hex="00F0"/>
  <outline>
    <contour>
      <point x="213" y="727" type="line"/>
      <point x="240" y="703" type="line" smooth="yes"/>
      <point x="256" y="689"/>
      <point x="257" y="688"/>
      <point x="273" y="672" type="curve"/>
      <point x="194" y="637" type="line"/>
      <point x="230" y="591" type="line"/>
      <point x="317" y="630" type="line"/>
      <point x="349" y="602"/>
      <point x="351" y="600"/>
      <point x="412" y="538" type="curve"/>
      <point x="369" y="552"/>
      <point x="349" y="556"/>
      <point x="316" y="556" type="curve" smooth="yes"/>
      <point x="160" y="556"/>
      <point x="42" y="434"/>
      <point x="42" y="274" type="curve" smooth="yes"/>
      <point x="42" y="109"/>
      <point x="166" y="-13"/>
      <point x="334" y="-13" type="curve" smooth="yes"/>
      <point x="498" y="-13"/>
      <point x="613" y="107"/>
      <point x="613" y="279" type="curve" smooth="yes"/>
      <point x="613" y="377"/>
      <point x="582" y="451"/>
      <point x="504" y="537" type="curve" smooth="yes"/>
      <point x="462" y="582"/>
      <point x="419" y="625"/>
      <point x="379" y="660" type="curve"/>
      <point x="468" y="699" type="line"/>
      <point x="429" y="743" type="line"/>
      <point x="334" y="701" type="line"/>
      <point x="309" y="724"/>
      <point x="296" y="734"/>
      <point x="266" y="756" type="curve"/>
    </contour>
    <contour>
      <point x="329" y="492" type="curve" smooth="yes"/>
      <point x="449" y="492"/>
      <point x="538" y="398"/>
      <point x="538" y="272" type="curve" smooth="yes"/>
      <point x="538" y="145"/>
      <point x="453" y="55"/>
      <point x="333" y="55" type="curve" smooth="yes"/>
      <point x="207" y="55"/>
      <point x="117" y="147"/>
      <point x="117" y="275" type="curve" smooth="yes"/>
      <point x="117" y="399"/>
      <point x="208" y="492"/>
    </contour>
  </outline>
</glyph>
<glyph name="ntilde" format="1">
  <advance width="610"/>
  <unicode hex="00F1"/>
  <outline>
    <contour>
      <point x="63" y="0" type="line"/>
      <point x="137" y="0" type="line"/>
      <point x="137" y="301" type="line" smooth="yes"/>
      <point x="137" y="362"/>
      <point x="145" y="394"/>
      <point x="166" y="425" type="curve" smooth="yes"/>
      <point x="195" y="467"/>
      <point x="246" y="492"/>
      <point x="304" y="492" type="curve" smooth="yes"/>
      <point x="358" y="492"/>
      <point x="407" y="470"/>
      <point x="437" y="433" type="curve" smooth="yes"/>
      <point x="463" y="399"/>
      <point x="473" y="359"/>
      <point x="473" y="287" type="curve" smooth="yes"/>
      <point x="473" y="0" type="line"/>
      <point x="547" y="0" type="line"/>
      <point x="547" y="287" type="line" smooth="yes"/>
      <point x="547" y="379"/>
      <point x="534" y="428"/>
      <point x="499" y="475" type="curve" smooth="yes"/>
      <point x="456" y="529"/>
      <point x="390" y="560"/>
      <point x="313" y="560" type="curve" smooth="yes"/>
      <point x="241" y="560"/>
      <point x="183" y="532"/>
      <point x="137" y="476" type="curve"/>
      <point x="137" y="547" type="line"/>
      <point x="63" y="547" type="line"/>
    </contour>
    <contour>
      <point x="410" y="728" type="line"/>
      <point x="390" y="707"/>
      <point x="372" y="697"/>
      <point x="353" y="697" type="curve" smooth="yes"/>
      <point x="344" y="697"/>
      <point x="321" y="704"/>
      <point x="305" y="711" type="curve" smooth="yes"/>
      <point x="275" y="725"/>
      <point x="264" y="728"/>
      <point x="246" y="728" type="curve" smooth="yes"/>
      <point x="211" y="728"/>
      <point x="176" y="709"/>
      <point x="153" y="679" type="curve"/>
      <point x="186" y="633" type="line"/>
      <point x="193" y="639" type="line" smooth="yes"/>
      <point x="219" y="661"/>
      <point x="227" y="665"/>
      <point x="246" y="665" type="curve" smooth="yes"/>
      <point x="257" y="665"/>
      <point x="271" y="661"/>
      <point x="286" y="655" type="curve"/>
      <point x="319" y="639"/>
      <point x="338" y="633"/>
      <point x="352" y="633" type="curve" smooth="yes"/>
      <point x="385" y="633"/>
      <point x="427" y="656"/>
      <point x="443" y="682" type="curve"/>
    </contour>
  </outline>
</glyph>
<glyph name="otilde" format="1">
  <advance width="655"/>
  <unicode hex="00F5"/>
  <outline>
    <contour>
      <point x="329" y="560" type="curve" smooth="yes"/>
      <point x="167" y="560"/>
      <point x="42" y="437"/>
      <point x="42" y="277" type="curve" smooth="yes"/>
      <point x="42" y="109"/>
      <point x="165" y="-13"/>
      <point x="335" y="-13" type="curve" smooth="yes"/>
      <point x="495" y="-13"/>
      <point x="613" y="108"/>
      <point x="613" y="272" type="curve" smooth="yes"/>
      <point x="613" y="439"/>
      <point x="493" y="560"/>
    </contour>
    <contour>
      <point x="329" y="492" type="curve" smooth="yes"/>
      <point x="449" y="492"/>
      <point x="538" y="398"/>
      <point x="538" y="271" type="curve" smooth="yes"/>
      <point x="538" y="146"/>
      <point x="452" y="55"/>
      <point x="333" y="55" type="curve" smooth="yes"/>
      <point x="207" y="55"/>
      <point x="117" y="147"/>
      <point x="117" y="275" type="curve" smooth="yes"/>
      <point x="117" y="399"/>
      <point x="208" y="492"/>
    </contour>
    <contour>
      <point x="446" y="728" type="line"/>
      <point x="426" y="707"/>
      <point x="408" y="697"/>
      <point x="389" y="697" type="curve" smooth="yes"/>
      <point x="380" y="697"/>
      <point x="357" y="704"/>
      <point x="341" y="711" type="curve" smooth="yes"/>
      <point x="311" y="725"/>
      <point x="300" y="728"/>
      <point x="282" y="728" type="curve" smooth="yes"/>
      <point x="247" y="728"/>
      <point x="212" y="709"/>
      <point x="189" y="679" type="curve"/>
      <point x="222" y="633" type="line"/>
      <point x="229" y="639" type="line" smooth="yes"/>
      <point x="255" y="661"/>
      <point x="263" y="665"/>
      <point x="282" y="665" type="curve" smooth="yes"/>
      <point x="293" y="665"/>
      <point x="307" y="661"/>
      <point x="322" y="655" type="curve"/>
      <point x="355" y="639"/>
      <point x="374" y="633"/>
      <point x="388" y="633" type="curve" smooth="yes"/>
      <point x="421" y="633"/>
      <point x="463" y="656"/>
      <point x="479" y="682" type="curve"/>
    </contour>
  </outline>
</glyph>
<glyph name="divide" format="1">
  <advance width="606"/>
  <unicode hex="00F7"/>
  <outline>
    <contour>
      <point x="346" y="409" type="line"/>
      <point x="346" y="496" type="line"/>
      <point x="259" y="496" type="line"/>
      <point x="259" y="409" type="line"/>
    </contour>
    <contour>
      <point x="346" y="112" type="line"/>
      <point x="346" y="199" type="line"/>
      <point x="259" y="199" type="line"/>
      <point x="259" y="112" type="line"/>
    </contour>
    <contour>
      <point x="555" y="341" type="line"/>
      <point x="51" y="341" type="line"/>
      <point x="51" y="267" type="line"/>
      <point x="555" y="267" type="line"/>
    </contour>
  </outline>
</glyph>
<glyph name="oslash" format="1">
  <advance width="653"/>
  <unicode hex="00F8"/>
  <outline>
    <contour>
      <point x="73" y="1" type="line"/>
      <point x="126" y="-39" type="line"/>
      <point x="178" y="28" type="line"/>
      <point x="234" y="-2"/>
      <point x="274" y="-13"/>
      <point x="328" y="-13" type="curve" smooth="yes"/>
      <point x="493" y="-13"/>
      <point x="611" y="110"/>
      <point x="611" y="281" type="curve" smooth="yes"/>
      <point x="611" y="362"/>
      <point x="584" y="427"/>
      <point x="528" y="478" type="curve"/>
      <point x="584" y="552" type="line"/>
      <point x="531" y="594" type="line"/>
      <point x="474" y="519" type="line"/>
      <point x="429" y="547"/>
      <point x="382" y="560"/>
      <point x="328" y="560" type="curve" smooth="yes"/>
      <point x="169" y="560"/>
      <point x="42" y="432"/>
      <point x="42" y="272" type="curve" smooth="yes"/>
      <point x="42" y="193"/>
      <point x="64" y="138"/>
      <point x="124" y="68" type="curve"/>
    </contour>
    <contour>
      <point x="166" y="121" type="line"/>
      <point x="131" y="170"/>
      <point x="117" y="211"/>
      <point x="117" y="266" type="curve" smooth="yes"/>
      <point x="117" y="394"/>
      <point x="209" y="492"/>
      <point x="329" y="492" type="curve" smooth="yes"/>
      <point x="367" y="492"/>
      <point x="402" y="484"/>
      <point x="434" y="468" type="curve"/>
    </contour>
    <contour>
      <point x="487" y="426" type="line"/>
      <point x="521" y="384"/>
      <point x="536" y="339"/>
      <point x="536" y="280" type="curve" smooth="yes"/>
      <point x="536" y="148"/>
      <point x="449" y="55"/>
      <point x="323" y="55" type="curve" smooth="yes"/>
      <point x="285" y="55"/>
      <point x="258" y="61"/>
      <point x="218" y="79" type="curve"/>
    </contour>
  </outline>
</glyph>
<glyph name="uacute" format="1">
  <advance width="608"/>
  <unicode hex="00FA"/>
  <outline>
    <contour>
      <point x="545" y="547" type="line"/>
      <point x="471" y="547" type="line"/>
      <point x="471" y="266" type="line" smooth="yes"/>
      <point x="471" y="199"/>
      <point x="461" y="157"/>
      <point x="438" y="123" type="curve" smooth="yes"/>
      <point x="407" y="80"/>
      <point x="358" y="55"/>
      <point x="301" y="55" type="curve" smooth="yes"/>
      <point x="240" y="55"/>
      <point x="188" y="80"/>
      <point x="163" y="124" type="curve" smooth="yes"/>
      <point x="146" y="152"/>
      <point x="137" y="196"/>
      <point x="137" y="252" type="curve" smooth="yes"/>
      <point x="137" y="547" type="line"/>
      <point x="63" y="547" type="line"/>
      <point x="63" y="252" type="line" smooth="yes"/>
      <point x="63" y="171"/>
      <point x="77" y="114"/>
      <point x="106" y="74" type="curve" smooth="yes"/>
      <point x="147" y="17"/>
      <point x="213" y="-13"/>
      <point x="295" y="-13" type="curve" smooth="yes"/>
      <point x="380" y="-13"/>
      <point x="434" y="17"/>
      <point x="471" y="85" type="curve"/>
      <point x="471" y="0" type="line"/>
      <point x="545" y="0" type="line"/>
    </contour>
    <contour>
      <point x="224" y="666" type="line"/>
      <point x="258" y="610" type="line"/>
      <point x="451" y="724" type="line"/>
      <point x="417" y="782" type="line"/>
    </contour>
  </outline>
</glyph>
<glyph name="ucircumflex" format="1">
  <advance width="608"/>
  <unicode hex="00FB"/>
  <outline>
    <contour>
      <point x="545" y="547" type="line"/>
      <point x="471" y="547" type="line"/>
      <point x="471" y="266" type="line" smooth="yes"/>
      <point x="471" y="199"/>
      <point x="461" y="157"/>
      <point x="438" y="123" type="curve" smooth="yes"/>
      <point x="407" y="80"/>
      <point x="358" y="55"/>
      <point x="301" y="55" type="curve" smooth="yes"/>
      <point x="240" y="55"/>
      <point x="188" y="80"/>
      <point x="163" y="124" type="curve" smooth="yes"/>
      <point x="146" y="152"/>
      <point x="137" y="196"/>
      <point x="137" y="252" type="curve" smooth="yes"/>
      <point x="137" y="547" type="line"/>
      <point x="63" y="547" type="line"/>
      <point x="63" y="252" type="line" smooth="yes"/>
      <point x="63" y="171"/>
      <point x="77" y="114"/>
      <point x="106" y="74" type="curve" smooth="yes"/>
      <point x="147" y="17"/>
      <point x="213" y="-13"/>
      <point x="295" y="-13" type="curve" smooth="yes"/>
      <point x="380" y="-13"/>
      <point x="434" y="17"/>
      <point x="471" y="85" type="curve"/>
      <point x="471" y="0" type="line"/>
      <point x="545" y="0" type="line"/>
    </contour>
    <contour>
      <point x="127" y="623" type="line"/>
      <point x="218" y="623" type="line"/>
      <point x="306" y="697" type="line"/>
      <point x="392" y="623" type="line"/>
      <point x="481" y="623" type="line"/>
      <point x="338" y="749" type="line"/>
      <point x="272" y="749" type="line"/>
    </contour>
  </outline>
</glyph>
<glyph name="udieresis" format="1">
  <advance width="608"/>
  <unicode hex="00FC"/>
  <outline>
    <contour>
      <point x="545" y="547" type="line"/>
      <point x="471" y="547" type="line"/>
      <point x="471" y="266" type="line" smooth="yes"/>
      <point x="471" y="199"/>
      <point x="461" y="157"/>
      <point x="438" y="123" type="curve" smooth="yes"/>
      <point x="407" y="80"/>
      <point x="358" y="55"/>
      <point x="301" y="55" type="curve" smooth="yes"/>
      <point x="240" y="55"/>
      <point x="188" y="80"/>
      <point x="163" y="124" type="curve" smooth="yes"/>
      <point x="146" y="152"/>
      <point x="137" y="196"/>
      <point x="137" y="252" type="curve" smooth="yes"/>
      <point x="137" y="547" type="line"/>
      <point x="63" y="547" type="line"/>
      <point x="63" y="252" type="line" smooth="yes"/>
      <point x="63" y="171"/>
      <point x="77" y="114"/>
      <point x="106" y="74" type="curve" smooth="yes"/>
      <point x="147" y="17"/>
      <point x="213" y="-13"/>
      <point x="295" y="-13" type="curve" smooth="yes"/>
      <point x="380" y="-13"/>
      <point x="434" y="17"/>
      <point x="471" y="85" type="curve"/>
      <point x="471" y="0" type="line"/>
      <point x="545" y="0" type="line"/>
    </contour>
    <contour>
      <point x="194" y="749" type="line"/>
      <point x="194" y="623" type="line"/>
      <point x="268" y="623" type="line"/>
      <point x="268" y="749" type="line"/>
    </contour>
    <contour>
      <point x="341" y="749" type="line"/>
      <point x="341" y="623" type="line"/>
      <point x="415" y="623" type="line"/>
      <point x="415" y="749" type="line"/>
    </contour>
  </outline>
</glyph>
<glyph name="yacute" format="1">
  <advance width="536"/>
  <unicode hex="00FD"/>
  <outline>
    <contour>
      <point x="132" y="-192" type="line"/>
      <point x="211" y="-192" type="line"/>
      <point x="527" y="547" type="line"/>
      <point x="448" y="547" type="line"/>
      <point x="263" y="111" type="line"/>
      <point x="90" y="547" type="line"/>
      <point x="9" y="547" type="line"/>
      <point x="221" y="18" type="line"/>
    </contour>
    <contour>
      <point x="195" y="666" type="line"/>
      <point x="229" y="610" type="line"/>
      <point x="422" y="724" type="line"/>
      <point x="388" y="782" type="line"/>
    </contour>
  </outline>
</glyph>
<glyph name="thorn" format="1">
  <advance width="682"/>
  <unicode hex="00FE"/>
  <outline>
    <contour>
      <point x="63" y="739" type="line"/>
      <point x="63" y="-192" type="line"/>
      <point x="137" y="-192" type="line"/>
      <point x="137" y="94" type="line"/>
      <point x="185" y="24"/>
      <point x="259" y="-13"/>
      <point x="350" y="-13" type="curve" smooth="yes"/>
      <point x="513" y="-13"/>
      <point x="640" y="112"/>
      <point x="640" y="272" type="curve" smooth="yes"/>
      <point x="640" y="435"/>
      <point x="515" y="560"/>
      <point x="352" y="560" type="curve" smooth="yes"/>
      <point x="259" y="560"/>
      <point x="183" y="522"/>
      <point x="137" y="453" type="curve"/>
      <point x="137" y="739" type="line"/>
    </contour>
    <contour>
      <point x="349" y="492" type="curve" smooth="yes"/>
      <point x="472" y="492"/>
      <point x="565" y="398"/>
      <point x="565" y="272" type="curve" smooth="yes"/>
      <point x="565" y="149"/>
      <point x="472" y="55"/>
      <point x="350" y="55" type="curve" smooth="yes"/>
      <point x="225" y="55"/>
      <point x="132" y="150"/>
      <point x="132" y="276" type="curve" smooth="yes"/>
      <point x="132" y="397"/>
      <point x="228" y="492"/>
    </contour>
  </outline>
</glyph>
<glyph name="Amacron" format="1">
  <advance width="740"/>
  <unicode hex="0100"/>
  <outline>
    <contour>
      <point x="11" y="0" type="line"/>
      <point x="89" y="0" type="line"/>
      <point x="197" y="249" type="line"/>
      <point x="541" y="249" type="line"/>
      <point x="648" y="0" type="line"/>
      <point x="729" y="0" type="line"/>
      <point x="411" y="739" type="line"/>
      <point x="328" y="739" type="line"/>
    </contour>
    <contour>
      <point x="225" y="316" type="line"/>
      <point x="370" y="655" type="line"/>
      <point x="512" y="316" type="line"/>
    </contour>
    <contour>
      <point x="202" y="889" type="line"/>
      <point x="202" y="825" type="line"/>
      <point x="539" y="825" type="line"/>
      <point x="539" y="889" type="line"/>
    </contour>
  </outline>
</glyph>
<glyph name="amacron" format="1">
  <advance width="683"/>
  <unicode hex="0101"/>
  <outline>
    <contour>
      <point x="620" y="547" type="line"/>
      <point x="546" y="547" type="line"/>
      <point x="546" y="450" type="line"/>
      <point x="492" y="526"/>
      <point x="425" y="560"/>
      <point x="330" y="560" type="curve" smooth="yes"/>
      <point x="166" y="560"/>
      <point x="42" y="436"/>
      <point x="42" y="272" type="curve" smooth="yes"/>
      <point x="42" y="109"/>
      <point x="167" y="-13"/>
      <point x="335" y="-13" type="curve" smooth="yes"/>
      <point x="428" y="-13"/>
      <point x="488" y="18"/>
      <point x="546" y="96" type="curve"/>
      <point x="546" y="0" type="line"/>
      <point x="620" y="0" type="line"/>
    </contour>
    <contour>
      <point x="332" y="492" type="curve" smooth="yes"/>
      <point x="452" y="492"/>
      <point x="546" y="398"/>
      <point x="546" y="276" type="curve" smooth="yes"/>
      <point x="546" y="152"/>
      <point x="454" y="55"/>
      <point x="336" y="55" type="curve" smooth="yes"/>
      <point x="212" y="55"/>
      <point x="117" y="152"/>
      <point x="117" y="277" type="curve" smooth="yes"/>
      <point x="117" y="396"/>
      <point x="213" y="492"/>
    </contour>
    <contour>
      <point x="173" y="707" type="line"/>
      <point x="173" y="643" type="line"/>
      <point x="510" y="643" type="line"/>
      <point x="510" y="707" type="line"/>
    </contour>
  </outline>
</glyph>
<glyph name="Abreve" format="1">
  <advance width="740"/>
  <unicode hex="0102"/>
  <outline>
    <contour>
      <point x="11" y="0" type="line"/>
      <point x="89" y="0" type="line"/>
      <point x="197" y="249" type="line"/>
      <point x="541" y="249" type="line"/>
      <point x="648" y="0" type="line"/>
      <point x="729" y="0" type="line"/>
      <point x="411" y="739" type="line"/>
      <point x="328" y="739" type="line"/>
    </contour>
    <contour>
      <point x="225" y="316" type="line"/>
      <point x="370" y="655" type="line"/>
      <point x="512" y="316" type="line"/>
    </contour>
    <contour>
      <point x="218" y="925" type="line"/>
      <point x="233" y="843"/>
      <point x="281" y="805"/>
      <point x="370" y="805" type="curve" smooth="yes"/>
      <point x="412" y="805"/>
      <point x="447" y="815"/>
      <point x="473" y="834" type="curve" smooth="yes"/>
      <point x="501" y="854"/>
      <point x="513" y="876"/>
      <point x="522" y="925" type="curve"/>
      <point x="458" y="925" type="line"/>
      <point x="454" y="900"/>
      <point x="447" y="889"/>
      <point x="432" y="879" type="curve"/>
      <point x="414" y="869"/>
      <point x="392" y="863"/>
      <point x="370" y="863" type="curve" smooth="yes"/>
      <point x="348" y="863"/>
      <point x="326" y="869"/>
      <point x="308" y="879" type="curve"/>
      <point x="293" y="889"/>
      <point x="286" y="900"/>
      <point x="282" y="925" type="curve"/>
    </contour>
  </outline>
</glyph>
<glyph name="abreve" format="1">
  <advance width="683"/>
  <unicode hex="0103"/>
  <outline>
    <contour>
      <point x="620" y="547" type="line"/>
      <point x="546" y="547" type="line"/>
      <point x="546" y="450" type="line"/>
      <point x="492" y="526"/>
      <point x="425" y="560"/>
      <point x="330" y="560" type="curve" smooth="yes"/>
      <point x="166" y="560"/>
      <point x="42" y="436"/>
      <point x="42" y="272" type="curve" smooth="yes"/>
      <point x="42" y="109"/>
      <point x="167" y="-13"/>
      <point x="335" y="-13" type="curve" smooth="yes"/>
      <point x="428" y="-13"/>
      <point x="488" y="18"/>
      <point x="546" y="96" type="curve"/>
      <point x="546" y="0" type="line"/>
      <point x="620" y="0" type="line"/>
    </contour>
    <contour>
      <point x="332" y="492" type="curve" smooth="yes"/>
      <point x="452" y="492"/>
      <point x="546" y="398"/>
      <point x="546" y="276" type="curve" smooth="yes"/>
      <point x="546" y="152"/>
      <point x="454" y="55"/>
      <point x="336" y="55" type="curve" smooth="yes"/>
      <point x="212" y="55"/>
      <point x="117" y="152"/>
      <point x="117" y="277" type="curve" smooth="yes"/>
      <point x="117" y="396"/>
      <point x="213" y="492"/>
    </contour>
    <contour>
      <point x="189" y="743" type="line"/>
      <point x="204" y="661"/>
      <point x="252" y="623"/>
      <point x="341" y="623" type="curve" smooth="yes"/>
      <point x="383" y="623"/>
      <point x="418" y="633"/>
      <point x="444" y="652" type="curve" smooth="yes"/>
      <point x="472" y="672"/>
      <point x="484" y="694"/>
      <point x="493" y="743" type="curve"/>
      <point x="429" y="743" type="line"/>
      <point x="425" y="718"/>
      <point x="418" y="707"/>
      <point x="403" y="697" type="curve"/>
      <point x="385" y="687"/>
      <point x="363" y="681"/>
      <point x="341" y="681" type="curve" smooth="yes"/>
      <point x="319" y="681"/>
      <point x="297" y="687"/>
      <point x="279" y="697" type="curve"/>
      <point x="264" y="707"/>
      <point x="257" y="718"/>
      <point x="253" y="743" type="curve"/>
    </contour>
  </outline>
</glyph>
<glyph name="Aogonek" format="1">
  <advance width="740"/>
  <unicode hex="0104"/>
  <outline>
    <contour>
      <point x="328" y="739" type="line"/>
      <point x="11" y="0" type="line"/>
      <point x="89" y="0" type="line"/>
      <point x="197" y="249" type="line"/>
      <point x="541" y="249" type="line"/>
      <point x="648" y="0" type="line"/>
      <point x="678" y="0" type="line"/>
      <point x="627" y="-31"/>
      <point x="606" y="-61"/>
      <point x="606" y="-101" type="curve" smooth="yes"/>
      <point x="606" y="-153"/>
      <point x="649" y="-191"/>
      <point x="709" y="-191" type="curve" smooth="yes"/>
      <point x="725" y="-191"/>
      <point x="741" y="-188"/>
      <point x="760" y="-182" type="curve"/>
      <point x="760" y="-136" type="line"/>
      <point x="745" y="-143"/>
      <point x="731" y="-146"/>
      <point x="715" y="-146" type="curve" smooth="yes"/>
      <point x="681" y="-146"/>
      <point x="656" y="-125"/>
      <point x="656" y="-97" type="curve" smooth="yes"/>
      <point x="656" y="-70"/>
      <point x="686" y="-31"/>
      <point x="729" y="0" type="curve"/>
      <point x="412" y="739" type="line"/>
    </contour>
    <contour>
      <point x="225" y="316" type="line"/>
      <point x="370" y="655" type="line"/>
      <point x="512" y="316" type="line"/>
    </contour>
  </outline>
</glyph>
<glyph name="aogonek" format="1">
  <advance width="683"/>
  <unicode hex="0105"/>
  <outline>
    <contour>
      <point x="620" y="547" type="line"/>
      <point x="546" y="547" type="line"/>
      <point x="546" y="450" type="line"/>
      <point x="492" y="526"/>
      <point x="425" y="560"/>
      <point x="330" y="560" type="curve" smooth="yes"/>
      <point x="166" y="560"/>
      <point x="42" y="436"/>
      <point x="42" y="272" type="curve" smooth="yes"/>
      <point x="42" y="109"/>
      <point x="167" y="-13"/>
      <point x="335" y="-13" type="curve" smooth="yes"/>
      <point x="428" y="-13"/>
      <point x="488" y="18"/>
      <point x="546" y="96" type="curve"/>
      <point x="546" y="0" type="line"/>
      <point x="568" y="0" type="line"/>
      <point x="517" y="-31"/>
      <point x="497" y="-60"/>
      <point x="497" y="-101" type="curve" smooth="yes"/>
      <point x="497" y="-153"/>
      <point x="540" y="-191"/>
      <point x="600" y="-191" type="curve" smooth="yes"/>
      <point x="616" y="-191"/>
      <point x="632" y="-188"/>
      <point x="651" y="-182" type="curve"/>
      <point x="651" y="-136" type="line"/>
      <point x="636" y="-143"/>
      <point x="622" y="-146"/>
      <point x="606" y="-146" type="curve" smooth="yes"/>
      <point x="572" y="-146"/>
      <point x="547" y="-126"/>
      <point x="547" y="-97" type="curve" smooth="yes"/>
      <point x="547" y="-78"/>
      <point x="555" y="-63"/>
      <point x="579" y="-37" type="curve" smooth="yes"/>
      <point x="594" y="-20"/>
      <point x="605" y="-11"/>
      <point x="620" y="0" type="curve"/>
    </contour>
    <contour>
      <point x="332" y="492" type="curve" smooth="yes"/>
      <point x="452" y="492"/>
      <point x="546" y="398"/>
      <point x="546" y="276" type="curve" smooth="yes"/>
      <point x="546" y="152"/>
      <point x="454" y="55"/>
      <point x="336" y="55" type="curve" smooth="yes"/>
      <point x="212" y="55"/>
      <point x="117" y="152"/>
      <point x="117" y="277" type="curve" smooth="yes"/>
      <point x="117" y="396"/>
      <point x="213" y="492"/>
    </contour>
  </outline>
</glyph>
<glyph name="Ccaron" format="1">
  <advance width="813"/>
  <unicode hex="010C"/>
  <outline>
    <contour>
      <point x="688" y="194" type="line"/>
      <point x="657" y="155"/>
      <point x="639" y="135"/>
      <point x="614" y="116" type="curve" smooth="yes"/>
      <point x="565" y="77"/>
      <point x="498" y="55"/>
      <point x="431" y="55" type="curve" smooth="yes"/>
      <point x="260" y="55"/>
      <point x="119" y="197"/>
      <point x="119" y="370" type="curve" smooth="yes"/>
      <point x="119" y="548"/>
      <point x="254" y="684"/>
      <point x="430" y="684" type="curve" smooth="yes"/>
      <point x="494" y="684"/>
      <point x="554" y="667"/>
      <point x="603" y="634" type="curve" smooth="yes"/>
      <point x="636" y="613"/>
      <point x="656" y="591"/>
      <point x="684" y="547" type="curve"/>
      <point x="767" y="547" type="line"/>
      <point x="710" y="674"/>
      <point x="580" y="752"/>
      <point x="427" y="752" type="curve" smooth="yes"/>
      <point x="207" y="752"/>
      <point x="44" y="588"/>
      <point x="44" y="367" type="curve" smooth="yes"/>
      <point x="44" y="151"/>
      <point x="211" y="-13"/>
      <point x="432" y="-13" type="curve" smooth="yes"/>
      <point x="582" y="-13"/>
      <point x="696" y="57"/>
      <point x="770" y="194" type="curve"/>
    </contour>
    <contour>
      <point x="604" y="931" type="line"/>
      <point x="513" y="931" type="line"/>
      <point x="425" y="857" type="line"/>
      <point x="339" y="931" type="line"/>
      <point x="250" y="931" type="line"/>
      <point x="393" y="805" type="line"/>
      <point x="459" y="805" type="line"/>
    </contour>
  </outline>
</glyph>
<glyph name="dcaron" format="1">
  <advance width="725"/>
  <unicode hex="010F"/>
  <outline>
    <contour>
      <point x="622" y="739" type="line"/>
      <point x="548" y="739" type="line"/>
      <point x="548" y="460" type="line"/>
      <point x="494" y="525"/>
      <point x="419" y="560"/>
      <point x="333" y="560" type="curve" smooth="yes"/>
      <point x="168" y="560"/>
      <point x="42" y="436"/>
      <point x="42" y="273" type="curve" smooth="yes"/>
      <point x="42" y="111"/>
      <point x="171" y="-13"/>
      <point x="340" y="-13" type="curve" smooth="yes"/>
      <point x="431" y="-13"/>
      <point x="493" y="20"/>
      <point x="548" y="99" type="curve"/>
      <point x="548" y="0" type="line"/>
      <point x="622" y="0" type="line"/>
    </contour>
    <contour>
      <point x="331" y="492" type="curve" smooth="yes"/>
      <point x="452" y="492"/>
      <point x="551" y="395"/>
      <point x="551" y="275" type="curve" smooth="yes"/>
      <point x="551" y="155"/>
      <point x="455" y="55"/>
      <point x="338" y="55" type="curve" smooth="yes"/>
      <point x="213" y="55"/>
      <point x="117" y="151"/>
      <point x="117" y="276" type="curve" smooth="yes"/>
      <point x="117" y="396"/>
      <point x="212" y="492"/>
    </contour>
    <contour>
      <point x="643" y="547" type="line"/>
      <point x="717" y="547" type="line"/>
      <point x="765" y="739" type="line"/>
      <point x="691" y="739" type="line"/>
    </contour>
  </outline>
</glyph>
<glyph name="Emacron" format="1">
  <advance width="536"/>
  <unicode hex="0112"/>
  <outline>
    <contour>
      <point x="76" y="0" type="line"/>
      <point x="480" y="0" type="line"/>
      <point x="480" y="67" type="line"/>
      <point x="150" y="67" type="line"/>
      <point x="150" y="340" type="line"/>
      <point x="469" y="340" type="line"/>
      <point x="469" y="407" type="line"/>
      <point x="150" y="407" type="line"/>
      <point x="150" y="672" type="line"/>
      <point x="480" y="672" type="line"/>
      <point x="480" y="739" type="line"/>
      <point x="76" y="739" type="line"/>
    </contour>
    <contour>
      <point x="100" y="889" type="line"/>
      <point x="100" y="825" type="line"/>
      <point x="437" y="825" type="line"/>
      <point x="437" y="889" type="line"/>
    </contour>
  </outline>
</glyph>
<glyph name="Edotaccent" format="1">
  <advance width="536"/>
  <unicode hex="0116"/>
  <outline>
    <contour>
      <point x="76" y="0" type="line"/>
      <point x="480" y="0" type="line"/>
      <point x="480" y="67" type="line"/>
      <point x="150" y="67" type="line"/>
      <point x="150" y="340" type="line"/>
      <point x="469" y="340" type="line"/>
      <point x="469" y="407" type="line"/>
      <point x="150" y="407" type="line"/>
      <point x="150" y="672" type="line"/>
      <point x="480" y="672" type="line"/>
      <point x="480" y="739" type="line"/>
      <point x="76" y="739" type="line"/>
    </contour>
    <contour>
      <point x="251" y="931" type="line"/>
      <point x="251" y="805" type="line"/>
      <point x="325" y="805" type="line"/>
      <point x="325" y="931" type="line"/>
    </contour>
  </outline>
</glyph>
<glyph name="Eogonek" format="1">
  <advance width="536"/>
  <unicode hex="0118"/>
  <outline>
    <contour>
      <point x="76" y="739" type="line"/>
      <point x="76" y="0" type="line"/>
      <point x="428" y="0" type="line"/>
      <point x="377" y="-31"/>
      <point x="357" y="-60"/>
      <point x="357" y="-101" type="curve" smooth="yes"/>
      <point x="357" y="-153"/>
      <point x="400" y="-191"/>
      <point x="460" y="-191" type="curve" smooth="yes"/>
      <point x="476" y="-191"/>
      <point x="492" y="-188"/>
      <point x="511" y="-182" type="curve"/>
      <point x="511" y="-136" type="line"/>
      <point x="496" y="-143"/>
      <point x="482" y="-146"/>
      <point x="466" y="-146" type="curve" smooth="yes"/>
      <point x="432" y="-146"/>
      <point x="407" y="-126"/>
      <point x="407" y="-97" type="curve" smooth="yes"/>
      <point x="407" y="-70"/>
      <point x="436" y="-32"/>
      <point x="480" y="0" type="curve"/>
      <point x="480" y="67" type="line"/>
      <point x="150" y="67" type="line"/>
      <point x="150" y="340" type="line"/>
      <point x="469" y="340" type="line"/>
      <point x="469" y="407" type="line"/>
      <point x="150" y="407" type="line"/>
      <point x="150" y="672" type="line"/>
      <point x="480" y="672" type="line"/>
      <point x="480" y="739" type="line"/>
    </contour>
  </outline>
</glyph>
<glyph name="eogonek" format="1">
  <advance width="650"/>
  <unicode hex="0119"/>
  <outline>
    <contour>
      <point x="611" y="249" type="line"/>
      <point x="611" y="324"/>
      <point x="601" y="370"/>
      <point x="574" y="418" type="curve" smooth="yes"/>
      <point x="525" y="506"/>
      <point x="430" y="560"/>
      <point x="326" y="560" type="curve" smooth="yes"/>
      <point x="167" y="560"/>
      <point x="42" y="435"/>
      <point x="42" y="276" type="curve" smooth="yes"/>
      <point x="42" y="114"/>
      <point x="169" y="-13"/>
      <point x="331" y="-13" type="curve" smooth="yes"/>
      <point x="354" y="-13"/>
      <point x="373" y="-11"/>
      <point x="398" y="-5" type="curve"/>
      <point x="356" y="-32"/>
      <point x="335" y="-64"/>
      <point x="335" y="-101" type="curve" smooth="yes"/>
      <point x="335" y="-153"/>
      <point x="378" y="-191"/>
      <point x="438" y="-191" type="curve" smooth="yes"/>
      <point x="454" y="-191"/>
      <point x="470" y="-188"/>
      <point x="489" y="-182" type="curve"/>
      <point x="489" y="-136" type="line"/>
      <point x="474" y="-143"/>
      <point x="460" y="-146"/>
      <point x="444" y="-146" type="curve" smooth="yes"/>
      <point x="410" y="-146"/>
      <point x="385" y="-125"/>
      <point x="385" y="-98" type="curve" smooth="yes"/>
      <point x="385" y="-78"/>
      <point x="395" y="-59"/>
      <point x="417" y="-37" type="curve" smooth="yes"/>
      <point x="570" y="110"/>
      <point x="574" y="115"/>
      <point x="598" y="180" type="curve"/>
      <point x="521" y="180" type="line"/>
      <point x="489" y="105"/>
      <point x="413" y="55"/>
      <point x="329" y="55" type="curve" smooth="yes"/>
      <point x="217" y="55"/>
      <point x="123" y="141"/>
      <point x="116" y="249" type="curve"/>
    </contour>
    <contour>
      <point x="118" y="316" type="line"/>
      <point x="138" y="421"/>
      <point x="221" y="492"/>
      <point x="325" y="492" type="curve" smooth="yes"/>
      <point x="431" y="492"/>
      <point x="512" y="425"/>
      <point x="537" y="316" type="curve"/>
    </contour>
  </outline>
</glyph>
<glyph name="Ecaron" format="1">
  <advance width="536"/>
  <unicode hex="011A"/>
  <outline>
    <contour>
      <point x="76" y="0" type="line"/>
      <point x="480" y="0" type="line"/>
      <point x="480" y="67" type="line"/>
      <point x="150" y="67" type="line"/>
      <point x="150" y="340" type="line"/>
      <point x="469" y="340" type="line"/>
      <point x="469" y="407" type="line"/>
      <point x="150" y="407" type="line"/>
      <point x="150" y="672" type="line"/>
      <point x="480" y="672" type="line"/>
      <point x="480" y="739" type="line"/>
      <point x="76" y="739" type="line"/>
    </contour>
    <contour>
      <point x="465" y="931" type="line"/>
      <point x="374" y="931" type="line"/>
      <point x="286" y="857" type="line"/>
      <point x="200" y="931" type="line"/>
      <point x="111" y="931" type="line"/>
      <point x="254" y="805" type="line"/>
      <point x="320" y="805" type="line"/>
    </contour>
  </outline>
</glyph>
<glyph name="Gbreve" format="1">
  <advance width="872"/>
  <unicode hex="011E"/>
  <outline>
    <contour>
      <point x="329" y="341" type="line"/>
      <point x="329" y="274" type="line"/>
      <point x="742" y="274" type="line"/>
      <point x="731" y="226"/>
      <point x="706" y="185"/>
      <point x="664" y="143" type="curve" smooth="yes"/>
      <point x="607" y="86"/>
      <point x="529" y="55"/>
      <point x="443" y="55" type="curve" smooth="yes"/>
      <point x="262" y="55"/>
      <point x="119" y="193"/>
      <point x="119" y="369" type="curve" smooth="yes"/>
      <point x="119" y="547"/>
      <point x="260" y="684"/>
      <point x="442" y="684" type="curve" smooth="yes"/>
      <point x="556" y="684"/>
      <point x="652" y="632"/>
      <point x="703" y="542" type="curve"/>
      <point x="786" y="542" type="line"/>
      <point x="737" y="668"/>
      <point x="597" y="752"/>
      <point x="436" y="752" type="curve" smooth="yes"/>
      <point x="216" y="752"/>
      <point x="44" y="585"/>
      <point x="44" y="371" type="curve" smooth="yes"/>
      <point x="44" y="155"/>
      <point x="220" y="-13"/>
      <point x="446" y="-13" type="curve" smooth="yes"/>
      <point x="563" y="-13"/>
      <point x="663" y="31"/>
      <point x="734" y="112" type="curve" smooth="yes"/>
      <point x="794" y="181"/>
      <point x="826" y="258"/>
      <point x="831" y="341" type="curve"/>
    </contour>
    <contour>
      <point x="284" y="925" type="line"/>
      <point x="299" y="843"/>
      <point x="347" y="805"/>
      <point x="436" y="805" type="curve" smooth="yes"/>
      <point x="478" y="805"/>
      <point x="513" y="815"/>
      <point x="539" y="834" type="curve" smooth="yes"/>
      <point x="567" y="854"/>
      <point x="579" y="876"/>
      <point x="588" y="925" type="curve"/>
      <point x="524" y="925" type="line"/>
      <point x="520" y="900"/>
      <point x="513" y="889"/>
      <point x="498" y="879" type="curve"/>
      <point x="480" y="869"/>
      <point x="458" y="863"/>
      <point x="436" y="863" type="curve" smooth="yes"/>
      <point x="414" y="863"/>
      <point x="392" y="869"/>
      <point x="374" y="879" type="curve"/>
      <point x="359" y="889"/>
      <point x="352" y="900"/>
      <point x="348" y="925" type="curve"/>
    </contour>
  </outline>
</glyph>
<glyph name="Gcommaaccent" format="1">
  <advance width="872"/>
  <unicode hex="0122"/>
  <outline>
    <contour>
      <point x="329" y="341" type="line"/>
      <point x="329" y="274" type="line"/>
      <point x="742" y="274" type="line"/>
      <point x="731" y="226"/>
      <point x="706" y="185"/>
      <point x="664" y="143" type="curve" smooth="yes"/>
      <point x="607" y="86"/>
      <point x="529" y="55"/>
      <point x="443" y="55" type="curve" smooth="yes"/>
      <point x="262" y="55"/>
      <point x="119" y="193"/>
      <point x="119" y="369" type="curve" smooth="yes"/>
      <point x="119" y="547"/>
      <point x="260" y="684"/>
      <point x="442" y="684" type="curve" smooth="yes"/>
      <point x="556" y="684"/>
      <point x="652" y="632"/>
      <point x="703" y="542" type="curve"/>
      <point x="786" y="542" type="line"/>
      <point x="737" y="668"/>
      <point x="597" y="752"/>
      <point x="436" y="752" type="curve" smooth="yes"/>
      <point x="216" y="752"/>
      <point x="44" y="585"/>
      <point x="44" y="371" type="curve" smooth="yes"/>
      <point x="44" y="155"/>
      <point x="220" y="-13"/>
      <point x="446" y="-13" type="curve" smooth="yes"/>
      <point x="563" y="-13"/>
      <point x="663" y="31"/>
      <point x="734" y="112" type="curve" smooth="yes"/>
      <point x="794" y="181"/>
      <point x="826" y="258"/>
      <point x="831" y="341" type="curve"/>
    </contour>
    <contour>
      <point x="362" y="-225" type="line"/>
      <point x="436" y="-225" type="line"/>
      <point x="484" y="-53" type="line"/>
      <point x="410" y="-53" type="line"/>
    </contour>
  </outline>
</glyph>
<glyph name="gcommaaccent" format="1">
  <advance width="673"/>
  <unicode hex="0123"/>
  <outline>
    <contour>
      <point x="610" y="547" type="line"/>
      <point x="536" y="547" type="line"/>
      <point x="536" y="450" type="line"/>
      <point x="481" y="525"/>
      <point x="414" y="560"/>
      <point x="322" y="560" type="curve" smooth="yes"/>
      <point x="162" y="560"/>
      <point x="42" y="436"/>
      <point x="42" y="271" type="curve" smooth="yes"/>
      <point x="42" y="111"/>
      <point x="167" y="-13"/>
      <point x="327" y="-13" type="curve" smooth="yes"/>
      <point x="425" y="-13"/>
      <point x="493" y="27"/>
      <point x="536" y="111" type="curve"/>
      <point x="536" y="74" type="line" smooth="yes"/>
      <point x="536" y="20"/>
      <point x="530" y="-14"/>
      <point x="514" y="-48" type="curve" smooth="yes"/>
      <point x="485" y="-111"/>
      <point x="419" y="-147"/>
      <point x="335" y="-147" type="curve" smooth="yes"/>
      <point x="274" y="-147"/>
      <point x="227" y="-129"/>
      <point x="188" y="-92" type="curve" smooth="yes"/>
      <point x="169" y="-75"/>
      <point x="158" y="-59"/>
      <point x="134" y="-17" type="curve"/>
      <point x="62" y="-17" type="line"/>
      <point x="102" y="-145"/>
      <point x="199" y="-215"/>
      <point x="337" y="-215" type="curve" smooth="yes"/>
      <point x="432" y="-215"/>
      <point x="512" y="-179"/>
      <point x="559" y="-117" type="curve" smooth="yes"/>
      <point x="596" y="-67"/>
      <point x="610" y="-9"/>
      <point x="610" y="98" type="curve" smooth="yes"/>
    </contour>
    <contour>
      <point x="326" y="492" type="curve" smooth="yes"/>
      <point x="444" y="492"/>
      <point x="536" y="399"/>
      <point x="536" y="280" type="curve" smooth="yes"/>
      <point x="536" y="152"/>
      <point x="446" y="55"/>
      <point x="327" y="55" type="curve" smooth="yes"/>
      <point x="207" y="55"/>
      <point x="117" y="150"/>
      <point x="117" y="277" type="curve" smooth="yes"/>
      <point x="117" y="402"/>
      <point x="205" y="492"/>
    </contour>
    <contour>
      <point x="384" y="790" type="line"/>
      <point x="310" y="790" type="line"/>
      <point x="262" y="618" type="line"/>
      <point x="336" y="618" type="line"/>
    </contour>
  </outline>
</glyph>
<glyph name="Imacron" format="1">
  <advance width="226"/>
  <unicode hex="012A"/>
  <outline>
    <contour>
      <point x="76" y="0" type="line"/>
      <point x="150" y="0" type="line"/>
      <point x="150" y="739" type="line"/>
      <point x="76" y="739" type="line"/>
    </contour>
    <contour>
      <point x="-56" y="889" type="line"/>
      <point x="-56" y="825" type="line"/>
      <point x="281" y="825" type="line"/>
      <point x="281" y="889" type="line"/>
    </contour>
  </outline>
</glyph>
<glyph name="imacron" format="1">
  <advance width="200"/>
  <unicode hex="012B"/>
  <outline>
    <contour>
      <point x="63" y="0" type="line"/>
      <point x="137" y="0" type="line"/>
      <point x="137" y="547" type="line"/>
      <point x="63" y="547" type="line"/>
    </contour>
    <contour>
      <point x="-69" y="707" type="line"/>
      <point x="-69" y="643" type="line"/>
      <point x="268" y="643" type="line"/>
      <point x="268" y="707" type="line"/>
    </contour>
  </outline>
</glyph>
<glyph name="Iogonek" format="1">
  <advance width="226"/>
  <unicode hex="012E"/>
  <outline>
    <contour>
      <point x="150" y="739" type="line"/>
      <point x="76" y="739" type="line"/>
      <point x="76" y="0" type="line"/>
      <point x="98" y="0" type="line"/>
      <point x="47" y="-31"/>
      <point x="27" y="-60"/>
      <point x="27" y="-101" type="curve" smooth="yes"/>
      <point x="27" y="-153"/>
      <point x="70" y="-191"/>
      <point x="130" y="-191" type="curve" smooth="yes"/>
      <point x="146" y="-191"/>
      <point x="162" y="-188"/>
      <point x="181" y="-182" type="curve"/>
      <point x="181" y="-136" type="line"/>
      <point x="166" y="-143"/>
      <point x="152" y="-146"/>
      <point x="136" y="-146" type="curve" smooth="yes"/>
      <point x="102" y="-146"/>
      <point x="77" y="-126"/>
      <point x="77" y="-97" type="curve" smooth="yes"/>
      <point x="77" y="-78"/>
      <point x="85" y="-63"/>
      <point x="109" y="-37" type="curve" smooth="yes"/>
      <point x="124" y="-20"/>
      <point x="135" y="-11"/>
      <point x="150" y="0" type="curve"/>
    </contour>
  </outline>
</glyph>
<glyph name="iogonek" format="1">
  <advance width="200"/>
  <unicode hex="012F"/>
  <outline>
    <contour>
      <point x="137" y="547" type="line"/>
      <point x="63" y="547" type="line"/>
      <point x="63" y="0" type="line"/>
      <point x="85" y="0" type="line"/>
      <point x="34" y="-31"/>
      <point x="14" y="-60"/>
      <point x="14" y="-101" type="curve" smooth="yes"/>
      <point x="14" y="-153"/>
      <point x="57" y="-191"/>
      <point x="117" y="-191" type="curve" smooth="yes"/>
      <point x="133" y="-191"/>
      <point x="149" y="-188"/>
      <point x="168" y="-182" type="curve"/>
      <point x="168" y="-136" type="line"/>
      <point x="153" y="-143"/>
      <point x="139" y="-146"/>
      <point x="123" y="-146" type="curve" smooth="yes"/>
      <point x="89" y="-146"/>
      <point x="64" y="-126"/>
      <point x="64" y="-97" type="curve" smooth="yes"/>
      <point x="64" y="-78"/>
      <point x="72" y="-63"/>
      <point x="96" y="-37" type="curve" smooth="yes"/>
      <point x="111" y="-20"/>
      <point x="122" y="-11"/>
      <point x="137" y="0" type="curve"/>
    </contour>
    <contour>
      <point x="63" y="613" type="line"/>
      <point x="137" y="613" type="line"/>
      <point x="137" y="739" type="line"/>
      <point x="63" y="739" type="line"/>
    </contour>
  </outline>
</glyph>
<glyph name="IJ" format="1">
  <advance width="686"/>
  <unicode hex="0132"/>
  <outline>
    <contour>
      <point x="606" y="739" type="line"/>
      <point x="532" y="739" type="line"/>
      <point x="532" y="231" type="line" smooth="yes"/>
      <point x="532" y="114"/>
      <point x="490" y="54"/>
      <point x="410" y="54" type="curve" smooth="yes"/>
      <point x="337" y="54"/>
      <point x="289" y="100"/>
      <point x="284" y="175" type="curve"/>
      <point x="211" y="175" type="line"/>
      <point x="217" y="57"/>
      <point x="291" y="-14"/>
      <point x="409" y="-14" type="curve" smooth="yes"/>
      <point x="487" y="-14"/>
      <point x="546" y="19"/>
      <point x="577" y="82" type="curve" smooth="yes"/>
      <point x="594" y="114"/>
      <point x="606" y="177"/>
      <point x="606" y="231" type="curve" smooth="yes"/>
    </contour>
    <contour>
      <point x="76" y="0" type="line"/>
      <point x="150" y="0" type="line"/>
      <point x="150" y="739" type="line"/>
      <point x="76" y="739" type="line"/>
    </contour>
  </outline>
</glyph>
<glyph name="ij" format="1">
  <advance width="330"/>
  <unicode hex="0133"/>
  <outline>
    <contour>
      <point x="266" y="547" type="line"/>
      <point x="192" y="547" type="line"/>
      <point x="192" y="38" type="line" smooth="yes"/>
      <point x="192" y="-76"/>
      <point x="164" y="-116"/>
      <point x="81" y="-121" type="curve"/>
      <point x="81" y="-192" type="line"/>
      <point x="129" y="-190"/>
      <point x="163" y="-179"/>
      <point x="196" y="-155" type="curve" smooth="yes"/>
      <point x="249" y="-115"/>
      <point x="266" y="-69"/>
      <point x="266" y="38" type="curve" smooth="yes"/>
    </contour>
    <contour>
      <point x="192" y="613" type="line"/>
      <point x="266" y="613" type="line"/>
      <point x="266" y="739" type="line"/>
      <point x="192" y="739" type="line"/>
    </contour>
    <contour>
      <point x="63" y="0" type="line"/>
      <point x="137" y="0" type="line"/>
      <point x="137" y="547" type="line"/>
      <point x="63" y="547" type="line"/>
    </contour>
    <contour>
      <point x="63" y="613" type="line"/>
      <point x="137" y="613" type="line"/>
      <point x="137" y="739" type="line"/>
      <point x="63" y="739" type="line"/>
    </contour>
  </outline>
</glyph>
<glyph name="jcircumflex" format="1">
  <advance width="203"/>
  <unicode hex="0135"/>
  <outline>
    <contour>
      <point x="140" y="547" type="line"/>
      <point x="66" y="547" type="line"/>
      <point x="66" y="38" type="line" smooth="yes"/>
      <point x="66" y="-76"/>
      <point x="38" y="-116"/>
      <point x="-45" y="-121" type="curve"/>
      <point x="-45" y="-192" type="line"/>
      <point x="3" y="-190"/>
      <point x="37" y="-179"/>
      <point x="70" y="-155" type="curve" smooth="yes"/>
      <point x="123" y="-115"/>
      <point x="140" y="-69"/>
      <point x="140" y="38" type="curve" smooth="yes"/>
    </contour>
    <contour>
      <point x="-74" y="651" type="line"/>
      <point x="17" y="651" type="line"/>
      <point x="105" y="725" type="line"/>
      <point x="191" y="651" type="line"/>
      <point x="280" y="651" type="line"/>
      <point x="137" y="777" type="line"/>
      <point x="71" y="777" type="line"/>
    </contour>
  </outline>
</glyph>
<glyph name="Kcommaaccent" format="1">
  <advance width="591"/>
  <unicode hex="0136"/>
  <outline>
    <contour>
      <point x="76" y="0" type="line"/>
      <point x="150" y="0" type="line"/>
      <point x="150" y="202" type="line"/>
      <point x="246" y="320" type="line"/>
      <point x="492" y="0" type="line"/>
      <point x="585" y="0" type="line"/>
      <point x="293" y="379" type="line"/>
      <point x="585" y="739" type="line"/>
      <point x="492" y="739" type="line"/>
      <point x="150" y="314" type="line"/>
      <point x="150" y="739" type="line"/>
      <point x="76" y="739" type="line"/>
    </contour>
    <contour>
      <point x="221" y="-225" type="line"/>
      <point x="295" y="-225" type="line"/>
      <point x="343" y="-53" type="line"/>
      <point x="269" y="-53" type="line"/>
    </contour>
  </outline>
</glyph>
<glyph name="kcommaaccent" format="1">
  <advance width="502"/>
  <unicode hex="0137"/>
  <outline>
    <contour>
      <point x="63" y="0" type="line"/>
      <point x="137" y="0" type="line"/>
      <point x="137" y="113" type="line"/>
      <point x="223" y="219" type="line"/>
      <point x="405" y="0" type="line"/>
      <point x="497" y="0" type="line"/>
      <point x="270" y="272" type="line"/>
      <point x="483" y="547" type="line"/>
      <point x="392" y="547" type="line"/>
      <point x="137" y="215" type="line"/>
      <point x="137" y="739" type="line"/>
      <point x="63" y="739" type="line"/>
    </contour>
    <contour>
      <point x="177" y="-225" type="line"/>
      <point x="251" y="-225" type="line"/>
      <point x="299" y="-53" type="line"/>
      <point x="225" y="-53" type="line"/>
    </contour>
  </outline>
</glyph>
<glyph name="Lacute" format="1">
  <advance width="462"/>
  <unicode hex="0139"/>
  <outline>
    <contour>
      <point x="76" y="0" type="line"/>
      <point x="456" y="0" type="line"/>
      <point x="456" y="67" type="line"/>
      <point x="150" y="67" type="line"/>
      <point x="150" y="739" type="line"/>
      <point x="76" y="739" type="line"/>
    </contour>
    <contour>
      <point x="118" y="848" type="line"/>
      <point x="152" y="792" type="line"/>
      <point x="345" y="906" type="line"/>
      <point x="311" y="964" type="line"/>
    </contour>
  </outline>
</glyph>
<glyph name="lacute" format="1">
  <advance width="200"/>
  <unicode hex="013A"/>
  <outline>
    <contour>
      <point x="63" y="0" type="line"/>
      <point x="137" y="0" type="line"/>
      <point x="137" y="739" type="line"/>
      <point x="63" y="739" type="line"/>
    </contour>
    <contour>
      <point x="-14" y="848" type="line"/>
      <point x="20" y="792" type="line"/>
      <point x="213" y="906" type="line"/>
      <point x="179" y="964" type="line"/>
    </contour>
  </outline>
</glyph>
<glyph name="Lcommaaccent" format="1">
  <advance width="462"/>
  <unicode hex="013B"/>
  <outline>
    <contour>
      <point x="76" y="0" type="line"/>
      <point x="456" y="0" type="line"/>
      <point x="456" y="67" type="line"/>
      <point x="150" y="67" type="line"/>
      <point x="150" y="739" type="line"/>
      <point x="76" y="739" type="line"/>
    </contour>
    <contour>
      <point x="157" y="-225" type="line"/>
      <point x="231" y="-225" type="line"/>
      <point x="279" y="-53" type="line"/>
      <point x="205" y="-53" type="line"/>
    </contour>
  </outline>
</glyph>
<glyph name="lcommaaccent" format="1">
  <advance width="200"/>
  <unicode hex="013C"/>
  <outline>
    <contour>
      <point x="63" y="0" type="line"/>
      <point x="137" y="0" type="line"/>
      <point x="137" y="739" type="line"/>
      <point x="63" y="739" type="line"/>
    </contour>
    <contour>
      <point x="26" y="-225" type="line"/>
      <point x="100" y="-225" type="line"/>
      <point x="148" y="-53" type="line"/>
      <point x="74" y="-53" type="line"/>
    </contour>
  </outline>
</glyph>
<glyph name="Lcaron" format="1">
  <advance width="462"/>
  <unicode hex="013D"/>
  <outline>
    <contour>
      <point x="76" y="0" type="line"/>
      <point x="456" y="0" type="line"/>
      <point x="456" y="67" type="line"/>
      <point x="150" y="67" type="line"/>
      <point x="150" y="739" type="line"/>
      <point x="76" y="739" type="line"/>
    </contour>
    <contour>
      <point x="273" y="547" type="line"/>
      <point x="347" y="547" type="line"/>
      <point x="395" y="739" type="line"/>
      <point x="321" y="739" type="line"/>
    </contour>
  </outline>
</glyph>
<glyph name="lcaron" format="1">
  <advance width="245"/>
  <unicode hex="013E"/>
  <outline>
    <contour>
      <point x="63" y="0" type="line"/>
      <point x="137" y="0" type="line"/>
      <point x="137" y="739" type="line"/>
      <point x="63" y="739" type="line"/>
    </contour>
    <contour>
      <point x="163" y="547" type="line"/>
      <point x="237" y="547" type="line"/>
      <point x="285" y="739" type="line"/>
      <point x="211" y="739" type="line"/>
    </contour>
  </outline>
</glyph>
<glyph name="ldot" format="1">
  <advance width="320"/>
  <unicode hex="0140"/>
  <outline>
    <contour>
      <point x="211" y="250" type="line"/>
      <point x="285" y="250" type="line"/>
      <point x="285" y="376" type="line"/>
      <point x="211" y="376" type="line"/>
    </contour>
    <contour>
      <point x="63" y="0" type="line"/>
      <point x="137" y="0" type="line"/>
      <point x="137" y="739" type="line"/>
      <point x="63" y="739" type="line"/>
    </contour>
  </outline>
</glyph>
<glyph name="Lslash" format="1">
  <advance width="517"/>
  <unicode hex="0141"/>
  <outline>
    <contour>
      <point x="122" y="0" type="line"/>
      <point x="502" y="0" type="line"/>
      <point x="502" y="67" type="line"/>
      <point x="196" y="67" type="line"/>
      <point x="196" y="353" type="line"/>
      <point x="356" y="485" type="line"/>
      <point x="356" y="569" type="line"/>
      <point x="196" y="436" type="line"/>
      <point x="196" y="739" type="line"/>
      <point x="122" y="739" type="line"/>
      <point x="122" y="387" type="line"/>
      <point x="26" y="307" type="line"/>
      <point x="26" y="224" type="line"/>
      <point x="122" y="303" type="line"/>
    </contour>
  </outline>
</glyph>
<glyph name="lslash" format="1">
  <advance width="300"/>
  <unicode hex="0142"/>
  <outline>
    <contour>
      <point x="114" y="0" type="line"/>
      <point x="188" y="0" type="line"/>
      <point x="188" y="379" type="line"/>
      <point x="270" y="433" type="line"/>
      <point x="270" y="506" type="line"/>
      <point x="188" y="451" type="line"/>
      <point x="188" y="739" type="line"/>
      <point x="114" y="739" type="line"/>
      <point x="114" y="418" type="line"/>
      <point x="36" y="365" type="line"/>
      <point x="36" y="293" type="line"/>
      <point x="114" y="346" type="line"/>
    </contour>
  </outline>
</glyph>
<glyph name="nacute" format="1">
  <advance width="610"/>
  <unicode hex="0144"/>
  <outline>
    <contour>
      <point x="63" y="0" type="line"/>
      <point x="137" y="0" type="line"/>
      <point x="137" y="301" type="line" smooth="yes"/>
      <point x="137" y="362"/>
      <point x="145" y="394"/>
      <point x="166" y="425" type="curve" smooth="yes"/>
      <point x="195" y="467"/>
      <point x="246" y="492"/>
      <point x="304" y="492" type="curve" smooth="yes"/>
      <point x="358" y="492"/>
      <point x="407" y="470"/>
      <point x="437" y="433" type="curve" smooth="yes"/>
      <point x="463" y="399"/>
      <point x="473" y="359"/>
      <point x="473" y="287" type="curve" smooth="yes"/>
      <point x="473" y="0" type="line"/>
      <point x="547" y="0" type="line"/>
      <point x="547" y="287" type="line" smooth="yes"/>
      <point x="547" y="379"/>
      <point x="534" y="428"/>
      <point x="499" y="475" type="curve" smooth="yes"/>
      <point x="456" y="529"/>
      <point x="390" y="560"/>
      <point x="313" y="560" type="curve" smooth="yes"/>
      <point x="241" y="560"/>
      <point x="183" y="532"/>
      <point x="137" y="476" type="curve"/>
      <point x="137" y="547" type="line"/>
      <point x="63" y="547" type="line"/>
    </contour>
    <contour>
      <point x="192" y="666" type="line"/>
      <point x="226" y="610" type="line"/>
      <point x="419" y="724" type="line"/>
      <point x="385" y="782" type="line"/>
    </contour>
  </outline>
</glyph>
<glyph name="Ncaron" format="1">
  <advance width="740"/>
  <unicode hex="0147"/>
  <outline>
    <contour>
      <point x="76" y="0" type="line"/>
      <point x="150" y="0" type="line"/>
      <point x="150" y="650" type="line"/>
      <point x="590" y="0" type="line"/>
      <point x="664" y="0" type="line"/>
      <point x="664" y="739" type="line"/>
      <point x="590" y="739" type="line"/>
      <point x="590" y="126" type="line"/>
      <point x="176" y="739" type="line"/>
      <point x="76" y="739" type="line"/>
    </contour>
    <contour>
      <point x="547" y="931" type="line"/>
      <point x="456" y="931" type="line"/>
      <point x="368" y="857" type="line"/>
      <point x="282" y="931" type="line"/>
      <point x="193" y="931" type="line"/>
      <point x="336" y="805" type="line"/>
      <point x="402" y="805" type="line"/>
    </contour>
  </outline>
</glyph>
